SansGuiltExtrude.ufo
<glyph name="uni0021" format="1">
  <advance width="229"/>
  <unicode hex="0021"/>
  <outline>
    <contour>
      <point x="63,1406" y="446,75" type="curve" smooth="yes"/>
      <point x="63,1406" y="497,344"/>
      <point x="68,75" y="570,078"/>
      <point x="102" y="584,578" type="curve" smooth="yes"/>
      <point x="106,844" y="586,688"/>
      <point x="111,656" y="587,812"/>
      <point x="116,375" y="587,812" type="curve" smooth="yes"/>
      <point x="146,141" y="587,812"/>
      <point x="163,266" y="545,484"/>
      <point x="166" y="479,25" type="curve" smooth="yes"/>
      <point x="166,281" y="472,25"/>
      <point x="166,609" y="464,547"/>
      <point x="166,594" y="456,188" type="curve" smooth="yes"/>
      <point x="166,438" y="369,094"/>
      <point x="143,969" y="189,469"/>
      <point x="124,828" y="165,859" type="curve" smooth="yes"/>
      <point x="124,375" y="165,297"/>
      <point x="123,938" y="164,734"/>
      <point x="123,344" y="164,281" type="curve" smooth="yes"/>
      <point x="121,516" y="162,906"/>
      <point x="121,156" y="162,5"/>
      <point x="119,469" y="161,906" type="curve" smooth="yes"/>
      <point x="118,281" y="161,484"/>
      <point x="117,266" y="161,328"/>
      <point x="116,312" y="161,359" type="curve" smooth="yes"/>
      <point x="114,594" y="161,438"/>
      <point x="114,359" y="161,516"/>
      <point x="113,391" y="161,828" type="curve" smooth="yes"/>
      <point x="101" y="165,781"/>
      <point x="90,0312" y="198,594"/>
      <point x="79,0625" y="268,219" type="curve" smooth="yes"/>
      <point x="68,2188" y="337,062"/>
      <point x="63,1406" y="397,562"/>
    </contour>
    <contour>
      <point x="57,6875" y="43,625" type="curve" smooth="yes"/>
      <point x="57,6875" y="67,8594"/>
      <point x="72,3438" y="93,0469"/>
      <point x="100,844" y="99,8594" type="curve" smooth="yes"/>
      <point x="105,266" y="100,922"/>
      <point x="109,656" y="101,391"/>
      <point x="113,922" y="101,391" type="curve" smooth="yes"/>
      <point x="145,875" y="101,391"/>
      <point x="171,156" y="74,2812"/>
      <point x="171,156" y="43,4844" type="curve" smooth="yes"/>
      <point x="171,156" y="35,4375"/>
      <point x="169,516" y="26,0781"/>
      <point x="164,406" y="16,625" type="curve" smooth="yes"/>
      <point x="154,875" y="-0,96875"/>
      <point x="135,078" y="-11,2344"/>
      <point x="113,656" y="-11,2344" type="curve" smooth="yes"/>
      <point x="107,766" y="-11,2344"/>
      <point x="101,641" y="-10,5312"/>
      <point x="95,6562" y="-8,8125" type="curve" smooth="yes"/>
      <point x="70,25" y="-1,51562"/>
      <point x="57,6875" y="21,2656"/>
    </contour>
    <contour>
      <point x="165" y="-81" type="line"/>
      <point x="155" y="-81" type="line"/>
      <point x="155" y="19" type="line"/>
      <point x="165" y="19" type="line"/>
    </contour>
    <contour>
      <point x="102" y="-104" type="line"/>
      <point x="92" y="-104" type="line"/>
      <point x="92" y="-4" type="line"/>
      <point x="102" y="-4" type="line"/>
    </contour>
    <contour>
      <point x="125" y="96,0156" type="line"/>
      <point x="115" y="96,0156" type="line"/>
      <point x="115" y="168" type="line"/>
      <point x="125" y="168" type="line"/>
    </contour>
    <contour>
      <point x="89" y="169" type="line"/>
      <point x="79" y="169" type="line"/>
      <point x="79" y="269" type="line"/>
      <point x="89" y="269" type="line"/>
    </contour>
    <contour>
      <point x="73,1406" y="346,75" type="line" smooth="yes"/>
      <point x="73,1406" y="298,266"/>
      <point x="78,2188" y="238,234"/>
      <point x="88,9375" y="169,781" type="curve" smooth="yes"/>
      <point x="93,9688" y="137,641"/>
      <point x="99,4062" y="112,781"/>
      <point x="104,578" y="95,8906" type="curve"/>
      <point x="95,0156" y="92,9688" type="line"/>
      <point x="89,6094" y="110,625"/>
      <point x="84,1406" y="135,812"/>
      <point x="79,0625" y="168,219" type="curve" smooth="yes"/>
      <point x="68,2656" y="237,062"/>
      <point x="63,1406" y="297,562"/>
      <point x="63,1406" y="346,75" type="curve" smooth="yes"/>
      <point x="63,1406" y="446,75" type="line"/>
      <point x="73,1406" y="446,75" type="line"/>
    </contour>
    <contour>
      <point x="156,594" y="356,188" type="curve" smooth="yes"/>
      <point x="156,594" y="456,188" type="line"/>
      <point x="166,594" y="456,188" type="line"/>
      <point x="166,594" y="356,188" type="line" smooth="yes"/>
      <point x="166,594" y="278,812"/>
      <point x="150,453" y="148,859"/>
      <point x="135,281" y="92,3125" type="curve"/>
      <point x="125,625" y="94,9062" type="line"/>
      <point x="140,359" y="149,781"/>
      <point x="156,594" y="280,188"/>
    </contour>
    <contour>
      <point x="67,6875" y="-56,375" type="line" smooth="yes"/>
      <point x="67,6875" y="-75,2656"/>
      <point x="77,6562" y="-93,2344"/>
      <point x="98,3438" y="-99,1875" type="curve" smooth="yes"/>
      <point x="103,5" y="-100,672"/>
      <point x="108,641" y="-101,234"/>
      <point x="113,656" y="-101,234" type="curve" smooth="yes"/>
      <point x="131,938" y="-101,234"/>
      <point x="148,078" y="-92,5312"/>
      <point x="155,594" y="-78,625" type="curve" smooth="yes"/>
      <point x="159,828" y="-70,8125"/>
      <point x="161,156" y="-63,1719"/>
      <point x="161,156" y="-56,5156" type="curve" smooth="yes"/>
      <point x="161,156" y="43,4844" type="line"/>
      <point x="171,156" y="43,4844" type="line"/>
      <point x="171,156" y="-56,5156" type="line" smooth="yes"/>
      <point x="171,156" y="-64,5625"/>
      <point x="169,516" y="-73,9219"/>
      <point x="164,406" y="-83,375" type="curve" smooth="yes"/>
      <point x="154,875" y="-100,969"/>
      <point x="135,078" y="-111,234"/>
      <point x="113,656" y="-111,234" type="curve" smooth="yes"/>
      <point x="107,766" y="-111,234"/>
      <point x="101,641" y="-110,531"/>
      <point x="95,6562" y="-108,812" type="curve" smooth="yes"/>
      <point x="70,25" y="-101,516"/>
      <point x="57,6875" y="-78,7344"/>
      <point x="57,6875" y="-56,375" type="curve" smooth="yes"/>
      <point x="57,6875" y="43,625" type="line"/>
      <point x="67,6875" y="43,625" type="line"/>
    </contour>
  </outline>
</glyph>
<glyph name="uni0022" format="1">
  <advance width="299"/>
  <unicode hex="0022"/>
  <outline>
    <contour>
      <point x="34" y="552" type="curve" smooth="yes"/>
      <point x="34" y="610" type="line"/>
      <point x="130" y="610" type="line"/>
      <point x="130" y="559" type="line" smooth="yes"/>
      <point x="130" y="513,938"/>
      <point x="128,922" y="508,109"/>
      <point x="120,938" y="450,25" type="curve"/>
      <point x="110,25" y="385" type="line"/>
      <point x="52,7656" y="385" type="line"/>
      <point x="43,0625" y="443,172" type="line" smooth="yes"/>
      <point x="34,0781" y="497,094"/>
      <point x="34" y="500,109"/>
    </contour>
    <contour>
      <point x="170" y="554" type="curve" smooth="yes"/>
      <point x="170" y="610" type="line"/>
      <point x="266" y="610" type="line"/>
      <point x="266" y="555" type="line" smooth="yes"/>
      <point x="266" y="507,094"/>
      <point x="265,922" y="502,094"/>
      <point x="256,938" y="447,156" type="curve" smooth="yes"/>
      <point x="246,234" y="386,172" type="line"/>
      <point x="218,109" y="385" type="line"/>
      <point x="189,734" y="385" type="line"/>
      <point x="180,062" y="445,156" type="line" smooth="yes"/>
      <point x="170,094" y="501,047"/>
      <point x="170" y="504,094"/>
    </contour>
    <contour>
      <point x="257" y="348" type="line"/>
      <point x="247" y="348" type="line"/>
      <point x="247" y="448" type="line"/>
      <point x="257" y="448" type="line"/>
    </contour>
    <contour>
      <point x="247" y="291" type="line"/>
      <point x="237" y="291" type="line"/>
      <point x="237" y="391" type="line"/>
      <point x="247" y="391" type="line"/>
    </contour>
    <contour>
      <point x="223" y="290" type="line"/>
      <point x="213" y="290" type="line"/>
      <point x="213" y="390" type="line"/>
      <point x="223" y="390" type="line"/>
    </contour>
    <contour>
      <point x="199" y="290" type="line"/>
      <point x="189" y="290" type="line"/>
      <point x="189" y="390" type="line"/>
      <point x="199" y="390" type="line"/>
    </contour>
    <contour>
      <point x="190" y="346" type="line"/>
      <point x="180" y="346" type="line"/>
      <point x="180" y="446" type="line"/>
      <point x="190" y="446" type="line"/>
    </contour>
    <contour>
      <point x="121" y="351" type="line"/>
      <point x="111" y="351" type="line"/>
      <point x="111" y="451" type="line"/>
      <point x="121" y="451" type="line"/>
    </contour>
    <contour>
      <point x="111" y="290" type="line"/>
      <point x="101" y="290" type="line"/>
      <point x="101" y="390" type="line"/>
      <point x="111" y="390" type="line"/>
    </contour>
    <contour>
      <point x="87" y="290" type="line"/>
      <point x="77" y="290" type="line"/>
      <point x="77" y="390" type="line"/>
      <point x="87" y="390" type="line"/>
    </contour>
    <contour>
      <point x="62" y="290" type="line"/>
      <point x="52" y="290" type="line"/>
      <point x="52" y="390" type="line"/>
      <point x="62" y="390" type="line"/>
    </contour>
    <contour>
      <point x="53" y="344" type="line"/>
      <point x="43" y="344" type="line"/>
      <point x="43" y="444" type="line"/>
      <point x="53" y="444" type="line"/>
    </contour>
    <contour>
      <point x="44" y="452" type="line" smooth="yes"/>
      <point x="44" y="399,891"/>
      <point x="43,9219" y="398,906"/>
      <point x="52,9375" y="344,828" type="curve" smooth="yes"/>
      <point x="61,2344" y="295" type="line"/>
      <point x="101,75" y="295" type="line"/>
      <point x="111,062" y="351,75" type="line"/>
      <point x="119,078" y="409,891"/>
      <point x="120" y="414,062"/>
      <point x="120" y="459" type="curve" smooth="yes"/>
      <point x="120" y="559" type="line"/>
      <point x="130" y="559" type="line"/>
      <point x="130" y="459" type="line" smooth="yes"/>
      <point x="130" y="413,938"/>
      <point x="129,312" y="408,062"/>
      <point x="120,938" y="350,25" type="curve" smooth="yes"/>
      <point x="118" y="329,859"/>
      <point x="114,266" y="309,531"/>
      <point x="110,938" y="289,188" type="curve" smooth="yes"/>
      <point x="110,25" y="285" type="line"/>
      <point x="82" y="285" type="line" smooth="yes"/>
      <point x="57" y="285" type="line" smooth="yes"/>
      <point x="52,7656" y="285" type="line"/>
      <point x="52,7656" y="285"/>
      <point x="46,0625" y="325,172"/>
      <point x="43,0625" y="343,172" type="curve" smooth="yes"/>
      <point x="34,0781" y="397,094"/>
      <point x="34" y="400,109"/>
      <point x="34" y="452" type="curve" smooth="yes"/>
      <point x="34" y="552" type="line"/>
      <point x="44" y="552" type="line"/>
    </contour>
    <contour>
      <point x="180" y="454" type="line" smooth="yes"/>
      <point x="180" y="403,906"/>
      <point x="179,906" y="402,938"/>
      <point x="189,938" y="346,844" type="curve" smooth="yes"/>
      <point x="198,266" y="295" type="line"/>
      <point x="217,891" y="295" type="line"/>
      <point x="237,766" y="295,828" type="line"/>
      <point x="247,062" y="348,844" type="line" smooth="yes"/>
      <point x="256,078" y="403,906"/>
      <point x="256" y="406,906"/>
      <point x="256" y="455" type="curve" smooth="yes"/>
      <point x="256" y="555" type="line"/>
      <point x="266" y="555" type="line"/>
      <point x="266" y="455" type="line" smooth="yes"/>
      <point x="266" y="407,094"/>
      <point x="266,078" y="402,062"/>
      <point x="256,938" y="347,156" type="curve" smooth="yes"/>
      <point x="253,766" y="328,141"/>
      <point x="250,25" y="309,141"/>
      <point x="246,922" y="290,141" type="curve" smooth="yes"/>
      <point x="246,234" y="286,172" type="line"/>
      <point x="242,203" y="286" type="line" smooth="yes"/>
      <point x="234,203" y="285,672"/>
      <point x="226,109" y="285,172"/>
      <point x="218,109" y="285" type="curve" smooth="yes"/>
      <point x="210,109" y="284,828"/>
      <point x="202" y="285"/>
      <point x="194" y="285" type="curve" smooth="yes"/>
      <point x="189,734" y="285" type="line"/>
      <point x="189,062" y="289,203" type="line" smooth="yes"/>
      <point x="186,062" y="307,875"/>
      <point x="183,312" y="326,531"/>
      <point x="180,062" y="345,156" type="curve" smooth="yes"/>
      <point x="170,328" y="401,094"/>
      <point x="170" y="404,094"/>
      <point x="170" y="454" type="curve" smooth="yes"/>
      <point x="170" y="554" type="line"/>
      <point x="180" y="554" type="line"/>
    </contour>
  </outline>
</glyph>
<glyph name="uni0023" format="1">
  <advance width="496"/>
  <unicode hex="0023"/>
  <outline>
    <contour>
      <point x="169,188" y="578,219" type="curve" smooth="yes"/>
      <point x="169,812" y="579,031"/>
      <point x="170,906" y="580,016"/>
      <point x="173,281" y="580,594" type="curve" smooth="yes"/>
      <point x="177,453" y="581,609"/>
      <point x="186,406" y="581,828"/>
      <point x="192,766" y="581,812" type="curve" smooth="yes"/>
      <point x="202,141" y="581,781"/>
      <point x="217,938" y="581,312"/>
      <point x="223,828" y="579,688" type="curve" smooth="yes"/>
      <point x="226,328" y="579"/>
      <point x="229" y="577,406"/>
      <point x="229" y="574" type="curve"/>
      <point x="229,031" y="574,281"/>
      <point x="228,938" y="573,203"/>
      <point x="228,938" y="573,125" type="curve" smooth="yes"/>
      <point x="228,422" y="569,625"/>
      <point x="222,281" y="542,984"/>
      <point x="211,891" y="493,969" type="curve" smooth="yes"/>
      <point x="205,094" y="461,875"/>
      <point x="198,641" y="430,109"/>
      <point x="196,609" y="418,75" type="curve"/>
      <point x="209,531" y="417,375"/>
      <point x="251" y="416,75"/>
      <point x="300,141" y="416,75" type="curve" smooth="yes"/>
      <point x="325,25" y="416,75"/>
      <point x="347,078" y="416,906"/>
      <point x="355,875" y="416,969" type="curve"/>
      <point x="358,406" y="429,281"/>
      <point x="366,359" y="465,359"/>
      <point x="373,109" y="495,062" type="curve" smooth="yes"/>
      <point x="390,938" y="581" type="line"/>
      <point x="421,906" y="581" type="line" smooth="yes"/>
      <point x="430,25" y="581,328"/>
      <point x="435,938" y="581,562"/>
      <point x="440,031" y="581,562" type="curve" smooth="yes"/>
      <point x="440,031" y="581,562"/>
      <point x="443,438" y="581,578"/>
      <point x="445,625" y="581,297" type="curve" smooth="yes"/>
      <point x="448,141" y="580,953"/>
      <point x="452,578" y="579,594"/>
      <point x="452,578" y="574,766" type="curve" smooth="yes"/>
      <point x="452,578" y="573,562"/>
      <point x="452,047" y="572,531"/>
      <point x="451,875" y="571,625" type="curve" smooth="yes"/>
      <point x="450,766" y="565,625"/>
      <point x="444,906" y="540,141"/>
      <point x="435,891" y="493,969" type="curve" smooth="yes"/>
      <point x="428,438" y="460,812"/>
      <point x="420,281" y="424,578"/>
      <point x="419,094" y="417,562" type="curve"/>
      <point x="422,859" y="417,109"/>
      <point x="430,953" y="417"/>
      <point x="454" y="417" type="curve" smooth="yes"/>
      <point x="499" y="417" type="line"/>
      <point x="499" y="354" type="line"/>
      <point x="406,234" y="354" type="line"/>
      <point x="404,906" y="346,078" type="line"/>
      <point x="377,312" y="212,859" type="line"/>
      <point x="382,094" y="212,234"/>
      <point x="394,125" y="212"/>
      <point x="433" y="212" type="curve" smooth="yes"/>
      <point x="499" y="212" type="line"/>
      <point x="499" y="149" type="line"/>
      <point x="365,016" y="149" type="line"/>
      <point x="363,891" y="143,969" type="line" smooth="yes"/>
      <point x="362,859" y="138,812"/>
      <point x="354,906" y="102,016"/>
      <point x="345,891" y="61,9531" type="curve" smooth="yes"/>
      <point x="330,094" y="-16" type="line"/>
      <point x="300" y="-16" type="line" smooth="yes"/>
      <point x="287,938" y="-15,9531"/>
      <point x="280,375" y="-15,7656"/>
      <point x="275,797" y="-14,5312" type="curve" smooth="yes"/>
      <point x="272,5" y="-13,6406"/>
      <point x="269" y="-11,5156"/>
      <point x="269" y="-7" type="curve"/>
      <point x="268,969" y="-7,3125"/>
      <point x="269,062" y="-6,20312"/>
      <point x="269,062" y="-6,125" type="curve" smooth="yes"/>
      <point x="269,578" y="-2,625"/>
      <point x="275,625" y="24,0469"/>
      <point x="286,109" y="73,0469" type="curve" smooth="yes"/>
      <point x="292,828" y="104,406"/>
      <point x="299,375" y="136,859"/>
      <point x="301,406" y="148,312" type="curve"/>
      <point x="294,203" y="148,891"/>
      <point x="275,875" y="149"/>
      <point x="222" y="149" type="curve" smooth="yes"/>
      <point x="141,016" y="149" type="line"/>
      <point x="123,891" y="70,9688" type="line"/>
      <point x="106,078" y="-16" type="line"/>
      <point x="76" y="-16" type="line" smooth="yes"/>
      <point x="63,7656" y="-15,9531"/>
      <point x="56,0625" y="-15,8281"/>
      <point x="51,4375" y="-14,5156" type="curve" smooth="yes"/>
      <point x="46,6719" y="-13,1406"/>
      <point x="45" y="-10"/>
      <point x="45" y="-7" type="curve"/>
      <point x="44,9688" y="-7,26562"/>
      <point x="45,0469" y="-6,29688"/>
      <point x="45,0469" y="-6,23438" type="curve" smooth="yes"/>
      <point x="45,4844" y="-2,76562"/>
      <point x="52,7031" y="32,7969"/>
      <point x="62,125" y="75,0781" type="curve" smooth="yes"/>
      <point x="68,9375" y="105,688"/>
      <point x="74,7031" y="136,547"/>
      <point x="77,0469" y="149" type="curve"/>
      <point x="-3" y="149" type="line"/>
      <point x="-3" y="211,891" type="line"/>
      <point x="47,9375" y="213" type="line"/>
      <point x="90,9531" y="213" type="line"/>
      <point x="106,109" y="284,016" type="line"/>
      <point x="119,906" y="353" type="line"/>
      <point x="63,9531" y="353" type="line"/>
      <point x="-3" y="354,078" type="line"/>
      <point x="-3" y="417" type="line"/>
      <point x="132,938" y="417" type="line"/>
      <point x="149,109" y="494,062" type="line" smooth="yes"/>
      <point x="159,453" y="539,578"/>
      <point x="165,438" y="568,641"/>
      <point x="168,016" y="576,062" type="curve" smooth="yes"/>
      <point x="168,266" y="576,766"/>
      <point x="168,609" y="577,5"/>
    </contour>
    <contour>
      <point x="343,266" y="352,5" type="line"/>
      <point x="331,219" y="353,797"/>
      <point x="293,984" y="353,984"/>
      <point x="264" y="354" type="curve" smooth="yes"/>
      <point x="183,078" y="354" type="line"/>
      <point x="168,891" y="284,953" type="line" smooth="yes"/>
      <point x="160,375" y="247,125"/>
      <point x="155,672" y="223,578"/>
      <point x="153,203" y="213,438" type="curve"/>
      <point x="163,188" y="212,375"/>
      <point x="184,641" y="212,609"/>
      <point x="188,062" y="212,609" type="curve" smooth="yes"/>
      <point x="199,719" y="212,609"/>
      <point x="214,484" y="212,734"/>
      <point x="232,969" y="213" type="curve" smooth="yes"/>
      <point x="314,922" y="213" type="line"/>
      <point x="329,094" y="282" type="line"/>
    </contour>
    <contour>
      <point x="269" y="259" type="line"/>
      <point x="259" y="259" type="line"/>
      <point x="259" y="359" type="line"/>
      <point x="269" y="359" type="line"/>
    </contour>
    <contour>
      <point x="184" y="259" type="line"/>
      <point x="174" y="259" type="line"/>
      <point x="174" y="359" type="line"/>
      <point x="184" y="359" type="line"/>
    </contour>
    <contour>
      <point x="169" y="207,875" type="line"/>
      <point x="159" y="207,875" type="line"/>
      <point x="159" y="286" type="line"/>
      <point x="169" y="286" type="line"/>
    </contour>
    <contour>
      <point x="212" y="413,422" type="line"/>
      <point x="202" y="413,422" type="line"/>
      <point x="202" y="495" type="line"/>
      <point x="212" y="495" type="line"/>
    </contour>
    <contour>
      <point x="436" y="412,062" type="line"/>
      <point x="426" y="412,062" type="line"/>
      <point x="426" y="495" type="line"/>
      <point x="436" y="495" type="line"/>
    </contour>
    <contour>
      <point x="419" y="414,203" type="line" smooth="yes"/>
      <point x="409" y="414,203" type="line" smooth="yes"/>
      <point x="409" y="417" type="line" smooth="yes"/>
      <point x="419" y="417" type="line" smooth="yes"/>
    </contour>
    <contour>
      <point x="453" y="259" type="line"/>
      <point x="443" y="259" type="line"/>
      <point x="443" y="359" type="line"/>
      <point x="453" y="359" type="line"/>
    </contour>
    <contour>
      <point x="377" y="209,578" type="line" smooth="yes"/>
      <point x="367" y="209,578" type="line" smooth="yes"/>
      <point x="367" y="212" type="line" smooth="yes"/>
      <point x="377" y="212" type="line" smooth="yes"/>
    </contour>
    <contour>
      <point x="433" y="54" type="line"/>
      <point x="423" y="54" type="line"/>
      <point x="423" y="154" type="line"/>
      <point x="433" y="154" type="line"/>
    </contour>
    <contour>
      <point x="346" y="-37" type="line"/>
      <point x="336" y="-37" type="line"/>
      <point x="336" y="63" type="line"/>
      <point x="346" y="63" type="line"/>
    </contour>
    <contour>
      <point x="331" y="-111" type="line"/>
      <point x="321" y="-111" type="line"/>
      <point x="321" y="-11" type="line"/>
      <point x="331" y="-11" type="line"/>
    </contour>
    <contour>
      <point x="305" y="-111" type="line"/>
      <point x="295" y="-111" type="line"/>
      <point x="295" y="-11" type="line"/>
      <point x="305" y="-11" type="line"/>
    </contour>
    <contour>
      <point x="227" y="54" type="line"/>
      <point x="217" y="54" type="line"/>
      <point x="217" y="154" type="line"/>
      <point x="227" y="154" type="line"/>
    </contour>
    <contour>
      <point x="142" y="54" type="line"/>
      <point x="132" y="54" type="line"/>
      <point x="132" y="154" type="line"/>
      <point x="142" y="154" type="line"/>
    </contour>
    <contour>
      <point x="124" y="-28" type="line"/>
      <point x="114" y="-28" type="line"/>
      <point x="114" y="72" type="line"/>
      <point x="124" y="72" type="line"/>
    </contour>
    <contour>
      <point x="107" y="-111" type="line"/>
      <point x="97" y="-111" type="line"/>
      <point x="97" y="-11" type="line"/>
      <point x="107" y="-11" type="line"/>
    </contour>
    <contour>
      <point x="81" y="-111" type="line"/>
      <point x="71" y="-111" type="line"/>
      <point x="71" y="-11" type="line"/>
      <point x="81" y="-11" type="line"/>
    </contour>
    <contour>
      <point x="47" y="54" type="line"/>
      <point x="37" y="54" type="line"/>
      <point x="37" y="154" type="line"/>
      <point x="47" y="154" type="line"/>
    </contour>
    <contour>
      <point x="69" y="258" type="line"/>
      <point x="59" y="258" type="line"/>
      <point x="59" y="358" type="line"/>
      <point x="69" y="358" type="line"/>
    </contour>
    <contour>
      <point x="7" y="263,922" type="line"/>
      <point x="64,0469" y="263" type="line"/>
      <point x="105,672" y="263" type="line"/>
      <point x="105,672" y="253" type="line"/>
      <point x="63,9531" y="253" type="line" smooth="yes"/>
      <point x="43,2969" y="253,328"/>
      <point x="22,5938" y="253,672"/>
      <point x="1,92188" y="254" type="curve" smooth="yes"/>
      <point x="-3" y="254,078" type="line"/>
      <point x="-3" y="259" type="line" smooth="yes"/>
      <point x="-3" y="359" type="line"/>
      <point x="7" y="359" type="line"/>
    </contour>
    <contour>
      <point x="7" y="59" type="line"/>
      <point x="62,4531" y="59" type="line"/>
      <point x="62,4531" y="49" type="line"/>
      <point x="42" y="49" type="line" smooth="yes"/>
      <point x="2" y="49" type="line" smooth="yes"/>
      <point x="-3" y="49" type="line"/>
      <point x="-3" y="54" type="line" smooth="yes"/>
      <point x="-3" y="154" type="line"/>
      <point x="7" y="154" type="line"/>
    </contour>
    <contour>
      <point x="55" y="-107" type="line" smooth="yes"/>
      <point x="54,2188" y="-104,875" type="line" smooth="yes"/>
      <point x="58,3125" y="-106,047"/>
      <point x="71,5938" y="-106"/>
      <point x="76" y="-106" type="curve" smooth="yes"/>
      <point x="97,9219" y="-106" type="line"/>
      <point x="114,109" y="-26,9688" type="line" smooth="yes"/>
      <point x="120,109" y="0,375"/>
      <point x="126,109" y="27,7344"/>
      <point x="132,109" y="55,0781" type="curve" smooth="yes"/>
      <point x="132,984" y="59" type="line"/>
      <point x="137" y="59" type="line" smooth="yes"/>
      <point x="222" y="59" type="line" smooth="yes"/>
      <point x="253,391" y="59"/>
      <point x="274,016" y="59"/>
      <point x="287,156" y="58,7969" type="curve"/>
      <point x="287" y="48,7969" type="line"/>
      <point x="274,016" y="49"/>
      <point x="253,375" y="49"/>
      <point x="222" y="49" type="curve" smooth="yes"/>
      <point x="141,016" y="49" type="line"/>
      <point x="123,891" y="-29,0312" type="line" smooth="yes"/>
      <point x="118,219" y="-56,7031"/>
      <point x="112,562" y="-84,3438"/>
      <point x="106,906" y="-112" type="curve" smooth="yes"/>
      <point x="106,078" y="-116" type="line"/>
      <point x="102" y="-116" type="line" smooth="yes"/>
      <point x="76" y="-116" type="line" smooth="yes"/>
      <point x="65,0312" y="-116"/>
      <point x="55,9844" y="-115,812"/>
      <point x="51,4375" y="-114,516" type="curve" smooth="yes"/>
      <point x="45,0938" y="-112,688"/>
      <point x="45,0156" y="-108,641"/>
      <point x="45" y="-107" type="curve" smooth="yes"/>
      <point x="44,8125" y="-73,6719"/>
      <point x="45" y="-40,3281"/>
      <point x="45" y="-7" type="curve"/>
      <point x="55" y="-7" type="line"/>
    </contour>
    <contour>
      <point x="279" y="-107" type="line" smooth="yes"/>
      <point x="279" y="-107"/>
      <point x="277,812" y="-104,719"/>
      <point x="278,406" y="-104,875" type="curve" smooth="yes"/>
      <point x="280,688" y="-105,5"/>
      <point x="285,438" y="-106"/>
      <point x="300" y="-106" type="curve" smooth="yes"/>
      <point x="321,906" y="-106" type="line"/>
      <point x="336,109" y="-35,9531" type="line" smooth="yes"/>
      <point x="344,844" y="2,875"/>
      <point x="352,688" y="39,0625"/>
      <point x="354" y="45,5" type="curve"/>
      <point x="354" y="145" type="line"/>
      <point x="364" y="145" type="line"/>
      <point x="364" y="45" type="line" smooth="yes"/>
      <point x="364" y="44,5" type="line"/>
      <point x="363,906" y="44,0156" type="line" smooth="yes"/>
      <point x="362,875" y="38,875"/>
      <point x="354,578" y="2,07812"/>
      <point x="345,891" y="-38,0469" type="curve" smooth="yes"/>
      <point x="340,562" y="-62,6406"/>
      <point x="335,906" y="-87,3281"/>
      <point x="330,906" y="-112" type="curve" smooth="yes"/>
      <point x="330,094" y="-116" type="line"/>
      <point x="326" y="-116" type="line" smooth="yes"/>
      <point x="300" y="-116" type="line" smooth="yes"/>
      <point x="289,625" y="-116"/>
      <point x="280,438" y="-115,781"/>
      <point x="275,797" y="-114,531" type="curve" smooth="yes"/>
      <point x="269,219" y="-112,75"/>
      <point x="269,016" y="-108,688"/>
      <point x="269" y="-107" type="curve" smooth="yes"/>
      <point x="268,766" y="-73,6719"/>
      <point x="269" y="-40,3281"/>
      <point x="269" y="-7" type="curve"/>
      <point x="279" y="-7" type="line"/>
    </contour>
    <contour>
      <point x="366" y="59" type="line"/>
      <point x="489" y="59" type="line"/>
      <point x="489" y="154" type="line"/>
      <point x="499" y="154" type="line"/>
      <point x="499" y="54" type="line" smooth="yes"/>
      <point x="499" y="49" type="line"/>
      <point x="428" y="49" type="line" smooth="yes"/>
      <point x="361" y="49" type="line" smooth="yes"/>
      <point x="356" y="49" type="line"/>
      <point x="356" y="54" type="line" smooth="yes"/>
      <point x="356" y="154" type="line"/>
      <point x="366" y="154" type="line"/>
    </contour>
    <contour>
      <point x="395" y="247,516" type="line"/>
      <point x="395" y="347" type="line"/>
      <point x="405" y="347" type="line"/>
      <point x="405" y="247" type="line" smooth="yes"/>
      <point x="405" y="246,484" type="line"/>
      <point x="396,625" y="206,125" type="line"/>
      <point x="386,828" y="208,156" type="line"/>
    </contour>
    <contour>
      <point x="407" y="264" type="line"/>
      <point x="489" y="264" type="line"/>
      <point x="489" y="359" type="line"/>
      <point x="499" y="359" type="line"/>
      <point x="499" y="259" type="line" smooth="yes"/>
      <point x="499" y="254" type="line"/>
      <point x="494" y="254" type="line" smooth="yes"/>
      <point x="448" y="254" type="line" smooth="yes"/>
      <point x="402" y="254" type="line" smooth="yes"/>
      <point x="397" y="254" type="line"/>
      <point x="397" y="259" type="line" smooth="yes"/>
      <point x="397" y="359" type="line"/>
      <point x="407" y="359" type="line"/>
    </contour>
    <contour>
      <point x="442" y="473" type="line" smooth="yes"/>
      <point x="442" y="573" type="line"/>
      <point x="452" y="573" type="line"/>
      <point x="452" y="473" type="line" smooth="yes"/>
      <point x="452" y="472,656"/>
      <point x="451,969" y="472,328"/>
      <point x="451,953" y="472,172" type="curve" smooth="yes"/>
      <point x="451,281" y="466,453"/>
      <point x="447,891" y="453,453"/>
      <point x="439,281" y="411,047" type="curve"/>
      <point x="429,484" y="413,031" type="line"/>
      <point x="438" y="455,031"/>
      <point x="441,578" y="469,625"/>
      <point x="442,016" y="473,328" type="curve" smooth="yes"/>
    </contour>
    <contour>
      <point x="219" y="474" type="line" smooth="yes"/>
      <point x="219" y="574" type="line"/>
      <point x="229" y="574" type="line"/>
      <point x="229" y="474" type="line" smooth="yes"/>
      <point x="229" y="473,719"/>
      <point x="228,984" y="473,453"/>
      <point x="228,922" y="473,078" type="curve" smooth="yes"/>
      <point x="228,219" y="468,406"/>
      <point x="225,078" y="455,047"/>
      <point x="215,812" y="412,188" type="curve"/>
      <point x="206,031" y="414,297" type="line"/>
      <point x="215,219" y="456,781"/>
      <point x="218,547" y="471,297"/>
      <point x="219,031" y="474,578" type="curve" smooth="yes"/>
    </contour>
    <contour>
      <point x="163,578" y="208,781" type="line"/>
      <point x="174,922" y="264" type="line"/>
      <point x="179" y="264" type="line" smooth="yes"/>
      <point x="264" y="264" type="line" smooth="yes"/>
      <point x="295,625" y="264"/>
      <point x="316,344" y="263,781"/>
      <point x="329,516" y="263,328" type="curve"/>
      <point x="329,172" y="253,344" type="line"/>
      <point x="316,234" y="253,781"/>
      <point x="295,562" y="254"/>
      <point x="264" y="254" type="curve" smooth="yes"/>
      <point x="183,078" y="254" type="line"/>
      <point x="173,375" y="206,766" type="line"/>
    </contour>
  </outline>
</glyph>
<glyph name="uni0028" format="1">
  <advance width="274"/>
  <unicode hex="0028"/>
  <outline>
    <contour>
      <point x="189" y="558" type="curve" smooth="yes"/>
      <point x="211,5" y="588" type="line"/>
      <point x="273,016" y="588" type="line"/>
      <point x="263,125" y="572,172" type="line" smooth="yes"/>
      <point x="260,672" y="568,922"/>
      <point x="255,422" y="560,109"/>
      <point x="252,031" y="555,062" type="curve" smooth="yes"/>
      <point x="183,047" y="452"/>
      <point x="153,047" y="353,172"/>
      <point x="149" y="215,828" type="curve" smooth="yes"/>
      <point x="148,797" y="209,125"/>
      <point x="148,609" y="202,328"/>
      <point x="148,609" y="195,484" type="curve" smooth="yes"/>
      <point x="148,609" y="69,4219"/>
      <point x="191,359" y="-75,0625"/>
      <point x="251,109" y="-164,141" type="curve" smooth="yes"/>
      <point x="259,938" y="-177,328"/>
      <point x="265,438" y="-185,344"/>
      <point x="266,359" y="-187,359" type="curve" smooth="yes"/>
      <point x="266,625" y="-187,953"/>
      <point x="266,812" y="-188,656"/>
      <point x="266,969" y="-189,453" type="curve" smooth="yes"/>
      <point x="267,141" y="-190,234"/>
      <point x="267,453" y="-190,922"/>
      <point x="267,406" y="-191,047" type="curve" smooth="yes"/>
      <point x="266,719" y="-193,266"/>
      <point x="266,891" y="-196,25"/>
      <point x="261,125" y="-197,328" type="curve" smooth="yes"/>
      <point x="256,828" y="-198,141"/>
      <point x="245,656" y="-198"/>
      <point x="239" y="-198" type="curve" smooth="yes"/>
      <point x="211,594" y="-198" type="line"/>
      <point x="186,094" y="-166,125" type="line" smooth="yes"/>
      <point x="92,7188" y="-49,3906"/>
      <point x="49,5156" y="63,8906"/>
      <point x="49" y="193,984" type="curve" smooth="yes"/>
      <point x="48,5" y="321,078"/>
      <point x="88,8438" y="424,469"/>
    </contour>
    <contour>
      <point x="253" y="458" type="line"/>
      <point x="243" y="458" type="line"/>
      <point x="243" y="558" type="line"/>
      <point x="253" y="558" type="line"/>
    </contour>
    <contour>
      <point x="149" y="174,344" type="line"/>
      <point x="139" y="174,344" type="line"/>
      <point x="139" y="216" type="line"/>
      <point x="149" y="216" type="line"/>
    </contour>
    <contour>
      <point x="244" y="-293" type="line"/>
      <point x="234" y="-293" type="line"/>
      <point x="234" y="-193" type="line"/>
      <point x="244" y="-193" type="line"/>
    </contour>
    <contour>
      <point x="219" y="-293" type="line"/>
      <point x="209" y="-293" type="line"/>
      <point x="209" y="-193" type="line"/>
      <point x="219" y="-193" type="line"/>
    </contour>
    <contour>
      <point x="195" y="-263" type="line"/>
      <point x="185" y="-263" type="line"/>
      <point x="185" y="-163" type="line"/>
      <point x="195" y="-163" type="line"/>
    </contour>
    <contour>
      <point x="59" y="94,0156" type="curve" smooth="yes"/>
      <point x="59,7812" y="-33,8906"/>
      <point x="101,406" y="-144,5"/>
      <point x="193,906" y="-259,875" type="curve" smooth="yes"/>
      <point x="216,406" y="-288" type="line"/>
      <point x="239" y="-288" type="line" smooth="yes"/>
      <point x="253,203" y="-288"/>
      <point x="255,75" y="-288,078"/>
      <point x="259,203" y="-287,438" type="curve" smooth="yes"/>
      <point x="257,406" y="-291,047" type="line"/>
      <point x="257,406" y="-191,047" type="line"/>
      <point x="267,406" y="-191,047" type="line"/>
      <point x="267,406" y="-291,047" type="line" smooth="yes"/>
      <point x="267,406" y="-292,297"/>
      <point x="266,891" y="-296,25"/>
      <point x="261,125" y="-297,328" type="curve" smooth="yes"/>
      <point x="256,828" y="-298,141"/>
      <point x="245,656" y="-298"/>
      <point x="239" y="-298" type="curve" smooth="yes"/>
      <point x="214" y="-298" type="line" smooth="yes"/>
      <point x="211,594" y="-298" type="line"/>
      <point x="210,094" y="-296,125" type="line" smooth="yes"/>
      <point x="202,094" y="-286,125"/>
      <point x="194,109" y="-276,125"/>
      <point x="186,094" y="-266,125" type="curve" smooth="yes"/>
      <point x="92,5938" y="-149,484"/>
      <point x="49,7969" y="-36,1094"/>
      <point x="49" y="93,9844" type="curve" smooth="yes"/>
      <point x="48,7969" y="127,312"/>
      <point x="49" y="160,672"/>
      <point x="49" y="194" type="curve"/>
      <point x="59" y="194" type="line"/>
      <point x="59" y="150,672"/>
      <point x="58,7969" y="127,359"/>
    </contour>
    <contour>
      <point x="243,969" y="460,938" type="curve" smooth="yes"/>
      <point x="246,781" y="465,156"/>
      <point x="250,766" y="471,875"/>
      <point x="254" y="476,594" type="curve"/>
      <point x="254" y="575" type="line"/>
      <point x="264" y="575" type="line"/>
      <point x="264" y="475" type="line" smooth="yes"/>
      <point x="264" y="473,328" type="line"/>
      <point x="263" y="472" type="line" smooth="yes"/>
      <point x="260,562" y="468,75"/>
      <point x="255,422" y="460,109"/>
      <point x="252,031" y="455,062" type="curve" smooth="yes"/>
      <point x="188,547" y="360,297"/>
      <point x="158,172" y="269,094"/>
      <point x="150,484" y="148,234" type="curve"/>
      <point x="140,5" y="148,875" type="line"/>
      <point x="148,281" y="271,094"/>
      <point x="179,75" y="364,938"/>
    </contour>
  </outline>
</glyph>
<glyph name="uni002B" format="1">
  <advance width="494"/>
  <unicode hex="002B"/>
  <outline>
    <contour>
      <point x="207" y="340" type="line"/>
      <point x="207" y="503" type="line"/>
      <point x="290" y="503" type="line"/>
      <point x="290" y="340" type="line"/>
      <point x="453" y="340" type="line"/>
      <point x="453" y="257" type="line"/>
      <point x="290" y="257" type="line"/>
      <point x="290" y="92" type="line"/>
      <point x="207" y="92" type="line"/>
      <point x="207" y="257" type="line"/>
      <point x="42" y="257" type="line"/>
      <point x="42" y="340" type="line"/>
    </contour>
    <contour>
      <point x="253" y="-3" type="line"/>
      <point x="243" y="-3" type="line"/>
      <point x="243" y="97" type="line"/>
      <point x="253" y="97" type="line"/>
    </contour>
    <contour>
      <point x="135" y="162" type="line"/>
      <point x="125" y="162" type="line"/>
      <point x="125" y="262" type="line"/>
      <point x="135" y="262" type="line"/>
    </contour>
    <contour>
      <point x="52" y="167" type="line"/>
      <point x="212" y="167" type="line"/>
      <point x="212" y="157" type="line"/>
      <point x="130" y="157" type="line" smooth="yes"/>
      <point x="47" y="157" type="line" smooth="yes"/>
      <point x="42" y="157" type="line"/>
      <point x="42" y="162" type="line" smooth="yes"/>
      <point x="42" y="262" type="line"/>
      <point x="52" y="262" type="line"/>
    </contour>
    <contour>
      <point x="217" y="2" type="line"/>
      <point x="280" y="2" type="line"/>
      <point x="280" y="97" type="line"/>
      <point x="290" y="97" type="line"/>
      <point x="290" y="-3" type="line" smooth="yes"/>
      <point x="290" y="-8" type="line"/>
      <point x="285" y="-8" type="line" smooth="yes"/>
      <point x="248" y="-8" type="line" smooth="yes"/>
      <point x="207" y="-8" type="line"/>
      <point x="207" y="-3" type="line" smooth="yes"/>
      <point x="207" y="97" type="line"/>
      <point x="217" y="97" type="line"/>
    </contour>
    <contour>
      <point x="290" y="162" type="line"/>
      <point x="280" y="162" type="line"/>
      <point x="280" y="262" type="line"/>
      <point x="290" y="262" type="line"/>
    </contour>
    <contour>
      <point x="371" y="167" type="line"/>
      <point x="443" y="167" type="line"/>
      <point x="443" y="262" type="line"/>
      <point x="453" y="262" type="line"/>
      <point x="453" y="162" type="line" smooth="yes"/>
      <point x="453" y="157" type="line"/>
      <point x="448" y="157" type="line" smooth="yes"/>
      <point x="366" y="157" type="line" smooth="yes"/>
      <point x="361" y="157" type="line"/>
      <point x="361" y="162" type="line" smooth="yes"/>
      <point x="361" y="262" type="line"/>
      <point x="371" y="262" type="line"/>
    </contour>
  </outline>
</glyph>
<glyph name="uni002C" format="1">
  <advance width="184"/>
  <unicode hex="002C"/>
  <outline>
    <contour>
      <point x="27,0938" y="55,4844" type="curve" smooth="yes"/>
      <point x="27,0938" y="80,5312"/>
      <point x="41,0312" y="106,016"/>
      <point x="68,7969" y="112,844" type="curve" smooth="yes"/>
      <point x="73,8594" y="114,094"/>
      <point x="78,75" y="114,75"/>
      <point x="83,4688" y="114,75" type="curve" smooth="yes"/>
      <point x="120,344" y="114,75"/>
      <point x="144,938" y="76,1719"/>
      <point x="144,938" y="27,9062" type="curve" smooth="yes"/>
      <point x="144,938" y="-4,29688"/>
      <point x="133,812" y="-39,25"/>
      <point x="108,531" y="-64,5312" type="curve" smooth="yes"/>
      <point x="92,6875" y="-80,375"/>
      <point x="53,7031" y="-106"/>
      <point x="40" y="-106" type="curve" smooth="yes"/>
      <point x="35,8281" y="-106"/>
      <point x="33,0312" y="-102,688"/>
      <point x="33,0312" y="-97,7188" type="curve" smooth="yes"/>
      <point x="33,0312" y="-89,8438"/>
      <point x="39,5625" y="-75,1875"/>
      <point x="46,0312" y="-66,9531" type="curve" smooth="yes"/>
      <point x="59,4375" y="-49,9219"/>
      <point x="62,2188" y="-44,0312"/>
      <point x="66,0781" y="-23,1094" type="curve" smooth="yes"/>
      <point x="68,1562" y="-11,8906"/>
      <point x="68,7031" y="-8,01562"/>
      <point x="68,625" y="-5,40625" type="curve" smooth="yes"/>
      <point x="68,5781" y="-3,84375"/>
      <point x="68,5312" y="-4,28125"/>
      <point x="68,4375" y="-4,01562" type="curve" smooth="yes"/>
      <point x="68,3125" y="-3,90625"/>
      <point x="67,7812" y="-3,625"/>
      <point x="65,25" y="-2,6875" type="curve" smooth="yes"/>
      <point x="39,5938" y="6,9375"/>
      <point x="27,0938" y="31,6719"/>
    </contour>
    <contour>
      <point x="72" y="-41,125" type="line"/>
      <point x="62" y="-41,125" type="line"/>
      <point x="62" y="2" type="line"/>
      <point x="72" y="2" type="line"/>
    </contour>
    <contour>
      <point x="110" y="-161" type="line"/>
      <point x="100" y="-161" type="line"/>
      <point x="100" y="-61" type="line"/>
      <point x="110" y="-61" type="line"/>
    </contour>
    <contour>
      <point x="45" y="-194,672" type="line"/>
      <point x="57,2812" y="-190"/>
      <point x="85,2969" y="-173,641"/>
      <point x="101,469" y="-157,469" type="curve" smooth="yes"/>
      <point x="124,453" y="-134,469"/>
      <point x="134,938" y="-102,062"/>
      <point x="134,938" y="-72,0938" type="curve" smooth="yes"/>
      <point x="134,938" y="27,9062" type="line"/>
      <point x="144,938" y="27,9062" type="line"/>
      <point x="144,938" y="-72,0938" type="line" smooth="yes"/>
      <point x="144,938" y="-104,297"/>
      <point x="133,812" y="-139,25"/>
      <point x="108,531" y="-164,531" type="curve" smooth="yes"/>
      <point x="92,6875" y="-180,375"/>
      <point x="53,7031" y="-206"/>
      <point x="40" y="-206" type="curve" smooth="yes"/>
      <point x="35" y="-206" type="line"/>
      <point x="35" y="-201" type="line" smooth="yes"/>
      <point x="35" y="-101" type="line"/>
      <point x="45" y="-101" type="line"/>
    </contour>
    <contour>
      <point x="37,0938" y="-44,5156" type="line" smooth="yes"/>
      <point x="37,0938" y="-56,3125"/>
      <point x="40,6562" y="-68,1719"/>
      <point x="47,6406" y="-77,5156" type="curve"/>
      <point x="39,6406" y="-83,5" type="line"/>
      <point x="31,1875" y="-72,2188"/>
      <point x="27,0938" y="-58,2812"/>
      <point x="27,0938" y="-44,5156" type="curve" smooth="yes"/>
      <point x="27,0938" y="55,4844" type="line"/>
      <point x="37,0938" y="55,4844" type="line"/>
    </contour>
  </outline>
</glyph>
<glyph name="uni002F" format="1">
  <advance width="237"/>
  <unicode hex="002F"/>
  <outline>
    <contour>
      <point x="160,172" y="579,312" type="curve" smooth="yes"/>
      <point x="160,422" y="580,172"/>
      <point x="160,984" y="582,984"/>
      <point x="162,25" y="585,047" type="curve" smooth="yes"/>
      <point x="162,891" y="586,094"/>
      <point x="163,828" y="587,125"/>
      <point x="164,922" y="587,906" type="curve" smooth="yes"/>
      <point x="169,594" y="591,234"/>
      <point x="178,156" y="591,016"/>
      <point x="198" y="591" type="curve" smooth="yes"/>
      <point x="209,5" y="590,984"/>
      <point x="221,281" y="591"/>
      <point x="226,766" y="589,656" type="curve" smooth="yes"/>
      <point x="232,859" y="588,156"/>
      <point x="233,156" y="584,203"/>
      <point x="233,156" y="582,828" type="curve" smooth="yes"/>
      <point x="233,156" y="582,578"/>
      <point x="232,859" y="580,859"/>
      <point x="232,781" y="580,547" type="curve" smooth="yes"/>
      <point x="226,25" y="556,672"/>
      <point x="71,4062" y="1,92188"/>
      <point x="68,875" y="-8,07812" type="curve" smooth="yes"/>
      <point x="68,8438" y="-8,23438"/>
      <point x="69" y="-7"/>
      <point x="69" y="-7" type="curve"/>
      <point x="66,4219" y="-9,34375"/>
      <point x="68,6406" y="-11,4375"/>
      <point x="64,0312" y="-12,2969" type="curve" smooth="yes"/>
      <point x="59,3438" y="-13,1719"/>
      <point x="44,625" y="-13"/>
      <point x="33" y="-13" type="curve" smooth="yes"/>
      <point x="11,4531" y="-13"/>
      <point x="7,26562" y="-12,9062"/>
      <point x="3,29688" y="-11,9062" type="curve" smooth="yes"/>
      <point x="0,265625" y="-11,1562"/>
      <point x="-3,09375" y="-9,14062"/>
      <point x="-3" y="-5" type="curve" smooth="yes"/>
      <point x="-2,98438" y="-4,07812"/>
      <point x="-3,01562" y="-4,42188"/>
      <point x="-2,8125" y="-3,60938" type="curve" smooth="yes"/>
      <point x="0,421875" y="9,96875"/>
      <point x="155,172" y="562,172"/>
    </contour>
    <contour>
      <point x="69" y="-107" type="line"/>
      <point x="59" y="-107" type="line"/>
      <point x="59" y="-7" type="line"/>
      <point x="69" y="-7" type="line"/>
    </contour>
    <contour>
      <point x="38" y="-108" type="line"/>
      <point x="28" y="-108" type="line"/>
      <point x="28" y="-8" type="line"/>
      <point x="38" y="-8" type="line"/>
    </contour>
    <contour>
      <point x="7" y="-105" type="line" smooth="yes"/>
      <point x="7" y="-105"/>
      <point x="4,8125" y="-101,938"/>
      <point x="5,75" y="-102,172" type="curve" smooth="yes"/>
      <point x="7,96875" y="-102,734"/>
      <point x="14,2031" y="-103"/>
      <point x="33" y="-103" type="curve" smooth="yes"/>
      <point x="48,7188" y="-103"/>
      <point x="58,8281" y="-103,047"/>
      <point x="62,1875" y="-102,422" type="curve" smooth="yes"/>
      <point x="62,4219" y="-102,375"/>
      <point x="59" y="-107"/>
      <point x="59" y="-107" type="curve" smooth="yes"/>
      <point x="59,1094" y="-106,422"/>
      <point x="58,9844" y="-106,453"/>
      <point x="59,1875" y="-105,641" type="curve" smooth="yes"/>
      <point x="61,8125" y="-95,2031"/>
      <point x="214,688" y="452,391"/>
      <point x="223" y="482,672" type="curve"/>
      <point x="223" y="582" type="line"/>
      <point x="233" y="582" type="line"/>
      <point x="233" y="482" type="line" smooth="yes"/>
      <point x="233" y="481,328" type="line"/>
      <point x="232,828" y="480,688" type="line" smooth="yes"/>
      <point x="226,875" y="458,891"/>
      <point x="71,375" y="-98,1719"/>
      <point x="68,875" y="-108,078" type="curve" smooth="yes"/>
      <point x="68,8438" y="-108,25"/>
      <point x="69" y="-107"/>
      <point x="69" y="-107" type="curve" smooth="yes"/>
      <point x="69" y="-108,062"/>
      <point x="68,6406" y="-111,438"/>
      <point x="64,0312" y="-112,297" type="curve" smooth="yes"/>
      <point x="61,0469" y="-112,844"/>
      <point x="52,0156" y="-113"/>
      <point x="33" y="-113" type="curve" smooth="yes"/>
      <point x="19,5" y="-113"/>
      <point x="8,5" y="-113,219"/>
      <point x="3,29688" y="-111,906" type="curve" smooth="yes"/>
      <point x="-2,75" y="-110,406"/>
      <point x="-2,98438" y="-106,594"/>
      <point x="-3" y="-105" type="curve" smooth="yes"/>
      <point x="-3,28125" y="-71,6719"/>
      <point x="-3" y="-38,3281"/>
      <point x="-3" y="-5" type="curve"/>
      <point x="7" y="-5" type="line"/>
    </contour>
  </outline>
</glyph>
<glyph name="uni0031" format="1">
  <advance width="428"/>
  <unicode hex="0031"/>
  <outline>
    <contour>
      <point x="168" y="-5" type="line"/>
      <point x="168" y="582" type="line"/>
      <point x="262" y="582" type="line"/>
      <point x="262" y="-5" type="line"/>
    </contour>
    <contour>
      <point x="220" y="-100" type="line"/>
      <point x="210" y="-100" type="line"/>
      <point x="210" y="0" type="line"/>
      <point x="220" y="0" type="line"/>
    </contour>
    <contour>
      <point x="178" y="-95" type="line"/>
      <point x="252" y="-95" type="line"/>
      <point x="252" y="0" type="line"/>
      <point x="262" y="0" type="line"/>
      <point x="262" y="-100" type="line" smooth="yes"/>
      <point x="262" y="-105" type="line"/>
      <point x="215" y="-105" type="line" smooth="yes"/>
      <point x="168" y="-105" type="line"/>
      <point x="168" y="-100" type="line" smooth="yes"/>
      <point x="168" y="0" type="line"/>
      <point x="178" y="0" type="line"/>
    </contour>
  </outline>
</glyph>
<glyph name="uni0032" format="1">
  <advance width="423"/>
  <unicode hex="0032"/>
  <outline>
    <contour>
      <point x="144,953" y="584,891" type="curve" smooth="yes"/>
      <point x="155,953" y="587,156"/>
      <point x="167,203" y="588,516"/>
      <point x="178,672" y="588,516" type="curve" smooth="yes"/>
      <point x="234,578" y="588,516"/>
      <point x="293,672" y="561,062"/>
      <point x="323,125" y="517,812" type="curve" smooth="yes"/>
      <point x="347" y="482,781"/>
      <point x="359,453" y="446,031"/>
      <point x="359,453" y="405,969" type="curve" smooth="yes"/>
      <point x="359,453" y="324,656"/>
      <point x="308,594" y="230,234"/>
      <point x="205,812" y="106,781" type="curve"/>
      <point x="188,875" y="87" type="line"/>
      <point x="399" y="87" type="line"/>
      <point x="399" y="-5" type="line"/>
      <point x="212" y="-5" type="line" smooth="yes"/>
      <point x="122,672" y="-5"/>
      <point x="43,6719" y="-5,21875"/>
      <point x="30,3906" y="-2,3125" type="curve" smooth="yes"/>
      <point x="24,4531" y="-1"/>
      <point x="23,9062" y="2,75"/>
      <point x="24" y="4" type="curve" smooth="yes"/>
      <point x="24,0625" y="4,90625"/>
      <point x="23,9688" y="5,3125"/>
      <point x="24,7188" y="6,9375" type="curve" smooth="yes"/>
      <point x="27,7188" y="13,4844"/>
      <point x="44,7656" y="33,3438"/>
      <point x="47,1875" y="36,2344" type="curve" smooth="yes"/>
      <point x="129,922" y="134,859"/>
      <point x="223,969" y="267,266"/>
      <point x="247,453" y="319,062" type="curve" smooth="yes"/>
      <point x="257,062" y="340,281"/>
      <point x="264" y="371,016"/>
      <point x="264" y="392" type="curve" smooth="yes"/>
      <point x="264" y="457,766"/>
      <point x="222,203" y="494,609"/>
      <point x="171,141" y="494,609" type="curve" smooth="yes"/>
      <point x="134,297" y="494,609"/>
      <point x="92" y="475,891"/>
      <point x="57,9375" y="433,906" type="curve" smooth="yes"/>
      <point x="51,3906" y="425,844"/>
      <point x="45,625" y="419,562"/>
      <point x="45,5312" y="419,469" type="curve" smooth="yes"/>
      <point x="42" y="418" type="line"/>
      <point x="39,4375" y="420,703"/>
      <point x="37,6406" y="418,344"/>
      <point x="36,7656" y="422,906" type="curve" smooth="yes"/>
      <point x="35,625" y="428,734"/>
      <point x="35" y="455,141"/>
      <point x="35" y="476" type="curve" smooth="yes"/>
      <point x="35" y="532,719" type="line"/>
      <point x="54,25" y="545,172" type="line" smooth="yes"/>
      <point x="84,6562" y="565,438"/>
      <point x="114,234" y="578,531"/>
    </contour>
    <contour>
      <point x="207" y="82" type="line"/>
      <point x="197" y="82" type="line"/>
      <point x="197" y="110" type="line"/>
      <point x="207" y="110" type="line"/>
    </contour>
    <contour>
      <point x="217" y="-100" type="line"/>
      <point x="207" y="-100" type="line"/>
      <point x="207" y="0" type="line"/>
      <point x="217" y="0" type="line"/>
    </contour>
    <contour>
      <point x="59" y="337" type="line"/>
      <point x="49" y="337" type="line"/>
      <point x="49" y="437" type="line"/>
      <point x="59" y="437" type="line"/>
    </contour>
    <contour>
      <point x="47" y="336,156" type="line"/>
      <point x="50,0625" y="340,094" type="line"/>
      <point x="86,0312" y="383,75"/>
      <point x="130,828" y="404,609"/>
      <point x="171,141" y="404,609" type="curve" smooth="yes"/>
      <point x="212,391" y="404,609"/>
      <point x="249" y="382,438"/>
      <point x="265,125" y="341,844" type="curve"/>
      <point x="255,828" y="338,156" type="line"/>
      <point x="241,203" y="375"/>
      <point x="208,891" y="394,609"/>
      <point x="171,141" y="394,609" type="curve" smooth="yes"/>
      <point x="134,297" y="394,609"/>
      <point x="92" y="375,891"/>
      <point x="57,9375" y="333,906" type="curve" smooth="yes"/>
      <point x="51,3906" y="325,844"/>
      <point x="45,625" y="319,562"/>
      <point x="45,5312" y="319,469" type="curve" smooth="yes"/>
      <point x="41,2656" y="316,234" type="line"/>
      <point x="37" y="323" type="line"/>
      <point x="37" y="423" type="line"/>
      <point x="47" y="423" type="line"/>
    </contour>
    <contour>
      <point x="34" y="-96" type="line" smooth="yes"/>
      <point x="32,5312" y="-92,5312" type="line" smooth="yes"/>
      <point x="39,5312" y="-94,0781"/>
      <point x="59,2031" y="-95"/>
      <point x="212" y="-95" type="curve" smooth="yes"/>
      <point x="389" y="-95" type="line"/>
      <point x="389" y="0" type="line"/>
      <point x="399" y="0" type="line"/>
      <point x="399" y="-100" type="line" smooth="yes"/>
      <point x="399" y="-105" type="line"/>
      <point x="394" y="-105" type="line" smooth="yes"/>
      <point x="212" y="-105" type="line" smooth="yes"/>
      <point x="94,0156" y="-105"/>
      <point x="40,7344" y="-104,578"/>
      <point x="30,3906" y="-102,312" type="curve" smooth="yes"/>
      <point x="26,7656" y="-101,516"/>
      <point x="24,0312" y="-100,078"/>
      <point x="24" y="-96" type="curve" smooth="yes"/>
      <point x="23,7031" y="-62,6719"/>
      <point x="24" y="-29,3281"/>
      <point x="24" y="4" type="curve"/>
      <point x="34" y="4" type="line"/>
    </contour>
    <contour>
      <point x="349,453" y="305,969" type="curve" smooth="yes"/>
      <point x="349,453" y="405,969" type="line"/>
      <point x="359,453" y="405,969" type="line"/>
      <point x="359,453" y="305,969" type="line" smooth="yes"/>
      <point x="359,453" y="241,234"/>
      <point x="327,5" y="168,625"/>
      <point x="262,406" y="79,0625" type="curve"/>
      <point x="254,312" y="84,9375" type="line"/>
      <point x="318,859" y="173,75"/>
      <point x="349,453" y="244,672"/>
    </contour>
  </outline>
</glyph>
<glyph name="uni0033" format="1">
  <advance width="422"/>
  <unicode hex="0033"/>
  <outline>
    <contour>
      <point x="150,469" y="587,969" type="curve" smooth="yes"/>
      <point x="159,062" y="588,828"/>
      <point x="167,672" y="589,5"/>
      <point x="176,406" y="589,5" type="curve" smooth="yes"/>
      <point x="228,188" y="589,5"/>
      <point x="280,688" y="572,047"/>
      <point x="310,516" y="542,562" type="curve" smooth="yes"/>
      <point x="339,469" y="513,938"/>
      <point x="355,078" y="468,234"/>
      <point x="355,078" y="424,25" type="curve" smooth="yes"/>
      <point x="355,078" y="400,234"/>
      <point x="350,438" y="376,688"/>
      <point x="340,469" y="356,766" type="curve" smooth="yes"/>
      <point x="334,688" y="345,188"/>
      <point x="310,203" y="318,344"/>
      <point x="293,656" y="307,766" type="curve" smooth="yes"/>
      <point x="292,266" y="306,875"/>
      <point x="290,156" y="305,609"/>
      <point x="288,531" y="304,516" type="curve"/>
      <point x="291,828" y="302,547"/>
      <point x="297,312" y="299,953"/>
      <point x="298,266" y="299,453" type="curve" smooth="yes"/>
      <point x="342,344" y="276,672"/>
      <point x="363,359" y="225,516"/>
      <point x="363,359" y="172,5" type="curve" smooth="yes"/>
      <point x="363,359" y="114,031"/>
      <point x="337,828" y="53,8906"/>
      <point x="289,781" y="21,8438" type="curve" smooth="yes"/>
      <point x="257,141" y="0,078125"/>
      <point x="215,312" y="-11,125"/>
      <point x="172,344" y="-11,125" type="curve" smooth="yes"/>
      <point x="134,672" y="-11,125"/>
      <point x="96,1562" y="-2,64062"/>
      <point x="62,6562" y="14,5781" type="curve" smooth="yes"/>
      <point x="49" y="22,0312" type="line"/>
      <point x="49" y="125,094" type="line"/>
      <point x="78,25" y="110,469" type="line" smooth="yes"/>
      <point x="115,625" y="91,7812"/>
      <point x="150,875" y="82,3125"/>
      <point x="180,266" y="82,3125" type="curve" smooth="yes"/>
      <point x="212,312" y="82,3125"/>
      <point x="236,891" y="93,0938"/>
      <point x="250,859" y="113,797" type="curve" smooth="yes"/>
      <point x="261,031" y="128,891"/>
      <point x="265,984" y="146,594"/>
      <point x="265,984" y="164,125" type="curve" smooth="yes"/>
      <point x="265,984" y="190,516"/>
      <point x="255" y="216,453"/>
      <point x="234,031" y="231,969" type="curve" smooth="yes"/>
      <point x="220,594" y="241,922"/>
      <point x="217,469" y="243,016"/>
      <point x="179,188" y="249,062" type="curve" smooth="yes"/>
      <point x="146" y="254,781" type="line"/>
      <point x="146" y="340,5" type="line"/>
      <point x="169,562" y="342,984" type="line"/>
      <point x="222,734" y="346,781"/>
      <point x="250,484" y="365,234"/>
      <point x="259,109" y="406,062" type="curve" smooth="yes"/>
      <point x="260,266" y="411,531"/>
      <point x="260,969" y="417,016"/>
      <point x="260,969" y="422,422" type="curve" smooth="yes"/>
      <point x="260,969" y="449,578"/>
      <point x="245,953" y="475,453"/>
      <point x="221,625" y="488,594" type="curve" smooth="yes"/>
      <point x="206,188" y="496,938"/>
      <point x="188,688" y="500,891"/>
      <point x="169,094" y="500,891" type="curve" smooth="yes"/>
      <point x="145,406" y="500,891"/>
      <point x="118,625" y="494,875"/>
      <point x="88,9844" y="482,406" type="curve" smooth="yes"/>
      <point x="85,3438" y="480,875"/>
      <point x="74,4531" y="476,141"/>
      <point x="70,6562" y="475,219" type="curve" smooth="yes"/>
      <point x="70" y="475,062"/>
      <point x="69,3438" y="474,641"/>
      <point x="69" y="475" type="curve" smooth="yes"/>
      <point x="65,5781" y="478,656"/>
      <point x="64,5938" y="475,359"/>
      <point x="63,6562" y="480,125" type="curve" smooth="yes"/>
      <point x="62,8281" y="484,297"/>
      <point x="62,5938" y="495,141"/>
      <point x="62,5938" y="501,609" type="curve" smooth="yes"/>
      <point x="62,5938" y="507,109"/>
      <point x="62,7031" y="513,297"/>
      <point x="63" y="520,109" type="curve" smooth="yes"/>
      <point x="63" y="563,391" type="line"/>
      <point x="81,0625" y="570,609" type="line" smooth="yes"/>
      <point x="99,7812" y="578,938"/>
      <point x="127,828" y="585,734"/>
    </contour>
    <contour>
      <point x="341" y="259" type="line"/>
      <point x="331" y="259" type="line"/>
      <point x="331" y="359" type="line"/>
      <point x="341" y="359" type="line"/>
    </contour>
    <contour>
      <point x="296" y="297,516" type="line"/>
      <point x="286" y="297,516" type="line"/>
      <point x="286" y="312" type="line"/>
      <point x="296" y="312" type="line"/>
    </contour>
    <contour>
      <point x="292" y="-74" type="line"/>
      <point x="282" y="-74" type="line"/>
      <point x="282" y="26" type="line"/>
      <point x="292" y="26" type="line"/>
    </contour>
    <contour>
      <point x="70" y="-81" type="line"/>
      <point x="60" y="-81" type="line"/>
      <point x="60" y="19" type="line"/>
      <point x="70" y="19" type="line"/>
    </contour>
    <contour>
      <point x="242" y="136" type="line"/>
      <point x="232" y="136" type="line"/>
      <point x="232" y="236" type="line"/>
      <point x="242" y="236" type="line"/>
    </contour>
    <contour>
      <point x="185" y="154" type="line"/>
      <point x="175" y="154" type="line"/>
      <point x="175" y="254" type="line"/>
      <point x="185" y="254" type="line"/>
    </contour>
    <contour>
      <point x="229" y="393" type="line"/>
      <point x="219" y="393" type="line"/>
      <point x="219" y="493" type="line"/>
      <point x="229" y="493" type="line"/>
    </contour>
    <contour>
      <point x="92" y="387" type="line"/>
      <point x="82" y="387" type="line"/>
      <point x="82" y="487" type="line"/>
      <point x="92" y="487" type="line"/>
    </contour>
    <contour>
      <point x="74" y="386,969" type="line"/>
      <point x="76,7969" y="388,062"/>
      <point x="80,5156" y="389,688"/>
      <point x="85,0156" y="391,594" type="curve" smooth="yes"/>
      <point x="115,547" y="404,453"/>
      <point x="143,672" y="410,891"/>
      <point x="169,094" y="410,891" type="curve" smooth="yes"/>
      <point x="190,078" y="410,891"/>
      <point x="209,375" y="406,516"/>
      <point x="226,375" y="397,406" type="curve" smooth="yes"/>
      <point x="237,125" y="391,641"/>
      <point x="246,234" y="383,516"/>
      <point x="253,375" y="374,141" type="curve"/>
      <point x="245,422" y="368,078" type="line"/>
      <point x="239,094" y="376,375"/>
      <point x="231,125" y="383,516"/>
      <point x="221,625" y="388,594" type="curve" smooth="yes"/>
      <point x="206,156" y="396,875"/>
      <point x="188,688" y="400,891"/>
      <point x="169,094" y="400,891" type="curve" smooth="yes"/>
      <point x="145,406" y="400,891"/>
      <point x="118,609" y="394,938"/>
      <point x="88,9844" y="382,406" type="curve" smooth="yes"/>
      <point x="82,3125" y="379,594"/>
      <point x="73,6719" y="375,953"/>
      <point x="70,6562" y="375,219" type="curve"/>
      <point x="70,8281" y="375,266"/>
      <point x="69,4844" y="375,078"/>
      <point x="69" y="375" type="curve" smooth="yes"/>
      <point x="64" y="375" type="line"/>
      <point x="64" y="380" type="line" smooth="yes"/>
      <point x="64" y="480" type="line"/>
      <point x="74" y="480" type="line"/>
    </contour>
    <contour>
      <point x="156" y="163,219" type="line"/>
      <point x="180,812" y="158,938" type="line" smooth="yes"/>
      <point x="218,531" y="152,984"/>
      <point x="225,688" y="150,453"/>
      <point x="239,969" y="140,031" type="curve" smooth="yes"/>
      <point x="248,625" y="133,703"/>
      <point x="255,672" y="125,578"/>
      <point x="261,219" y="116,719" type="curve"/>
      <point x="252,734" y="111,406" type="line"/>
      <point x="247,797" y="119,297"/>
      <point x="241,688" y="126,391"/>
      <point x="234,031" y="131,969" type="curve" smooth="yes"/>
      <point x="220,531" y="141,828"/>
      <point x="217,453" y="142,906"/>
      <point x="179,188" y="149,062" type="curve" smooth="yes"/>
      <point x="169,5" y="150,625"/>
      <point x="159,812" y="152,406"/>
      <point x="150,156" y="154,078" type="curve" smooth="yes"/>
      <point x="146" y="154,781" type="line"/>
      <point x="146" y="159" type="line" smooth="yes"/>
      <point x="146" y="259" type="line"/>
      <point x="156" y="259" type="line"/>
    </contour>
    <contour>
      <point x="59" y="-72,0312" type="line"/>
      <point x="67,3438" y="-76,5781" type="line" smooth="yes"/>
      <point x="99,25" y="-92,9844"/>
      <point x="136,156" y="-101,125"/>
      <point x="172,344" y="-101,125" type="curve" smooth="yes"/>
      <point x="213,625" y="-101,125"/>
      <point x="253,656" y="-90,2188"/>
      <point x="284,219" y="-69,8438" type="curve" smooth="yes"/>
      <point x="329,5" y="-39,6562"/>
      <point x="353,359" y="17,2656"/>
      <point x="353,359" y="72,5" type="curve" smooth="yes"/>
      <point x="353,359" y="172,5" type="line"/>
      <point x="363,359" y="172,5" type="line"/>
      <point x="363,359" y="72,5" type="line" smooth="yes"/>
      <point x="363,359" y="14,0312"/>
      <point x="337,828" y="-46,1094"/>
      <point x="289,781" y="-78,1562" type="curve" smooth="yes"/>
      <point x="257,141" y="-99,9219"/>
      <point x="215,312" y="-111,125"/>
      <point x="172,344" y="-111,125" type="curve" smooth="yes"/>
      <point x="134,672" y="-111,125"/>
      <point x="96,1094" y="-102,719"/>
      <point x="62,6562" y="-85,4219" type="curve" smooth="yes"/>
      <point x="58,9531" y="-83,5"/>
      <point x="55,2656" y="-81,3906"/>
      <point x="51,6094" y="-79,3906" type="curve" smooth="yes"/>
      <point x="49" y="-77,9688" type="line"/>
      <point x="49" y="-75" type="line" smooth="yes"/>
      <point x="49" y="25" type="line"/>
      <point x="59" y="25" type="line"/>
    </contour>
    <contour>
      <point x="331,547" y="261,281" type="line" smooth="yes"/>
      <point x="340,656" y="279,484"/>
      <point x="345,078" y="301,516"/>
      <point x="345,078" y="324,25" type="curve" smooth="yes"/>
      <point x="345,078" y="424,25" type="line"/>
      <point x="355,078" y="424,25" type="line"/>
      <point x="355,078" y="324,25" type="line" smooth="yes"/>
      <point x="355,078" y="300,234"/>
      <point x="350,422" y="276,656"/>
      <point x="340,453" y="256,719" type="curve" smooth="yes"/>
      <point x="340" y="255,844" type="line"/>
      <point x="331,125" y="260,469" type="line"/>
    </contour>
  </outline>
</glyph>
<glyph name="uni0034" format="1">
  <advance width="423"/>
  <unicode hex="0034"/>
  <outline>
    <contour>
      <point x="276,156" y="565,203" type="line"/>
      <point x="295,703" y="588" type="line"/>
      <point x="340" y="588" type="line"/>
      <point x="340" y="267" type="line"/>
      <point x="404" y="267" type="line"/>
      <point x="404" y="185" type="line"/>
      <point x="340" y="185" type="line"/>
      <point x="340" y="-5" type="line"/>
      <point x="247" y="-5" type="line"/>
      <point x="247" y="185" type="line"/>
      <point x="5" y="185" type="line"/>
      <point x="5" y="229,766" type="line"/>
    </contour>
    <contour>
      <point x="187,078" y="268" type="line" smooth="yes"/>
      <point x="204,531" y="267,5"/>
      <point x="220,312" y="267,25"/>
      <point x="231,75" y="267,25" type="curve" smooth="yes"/>
      <point x="236,594" y="267,25"/>
      <point x="242,328" y="267,297"/>
      <point x="246" y="267,453" type="curve"/>
      <point x="246" y="342,969" type="line"/>
      <point x="245,188" y="407,797" type="line"/>
      <point x="190,922" y="338,891" type="line"/>
      <point x="134,375" y="268" type="line"/>
    </contour>
    <contour>
      <point x="192" y="263" type="line"/>
      <point x="182" y="263" type="line"/>
      <point x="182" y="342" type="line"/>
      <point x="192" y="342" type="line"/>
    </contour>
    <contour>
      <point x="298" y="-100" type="line"/>
      <point x="288" y="-100" type="line"/>
      <point x="288" y="0" type="line"/>
      <point x="298" y="0" type="line"/>
    </contour>
    <contour>
      <point x="136" y="90" type="line"/>
      <point x="126" y="90" type="line"/>
      <point x="126" y="190" type="line"/>
      <point x="136" y="190" type="line"/>
    </contour>
    <contour>
      <point x="15" y="95" type="line"/>
      <point x="252" y="95" type="line"/>
      <point x="252" y="85" type="line"/>
      <point x="131" y="85" type="line" smooth="yes"/>
      <point x="10" y="85" type="line" smooth="yes"/>
      <point x="5" y="85" type="line"/>
      <point x="5" y="90" type="line" smooth="yes"/>
      <point x="5" y="190" type="line"/>
      <point x="15" y="190" type="line"/>
    </contour>
    <contour>
      <point x="257" y="-95" type="line"/>
      <point x="330" y="-95" type="line"/>
      <point x="330" y="0" type="line"/>
      <point x="340" y="0" type="line"/>
      <point x="340" y="-100" type="line" smooth="yes"/>
      <point x="340" y="-105" type="line"/>
      <point x="293" y="-105" type="line" smooth="yes"/>
      <point x="252" y="-105" type="line" smooth="yes"/>
      <point x="247" y="-105" type="line"/>
      <point x="247" y="-100" type="line" smooth="yes"/>
      <point x="247" y="0" type="line"/>
      <point x="257" y="0" type="line"/>
    </contour>
    <contour>
      <point x="340" y="90" type="line"/>
      <point x="330" y="90" type="line"/>
      <point x="330" y="190" type="line"/>
      <point x="340" y="190" type="line"/>
    </contour>
    <contour>
      <point x="372" y="95" type="line"/>
      <point x="394" y="95" type="line"/>
      <point x="394" y="190" type="line"/>
      <point x="404" y="190" type="line"/>
      <point x="404" y="90" type="line" smooth="yes"/>
      <point x="404" y="85" type="line"/>
      <point x="399" y="85" type="line" smooth="yes"/>
      <point x="367" y="85" type="line" smooth="yes"/>
      <point x="362" y="85" type="line"/>
      <point x="362" y="90" type="line" smooth="yes"/>
      <point x="362" y="190" type="line"/>
      <point x="372" y="190" type="line"/>
    </contour>
    <contour>
      <point x="245" y="323,734" type="line"/>
      <point x="245" y="422" type="line"/>
      <point x="255" y="422" type="line"/>
      <point x="255" y="322" type="line" smooth="yes"/>
      <point x="255" y="320,266" type="line"/>
      <point x="207,141" y="259,5" type="line"/>
      <point x="199,297" y="265,688" type="line"/>
    </contour>
  </outline>
</glyph>
<glyph name="uni0037" format="1">
  <advance width="423"/>
  <unicode hex="0037"/>
  <outline>
    <contour>
      <point x="36" y="490" type="line"/>
      <point x="36" y="582" type="line"/>
      <point x="228" y="582" type="line" smooth="yes"/>
      <point x="312,359" y="581,984"/>
      <point x="403,719" y="581,406"/>
      <point x="414,875" y="580,125" type="curve" smooth="yes"/>
      <point x="419,391" y="579,609"/>
      <point x="420,078" y="576,594"/>
      <point x="420" y="575" type="curve" smooth="yes"/>
      <point x="419,953" y="573,875"/>
      <point x="420,016" y="574,094"/>
      <point x="419,594" y="572,891" type="curve" smooth="yes"/>
      <point x="413,125" y="553,906"/>
      <point x="169,344" y="12,2031"/>
      <point x="157,672" y="-8" type="curve" smooth="yes"/>
      <point x="156,891" y="-9,35938"/>
      <point x="155,844" y="-10,3281"/>
      <point x="154,391" y="-10,7969" type="curve" smooth="yes"/>
      <point x="154,125" y="-10,8906"/>
      <point x="153,047" y="-11,0469"/>
      <point x="152,75" y="-11,0312" type="curve" smooth="yes"/>
      <point x="143,266" y="-10,1875"/>
      <point x="86,1719" y="15,0625"/>
      <point x="78,0156" y="20,9531" type="curve" smooth="yes"/>
      <point x="75,8594" y="22,5156"/>
      <point x="74,8438" y="23,9844"/>
      <point x="75" y="26" type="curve" smooth="yes"/>
      <point x="75,0938" y="27,2656"/>
      <point x="74,9688" y="26,9062"/>
      <point x="75,4219" y="28,0781" type="curve" smooth="yes"/>
      <point x="78,0469" y="34,875"/>
      <point x="124,719" y="138,219"/>
      <point x="180,438" y="263,031" type="curve" smooth="yes"/>
      <point x="281,312" y="489,062" type="line"/>
      <point x="164,984" y="490" type="line"/>
    </contour>
    <contour>
      <point x="158" y="-106" type="line"/>
      <point x="148" y="-106" type="line"/>
      <point x="148" y="-6" type="line"/>
      <point x="158" y="-6" type="line"/>
    </contour>
    <contour>
      <point x="170" y="395" type="line"/>
      <point x="160" y="395" type="line"/>
      <point x="160" y="495" type="line"/>
      <point x="170" y="495" type="line"/>
    </contour>
    <contour>
      <point x="46" y="400" type="line"/>
      <point x="165,016" y="400" type="line" smooth="yes"/>
      <point x="191,531" y="399,781"/>
      <point x="218,062" y="399,578"/>
      <point x="244,562" y="399,359" type="curve"/>
      <point x="244,484" y="389,359" type="line"/>
      <point x="217,969" y="389,578"/>
      <point x="191,484" y="389,922"/>
      <point x="164,984" y="390" type="curve" smooth="yes"/>
      <point x="123,641" y="390,125"/>
      <point x="82,3281" y="390"/>
      <point x="41" y="390" type="curve" smooth="yes"/>
      <point x="36" y="390" type="line"/>
      <point x="36" y="395" type="line" smooth="yes"/>
      <point x="36" y="495" type="line"/>
      <point x="46" y="495" type="line"/>
    </contour>
    <contour>
      <point x="85" y="-74" type="line" smooth="yes"/>
      <point x="85" y="-74"/>
      <point x="82,9219" y="-70,25"/>
      <point x="83,8906" y="-70,9531" type="curve" smooth="yes"/>
      <point x="90,0156" y="-75,3906"/>
      <point x="146,047" y="-100,406"/>
      <point x="152,969" y="-101,031" type="curve" smooth="yes"/>
      <point x="153,062" y="-101,047"/>
      <point x="146,766" y="-101,031"/>
      <point x="152,75" y="-101,031" type="curve" smooth="yes"/>
      <point x="152,766" y="-101,031"/>
      <point x="149,609" y="-101,703"/>
      <point x="151,609" y="-101,203" type="curve" smooth="yes"/>
      <point x="151,609" y="-101,203"/>
      <point x="148,688" y="-103,562"/>
      <point x="149,016" y="-103" type="curve" smooth="yes"/>
      <point x="159,109" y="-85,5312"/>
      <point x="403,375" y="456,281"/>
      <point x="410,125" y="476,109" type="curve" smooth="yes"/>
      <point x="410,266" y="476,516"/>
      <point x="410" y="475"/>
      <point x="410" y="475" type="curve" smooth="yes"/>
      <point x="410" y="575" type="line"/>
      <point x="420" y="575" type="line"/>
      <point x="420" y="475" type="line" smooth="yes"/>
      <point x="420" y="474"/>
      <point x="419,703" y="473,219"/>
      <point x="419,594" y="472,891" type="curve" smooth="yes"/>
      <point x="413,125" y="453,906"/>
      <point x="169,344" y="-87,7969"/>
      <point x="157,672" y="-108" type="curve" smooth="yes"/>
      <point x="156,344" y="-110,312"/>
      <point x="155,188" y="-110,328"/>
      <point x="154,391" y="-110,797" type="curve" smooth="yes"/>
      <point x="154,141" y="-110,938"/>
      <point x="153,047" y="-111,031"/>
      <point x="152,75" y="-111,031" type="curve"/>
      <point x="153,156" y="-111,031"/>
      <point x="152,109" y="-111"/>
      <point x="152,062" y="-111" type="curve" smooth="yes"/>
      <point x="144,641" y="-110,312"/>
      <point x="87,6719" y="-86,0312"/>
      <point x="78,0156" y="-79,0469" type="curve" smooth="yes"/>
      <point x="74,5156" y="-76,5156"/>
      <point x="75" y="-74,625"/>
      <point x="75" y="-74" type="curve" smooth="yes"/>
      <point x="74,75" y="-40,6719"/>
      <point x="75" y="-7,32812"/>
      <point x="75" y="26" type="curve"/>
      <point x="85" y="26" type="line"/>
    </contour>
  </outline>
</glyph>
<glyph name="uni0038" format="1">
  <advance width="421"/>
  <unicode hex="0038"/>
  <outline>
    <contour>
      <point x="330" y="290,702" type="line"/>
      <point x="330" y="297,927" type="line"/>
      <point x="325,75" y="293,672" type="line"/>
    </contour>
    <contour>
      <point x="364,119" y="257,562" type="curve"/>
      <point x="375,227" y="279,197"/>
      <point x="380,781" y="302,233"/>
      <point x="380,781" y="325,141" type="curve" smooth="yes"/>
      <point x="380,781" y="370,886" type="line"/>
      <point x="372,36" y="348,451"/>
      <point x="358,684" y="327,047"/>
      <point x="340" y="307,955" type="curve"/>
      <point x="340" y="282,806" type="line"/>
      <point x="349,059" y="275,066"/>
      <point x="357,106" y="266,595"/>
    </contour>
    <contour>
      <point x="51,0658" y="249,704" type="curve"/>
      <point x="46,4322" y="258,266"/>
      <point x="43,0294" y="267,229"/>
      <point x="40,1719" y="277,688" type="curve" smooth="yes"/>
      <point x="36,1562" y="292,422"/>
      <point x="34,3281" y="307,156"/>
      <point x="34,3281" y="321,469" type="curve" smooth="yes"/>
      <point x="34,3281" y="421,469" type="line" smooth="yes"/>
      <point x="34,3281" y="497,031"/>
      <point x="87,375" y="562,438"/>
      <point x="170,766" y="583,844" type="curve" smooth="yes"/>
      <point x="183,562" y="587,125"/>
      <point x="197,062" y="588,578"/>
      <point x="210,719" y="588,578" type="curve" smooth="yes"/>
      <point x="258,812" y="588,578"/>
      <point x="309,625" y="570,031"/>
      <point x="342,516" y="537,562" type="curve" smooth="yes"/>
      <point x="374,844" y="505,625"/>
      <point x="390,781" y="465,406"/>
      <point x="390,781" y="425,141" type="curve" smooth="yes"/>
      <point x="390,781" y="325,141" type="line" smooth="yes"/>
      <point x="390,781" y="299,017"/>
      <point x="384,02" y="272,806"/>
      <point x="370,651" y="248,549" type="curve"/>
      <point x="386" y="214"/>
      <point x="399,062" y="188,531"/>
      <point x="399,062" y="156,219" type="curve" smooth="yes"/>
      <point x="399,062" y="56,2188" type="line" smooth="yes"/>
      <point x="399,062" y="15,1562"/>
      <point x="383,715" y="-26,3707"/>
      <point x="351,531" y="-58,5312" type="curve" smooth="yes"/>
      <point x="316,23" y="-93,8078"/>
      <point x="263,969" y="-110,875"/>
      <point x="212,062" y="-110,875" type="curve" smooth="yes"/>
      <point x="159,781" y="-110,875"/>
      <point x="107,408" y="-93,2173"/>
      <point x="71,4844" y="-57,5469" type="curve" smooth="yes"/>
      <point x="38,5795" y="-24,8736"/>
      <point x="22,2344" y="16,9531"/>
      <point x="22,2344" y="58,4844" type="curve" smooth="yes"/>
      <point x="22,2344" y="158,484" type="line" smooth="yes"/>
      <point x="22,2344" y="190,622"/>
      <point x="31,9775" y="222,552"/>
    </contour>
    <contour>
      <point x="90" y="302,059" type="line"/>
      <point x="90" y="288,695" type="line"/>
      <point x="97,4531" y="293,859" type="line"/>
    </contour>
    <contour>
      <point x="287,369" y="110,507" type="curve"/>
      <point x="275,202" y="126,002"/>
      <point x="257,18" y="137,769"/>
      <point x="234,844" y="143,141" type="curve" smooth="yes"/>
      <point x="225,625" y="145,344"/>
      <point x="216,688" y="146,344"/>
      <point x="208,094" y="146,344" type="curve" smooth="yes"/>
      <point x="176,725" y="146,344"/>
      <point x="150,198" y="132,721"/>
      <point x="133,985" y="112,109" type="curve"/>
      <point x="150,97" y="90,0465"/>
      <point x="180,034" y="79,0938"/>
      <point x="209,922" y="79,0938" type="curve" smooth="yes"/>
      <point x="239,895" y="79,0938"/>
      <point x="269,575" y="90,0831"/>
    </contour>
    <contour>
      <point x="50" y="279,685" type="line"/>
      <point x="52,2011" y="271,709"/>
      <point x="54,6631" y="264,934"/>
      <point x="57,7584" y="258,551" type="curve"/>
      <point x="64,2896" y="266,589"/>
      <point x="71,7074" y="274,123"/>
      <point x="80" y="281,019" type="curve"/>
      <point x="80" y="312,929" type="line"/>
      <point x="66,6496" y="326,401"/>
      <point x="57,1505" y="337,735"/>
      <point x="50" y="351,723" type="curve"/>
    </contour>
    <contour>
      <point x="353" y="-42,2301" type="line"/>
      <point x="377,468" y="-13,4855"/>
      <point x="389,062" y="21,4871"/>
      <point x="389,062" y="56,2188" type="curve" smooth="yes"/>
      <point x="389,062" y="99,9088" type="line"/>
      <point x="381,483" y="79,3449"/>
      <point x="369,533" y="59,894"/>
      <point x="353" y="42,9549" type="curve"/>
    </contour>
    <contour>
      <point x="70" y="-41,3337" type="curve"/>
      <point x="70" y="43,9446" type="line"/>
      <point x="52,7064" y="61,5293"/>
      <point x="40,1288" y="81,6804"/>
      <point x="32,2344" y="102,962" type="curve"/>
      <point x="32,2344" y="58,4844" type="line" smooth="yes"/>
      <point x="32,2344" y="23,295"/>
      <point x="44,7153" y="-12,1113"/>
    </contour>
    <contour>
      <point x="80" y="-51,9057" type="line"/>
      <point x="113,553" y="-84,2778"/>
      <point x="162,702" y="-100,875"/>
      <point x="212,062" y="-100,875" type="curve" smooth="yes"/>
      <point x="261,048" y="-100,875"/>
      <point x="310,034" y="-84,8882"/>
      <point x="343" y="-52,9145" type="curve"/>
      <point x="343" y="33,5721" type="line"/>
      <point x="308,107" y="3,64202"/>
      <point x="259,934" y="-10,875"/>
      <point x="212,062" y="-10,875" type="curve" smooth="yes"/>
      <point x="163,776" y="-10,875"/>
      <point x="115,411" y="4,18732"/>
      <point x="80" y="34,5916" type="curve"/>
    </contour>
    <contour>
      <point x="147,407" y="370,099" type="curve"/>
      <point x="163,687" y="350,581"/>
      <point x="188,376" y="339,781"/>
      <point x="213,703" y="339,781" type="curve" smooth="yes"/>
      <point x="229,656" y="339,781"/>
      <point x="245,828" y="344,062"/>
      <point x="260,328" y="353,219" type="curve" smooth="yes"/>
      <point x="267,487" y="357,747"/>
      <point x="273,531" y="363,056"/>
      <point x="278,502" y="368,922" type="curve"/>
      <point x="269,264" y="380,255"/>
      <point x="256,589" y="389,293"/>
      <point x="240,531" y="394,219" type="curve" smooth="yes"/>
      <point x="230,717" y="397,229"/>
      <point x="221,094" y="398,562"/>
      <point x="211,891" y="398,562" type="curve" smooth="yes"/>
      <point x="185,595" y="398,562"/>
      <point x="162,519" y="387,392"/>
    </contour>
    <contour>
      <point x="231" y="154,18" type="curve"/>
      <point x="231" y="243,993" type="line"/>
      <point x="223,137" y="245,603"/>
      <point x="215,488" y="246,344"/>
      <point x="208,094" y="246,344" type="curve" smooth="yes"/>
      <point x="155,797" y="246,344"/>
      <point x="116,953" y="208,625"/>
      <point x="116,953" y="163,297" type="curve" smooth="yes"/>
      <point x="116,953" y="150,766"/>
      <point x="119,969" y="137,562"/>
      <point x="126,484" y="124,203" type="curve" smooth="yes"/>
      <point x="127,038" y="123,069"/>
      <point x="127,618" y="121,957"/>
      <point x="128,225" y="120,866" type="curve"/>
      <point x="146,519" y="142,498"/>
      <point x="175,104" y="156,344"/>
      <point x="208,094" y="156,344" type="curve" smooth="yes"/>
      <point x="215,525" y="156,344"/>
      <point x="223,191" y="155,655"/>
    </contour>
    <contour>
      <point x="237" y="405,553" type="curve"/>
      <point x="237" y="495,234" type="line"/>
      <point x="228,41" y="497,535"/>
      <point x="219,987" y="498,562"/>
      <point x="211,891" y="498,562" type="curve" smooth="yes"/>
      <point x="165,156" y="498,562"/>
      <point x="128,734" y="463,375"/>
      <point x="128,734" y="421,125" type="curve" smooth="yes"/>
      <point x="128,734" y="410,188"/>
      <point x="131,031" y="398,703"/>
      <point x="136,516" y="387,125" type="curve" smooth="yes"/>
      <point x="137,97" y="384,063"/>
      <point x="139,595" y="381,135"/>
      <point x="141,374" y="378,345" type="curve"/>
      <point x="158,401" y="396,852"/>
      <point x="183,581" y="408,562"/>
      <point x="211,891" y="408,562" type="curve" smooth="yes"/>
      <point x="220,042" y="408,562"/>
      <point x="228,462" y="407,614"/>
    </contour>
    <contour>
      <point x="247" y="402,622" type="line"/>
      <point x="262,395" y="397,228"/>
      <point x="275,031" y="388,258"/>
      <point x="284,598" y="377,21" type="curve"/>
      <point x="292,537" y="389,735"/>
      <point x="296,344" y="404,047"/>
      <point x="296,344" y="418,406" type="curve" smooth="yes"/>
      <point x="296,344" y="448,874"/>
      <point x="279,129" y="479,122"/>
      <point x="247" y="491,94" type="curve"/>
    </contour>
    <contour>
      <point x="301,203" y="135,406" type="curve" smooth="yes"/>
      <point x="303,718" y="143,813"/>
      <point x="304,781" y="152,094"/>
      <point x="304,781" y="160,141" type="curve" smooth="yes"/>
      <point x="304,781" y="197,327"/>
      <point x="280,266" y="229,552"/>
      <point x="241" y="241,469" type="curve"/>
      <point x="241" y="151,867" type="line"/>
      <point x="262,694" y="145,877"/>
      <point x="280,749" y="134,166"/>
      <point x="293,561" y="118,76" type="curve"/>
      <point x="296,819" y="123,854"/>
      <point x="299,409" y="129,408"/>
    </contour>
  </outline>
</glyph>
<glyph name="uni003B" format="1">
  <advance width="192"/>
  <unicode hex="003B"/>
  <outline>
    <contour>
      <point x="100,922" y="280,984" type="curve" smooth="yes"/>
      <point x="67,4688" y="280,984"/>
      <point x="45,1562" y="306,875"/>
      <point x="45,1562" y="337" type="curve" smooth="yes"/>
      <point x="45,1562" y="358,188"/>
      <point x="57,1406" y="379,781"/>
      <point x="82,3125" y="388,703" type="curve" smooth="yes"/>
      <point x="88,5938" y="390,938"/>
      <point x="94,875" y="392,047"/>
      <point x="101,047" y="392,047" type="curve" smooth="yes"/>
      <point x="130,531" y="392,047"/>
      <point x="156" y="367,703"/>
      <point x="156" y="336" type="curve" smooth="yes"/>
      <point x="156" y="305,328"/>
      <point x="131,828" y="281"/>
      <point x="102,047" y="281" type="curve"/>
      <point x="102,203" y="281"/>
      <point x="101,094" y="280,984"/>
    </contour>
    <contour>
      <point x="36,9375" y="54,1562" type="curve" smooth="yes"/>
      <point x="36,9375" y="79,5312"/>
      <point x="51,7344" y="105,344"/>
      <point x="80,7188" y="112,828" type="curve" smooth="yes"/>
      <point x="85,2969" y="114,016"/>
      <point x="89,75" y="114,703"/>
      <point x="94,1719" y="114,703" type="curve" smooth="yes"/>
      <point x="129,875" y="114,703"/>
      <point x="155,391" y="76,125"/>
      <point x="155,391" y="30,1719" type="curve" smooth="yes"/>
      <point x="155,391" y="22,0312"/>
      <point x="154,5" y="13,6562"/>
      <point x="152,906" y="5,0625" type="curve" smooth="yes"/>
      <point x="144,734" y="-39,3281"/>
      <point x="118,719" y="-74,3281"/>
      <point x="75,1719" y="-95,5" type="curve" smooth="yes"/>
      <point x="62,1094" y="-101,859"/>
      <point x="58,6875" y="-103,484"/>
      <point x="55,5312" y="-104,438" type="curve" smooth="yes"/>
      <point x="53,8906" y="-104,922"/>
      <point x="52,7812" y="-105,156"/>
      <point x="52,125" y="-105" type="curve" smooth="yes"/>
      <point x="49,4688" y="-104,359"/>
      <point x="45,7969" y="-104,203"/>
      <point x="45,0938" y="-98,1719" type="curve" smooth="yes"/>
      <point x="45,0625" y="-97,9062"/>
      <point x="44,9688" y="-97,1719"/>
      <point x="44,9688" y="-95,2812" type="curve" smooth="yes"/>
      <point x="44,9688" y="-94"/>
      <point x="45" y="-92,7188"/>
      <point x="45" y="-91" type="curve" smooth="yes"/>
      <point x="45" y="-83,6094"/>
      <point x="45,7188" y="-79,5312"/>
      <point x="52,1562" y="-71,7969" type="curve" smooth="yes"/>
      <point x="52,375" y="-71,5312" type="line"/>
      <point x="52,625" y="-71,3125" type="line" smooth="yes"/>
      <point x="67,2656" y="-57,9375"/>
      <point x="78,4688" y="-30,1562"/>
      <point x="78,4219" y="-12,5625" type="curve" smooth="yes"/>
      <point x="78,4219" y="-11,0312"/>
      <point x="78,4219" y="-7,6875"/>
      <point x="77,2656" y="-4,9375" type="curve" smooth="yes"/>
      <point x="76,875" y="-4"/>
      <point x="76,2188" y="-3,04688"/>
      <point x="75,3438" y="-2,71875" type="curve" smooth="yes"/>
      <point x="49,625" y="6,70312"/>
      <point x="36,9375" y="30,7344"/>
    </contour>
    <contour>
      <point x="82" y="-41,9844" type="line"/>
      <point x="72" y="-41,9844" type="line"/>
      <point x="72" y="2" type="line"/>
      <point x="82" y="2" type="line"/>
    </contour>
    <contour>
      <point x="78" y="-191" type="line"/>
      <point x="68" y="-191" type="line"/>
      <point x="68" y="-91" type="line"/>
      <point x="78" y="-91" type="line"/>
    </contour>
    <contour>
      <point x="107" y="186" type="line"/>
      <point x="97" y="186" type="line"/>
      <point x="97" y="286" type="line"/>
      <point x="107" y="286" type="line"/>
    </contour>
    <contour>
      <point x="55,1562" y="237" type="line" smooth="yes"/>
      <point x="55,1562" y="213,766"/>
      <point x="71,4219" y="190,984"/>
      <point x="100,922" y="190,984" type="curve" smooth="yes"/>
      <point x="101,281" y="190,984"/>
      <point x="101,594" y="191"/>
      <point x="101,953" y="191" type="curve" smooth="yes"/>
      <point x="126,172" y="191"/>
      <point x="146" y="210,672"/>
      <point x="146" y="236" type="curve" smooth="yes"/>
      <point x="146" y="336" type="line"/>
      <point x="156" y="336" type="line"/>
      <point x="156" y="236" type="line" smooth="yes"/>
      <point x="156" y="205,328"/>
      <point x="131,828" y="181"/>
      <point x="102,047" y="181" type="curve"/>
      <point x="102,203" y="181"/>
      <point x="101,094" y="180,984"/>
      <point x="100,922" y="180,984" type="curve" smooth="yes"/>
      <point x="67,4688" y="180,984"/>
      <point x="45,1562" y="206,875"/>
      <point x="45,1562" y="237" type="curve" smooth="yes"/>
      <point x="45,1562" y="337" type="line"/>
      <point x="55,1562" y="337" type="line"/>
    </contour>
    <contour>
      <point x="54,9688" y="-195,281" type="line"/>
      <point x="54,9375" y="-194,688"/>
      <point x="54,9531" y="-196,375"/>
      <point x="55,0312" y="-197,016" type="curve" smooth="yes"/>
      <point x="52,125" y="-195" type="line" smooth="yes"/>
      <point x="52,6719" y="-194,953"/>
      <point x="52,0312" y="-195,047"/>
      <point x="52,6719" y="-194,844" type="curve" smooth="yes"/>
      <point x="54,9375" y="-194,172"/>
      <point x="59,0938" y="-192,203"/>
      <point x="70,8281" y="-186,5" type="curve" smooth="yes"/>
      <point x="127,531" y="-158,906"/>
      <point x="139,391" y="-113,125"/>
      <point x="143" y="-93,5469" type="curve"/>
      <point x="143" y="6" type="line"/>
      <point x="153" y="6" type="line"/>
      <point x="153" y="-94" type="line" smooth="yes"/>
      <point x="153" y="-94,4531" type="line"/>
      <point x="152,922" y="-94,8906" type="line" smooth="yes"/>
      <point x="144,844" y="-139,312"/>
      <point x="118,703" y="-174,312"/>
      <point x="75,1719" y="-195,5" type="curve" smooth="yes"/>
      <point x="67,4219" y="-199,281"/>
      <point x="59,625" y="-203,203"/>
      <point x="55,5312" y="-204,438" type="curve" smooth="yes"/>
      <point x="53,5625" y="-205,016"/>
      <point x="52,8125" y="-204,984"/>
      <point x="52,125" y="-205" type="curve" smooth="yes"/>
      <point x="49,9531" y="-205,047"/>
      <point x="45,7969" y="-204,203"/>
      <point x="45,0938" y="-198,172" type="curve" smooth="yes"/>
      <point x="45,0156" y="-197,531"/>
      <point x="44,9688" y="-196,234"/>
      <point x="44,9688" y="-195,281" type="curve" smooth="yes"/>
      <point x="44,9219" y="-161,953"/>
      <point x="44,9688" y="-128,609"/>
      <point x="44,9688" y="-95,2812" type="curve"/>
      <point x="54,9688" y="-95,2812" type="line"/>
    </contour>
    <contour>
      <point x="46,9375" y="-45,8438" type="line" smooth="yes"/>
      <point x="46,9375" y="-56,875"/>
      <point x="50,1875" y="-67,875"/>
      <point x="56,6094" y="-76,7344" type="curve"/>
      <point x="48,5156" y="-82,5938" type="line"/>
      <point x="40,7188" y="-71,8438"/>
      <point x="36,9375" y="-58,8125"/>
      <point x="36,9375" y="-45,8438" type="curve" smooth="yes"/>
      <point x="36,9375" y="54,1562" type="line"/>
      <point x="46,9375" y="54,1562" type="line"/>
    </contour>
  </outline>
</glyph>
<glyph name="uni003E" format="1">
  <advance width="496"/>
  <unicode hex="003E"/>
  <outline>
    <contour>
      <point x="43,0938" y="423,625" type="line"/>
      <point x="40,8125" y="511" type="line"/>
      <point x="56,9219" y="505,625" type="line"/>
      <point x="57,2344" y="505,469" type="line" smooth="yes"/>
      <point x="66,4375" y="500,875"/>
      <point x="426,469" y="349,391"/>
      <point x="441,047" y="343,562" type="curve"/>
      <point x="454" y="337,094" type="line"/>
      <point x="454" y="259,703" type="line"/>
      <point x="253,953" y="174,391" type="line" smooth="yes"/>
      <point x="253,672" y="174,281"/>
      <point x="64" y="94,2031"/>
      <point x="52,1719" y="89,5469" type="curve" smooth="yes"/>
      <point x="51,75" y="89,2656"/>
      <point x="49,2031" y="88,4688"/>
      <point x="48,8906" y="88,5312" type="curve" smooth="yes"/>
      <point x="47,3906" y="88,8281"/>
      <point x="43,7031" y="88,5"/>
      <point x="42,6719" y="95,25" type="curve" smooth="yes"/>
      <point x="41,9062" y="100,25"/>
      <point x="42" y="113,234"/>
      <point x="42" y="131" type="curve" smooth="yes"/>
      <point x="42" y="172,344" type="line"/>
      <point x="202,094" y="238,625" type="line"/>
      <point x="346,484" y="298,828" type="line"/>
      <point x="200,109" y="358,375" type="line"/>
    </contour>
    <contour>
      <point x="207" y="263" type="line"/>
      <point x="197" y="263" type="line"/>
      <point x="197" y="363" type="line"/>
      <point x="207" y="363" type="line"/>
    </contour>
    <contour>
      <point x="53" y="330,344" type="line"/>
      <point x="203,891" y="267,625" type="line"/>
      <point x="240,625" y="252,875" type="line"/>
      <point x="236,906" y="243,594" type="line"/>
      <point x="200,109" y="258,375" type="line" smooth="yes"/>
      <point x="148,781" y="279,703"/>
      <point x="97,4062" y="301,047"/>
      <point x="46,0781" y="322,375" type="curve" smooth="yes"/>
      <point x="43" y="323,656" type="line"/>
      <point x="43" y="327" type="line" smooth="yes"/>
      <point x="43" y="427" type="line"/>
      <point x="53" y="427" type="line"/>
    </contour>
    <contour>
      <point x="257" y="86,5625" type="line"/>
      <point x="444" y="166,297" type="line"/>
      <point x="444" y="263" type="line"/>
      <point x="454" y="263" type="line"/>
      <point x="454" y="163" type="line" smooth="yes"/>
      <point x="454" y="159,703" type="line"/>
      <point x="450,969" y="158,406" type="line" smooth="yes"/>
      <point x="385,297" y="130,406"/>
      <point x="319,625" y="102,406"/>
      <point x="253,969" y="74,4062" type="curve" smooth="yes"/>
      <point x="247" y="71,4375" type="line"/>
      <point x="247" y="79" type="line" smooth="yes"/>
      <point x="247" y="179" type="line"/>
      <point x="257" y="179" type="line"/>
    </contour>
  </outline>
</glyph>
<glyph name="uni0041" format="1">
  <advance width="565"/>
  <unicode hex="0041"/>
  <outline>
    <contour>
      <point x="229,375" y="248,906" type="line" smooth="yes"/>
      <point x="228,766" y="247,438" type="line"/>
      <point x="238" y="243,594" type="line"/>
      <point x="238,625" y="245,094" type="line"/>
      <point x="276,188" y="336,312" type="line"/>
      <point x="316,422" y="246" type="line" smooth="yes"/>
      <point x="316,844" y="245"/>
      <point x="317,266" y="244,047"/>
      <point x="317,688" y="243,062" type="curve"/>
      <point x="326,875" y="247" type="line"/>
      <point x="326,438" y="247,984"/>
      <point x="326,01" y="249,028"/>
      <point x="325,578" y="250" type="curve" smooth="yes"/>
      <point x="310,594" y="283,688"/>
      <point x="295,562" y="317,375"/>
      <point x="280,562" y="351,031" type="curve" smooth="yes"/>
      <point x="275,812" y="361,688" type="line"/>
      <point x="271,375" y="350,906" type="line" smooth="yes"/>
    </contour>
    <contour>
      <point x="239" y="247" type="line"/>
      <point x="239" y="347" type="line"/>
      <point x="229" y="347" type="line"/>
      <point x="229" y="247" type="line"/>
    </contour>
    <contour>
      <point x="281" y="349" type="line"/>
      <point x="281" y="449" type="line"/>
      <point x="271" y="449" type="line"/>
      <point x="271" y="349" type="line"/>
    </contour>
    <contour>
      <point x="326" y="248" type="line"/>
      <point x="326" y="348" type="line"/>
      <point x="316" y="348" type="line"/>
      <point x="316" y="248" type="line"/>
    </contour>
    <contour>
      <point x="357,641" y="250,422" type="line"/>
      <point x="346,078" y="250,078"/>
      <point x="319,25" y="250"/>
      <point x="278,031" y="250" type="curve" smooth="yes"/>
      <point x="199,453" y="250,906" type="line"/>
      <point x="238,625" y="345,094" type="line"/>
      <point x="276,188" y="436,312" type="line"/>
      <point x="316,422" y="346" type="line"/>
    </contour>
    <contour>
      <point x="238,188" y="573,375" type="line" smooth="yes"/>
      <point x="235,75" y="566"/>
      <point x="182,203" y="441,344"/>
      <point x="115,406" y="284,969" type="curve" smooth="yes"/>
      <point x="51,158" y="134,561"/>
      <point x="-1,8125" y="10,5781"/>
      <point x="-4,59375" y="3,03125" type="curve" smooth="yes"/>
      <point x="-5,01562" y="1,875"/>
      <point x="-4,76562" y="2,21875"/>
      <point x="-5" y="1" type="curve" smooth="yes"/>
      <point x="-5" y="-99" type="line"/>
      <point x="-2,625" y="-106,5" type="line"/>
      <point x="-0,25" y="-104" type="line" smooth="yes"/>
      <point x="-0,203125" y="-104"/>
      <point x="19,8594" y="-105"/>
      <point x="43" y="-105" type="curve" smooth="yes"/>
      <point x="87" y="-105" type="line"/>
      <point x="90,3125" y="-105" type="line"/>
      <point x="91,6094" y="-101,953" type="line" smooth="yes"/>
      <point x="103,609" y="-73,625"/>
      <point x="115,609" y="-45,2812"/>
      <point x="127,609" y="-16,9531" type="curve" smooth="yes"/>
      <point x="162,312" y="65" type="line"/>
      <point x="398,734" y="65" type="line"/>
      <point x="434,438" y="-16,0312" type="line" smooth="yes"/>
      <point x="447,094" y="-44,0312"/>
      <point x="459,781" y="-72,0625"/>
      <point x="472,438" y="-100,062" type="curve" smooth="yes"/>
      <point x="473,734" y="-102,922" type="line"/>
      <point x="476,891" y="-103" type="line" smooth="yes"/>
      <point x="491,547" y="-103,328"/>
      <point x="506,219" y="-103,672"/>
      <point x="520,891" y="-104" type="curve" smooth="yes"/>
      <point x="535,547" y="-104,328"/>
      <point x="550,219" y="-104,672"/>
      <point x="564,891" y="-105" type="curve" smooth="yes"/>
      <point x="570" y="-105,109" type="line"/>
      <point x="570" y="-100" type="line"/>
      <point x="570" y="-5,10835" type="line"/>
      <point x="572,797" y="-5,17188" type="line"/>
      <point x="543,562" y="60,0469" type="line"/>
      <point x="414,578" y="349,031" type="line"/>
      <point x="311,266" y="584" type="line"/>
      <point x="277" y="584" type="line" smooth="yes"/>
      <point x="265,094" y="584"/>
      <point x="254,734" y="584,077"/>
      <point x="249,469" y="583,203" type="curve" smooth="yes"/>
      <point x="242,109" y="581,982"/>
      <point x="240,453" y="578,688"/>
      <point x="238,406" y="573,969" type="curve" smooth="yes"/>
      <point x="238,25" y="573,594" type="line"/>
    </contour>
    <contour>
      <point x="38" y="-94,9847" type="line"/>
      <point x="25,3829" y="-94,9091"/>
      <point x="13,2151" y="-94,5639"/>
      <point x="5" y="-94,2188" type="curve"/>
      <point x="5" y="-4,22636" type="line"/>
      <point x="11,6696" y="-4,49031"/>
      <point x="24,0088" y="-4,90127"/>
      <point x="38" y="-4,98486" type="curve"/>
    </contour>
    <contour>
      <point x="48" y="-95" type="line"/>
      <point x="48" y="-5" type="line"/>
      <point x="82" y="-5" type="line"/>
      <point x="82" y="-95" type="line"/>
    </contour>
    <contour>
      <point x="92" y="-75,3698" type="line"/>
      <point x="92" y="-1,0156" type="line"/>
      <point x="118" y="60,3737" type="line"/>
      <point x="118" y="-13,9703" type="line"/>
    </contour>
    <contour>
      <point x="128" y="9,64102" type="line"/>
      <point x="128" y="83,985" type="line"/>
      <point x="154" y="145,374" type="line"/>
      <point x="154" y="71,0299" type="line"/>
    </contour>
    <contour>
      <point x="164" y="75" type="line"/>
      <point x="164" y="165" type="line"/>
      <point x="275" y="165" type="line"/>
      <point x="275" y="75" type="line"/>
    </contour>
    <contour>
      <point x="285" y="75" type="line"/>
      <point x="285" y="165" type="line"/>
      <point x="397" y="165" type="line"/>
      <point x="397" y="75" type="line"/>
    </contour>
    <contour>
      <point x="407" y="71,0573" type="line"/>
      <point x="407" y="146,24" type="line"/>
      <point x="434" y="84,9628" type="line"/>
      <point x="434" y="9,74491" type="line"/>
    </contour>
    <contour>
      <point x="444" y="-12,9367" type="line"/>
      <point x="444" y="62,8254" type="line"/>
      <point x="472" y="0,912328" type="line"/>
      <point x="472" y="-74,8117" type="line"/>
    </contour>
    <contour>
      <point x="482" y="-93,1175" type="line"/>
      <point x="482" y="-3,10962" type="line"/>
      <point x="516" y="-3,88186" type="line"/>
      <point x="516" y="-93,8904" type="line"/>
    </contour>
    <contour>
      <point x="526" y="-94,1177" type="line"/>
      <point x="526" y="-4,10899" type="line"/>
      <point x="560" y="-4,88122" type="line"/>
      <point x="560" y="-94,8906" type="line"/>
    </contour>
  </outline>
</glyph>
<glyph name="uni0042" format="1">
  <advance width="477"/>
  <unicode hex="0042"/>
  <outline>
    <contour>
      <point x="59" y="-5,04688" type="line"/>
      <point x="59" y="582,047" type="line"/>
      <point x="162,047" y="581" type="line" smooth="yes"/>
      <point x="285,734" y="580"/>
      <point x="310,703" y="575,906"/>
      <point x="346,75" y="552,172" type="curve" smooth="yes"/>
      <point x="391,672" y="522,609"/>
      <point x="414,266" y="475,641"/>
      <point x="414,266" y="429,516" type="curve" smooth="yes"/>
      <point x="414,266" y="382,344"/>
      <point x="390,625" y="335,844"/>
      <point x="343,5" y="309,672" type="curve"/>
      <point x="337,891" y="306,312" type="line"/>
      <point x="345,531" y="303,766" type="line"/>
      <point x="421,547" y="280,062"/>
      <point x="464,266" y="226,094"/>
      <point x="464,266" y="158,094" type="curve" smooth="yes"/>
      <point x="464,266" y="155"/>
      <point x="464,172" y="151,875"/>
      <point x="464" y="148,719" type="curve" smooth="yes"/>
      <point x="459,859" y="74,5"/>
      <point x="412,516" y="24,125"/>
      <point x="328,25" y="1,15625" type="curve" smooth="yes"/>
      <point x="310,594" y="-3,65625"/>
      <point x="302,875" y="-3"/>
      <point x="186,047" y="-4" type="curve" smooth="yes"/>
    </contour>
    <contour>
      <point x="308,469" y="384,109" type="curve" smooth="yes"/>
      <point x="313,891" y="395,844"/>
      <point x="316,531" y="407,531"/>
      <point x="316,531" y="418,734" type="curve" smooth="yes"/>
      <point x="316,531" y="452"/>
      <point x="294,266" y="481,734"/>
      <point x="254,797" y="492,141" type="curve" smooth="yes"/>
      <point x="246,531" y="494,328"/>
      <point x="228,672" y="496"/>
      <point x="195,891" y="496" type="curve"/>
      <point x="155" y="497,781" type="line"/>
      <point x="155" y="335,125" type="line"/>
      <point x="191,875" y="336" type="line" smooth="yes"/>
      <point x="267,156" y="338"/>
      <point x="292,969" y="350,562"/>
    </contour>
    <contour>
      <point x="343,547" y="218,391" type="curve" smooth="yes"/>
      <point x="324,578" y="236,531"/>
      <point x="306,156" y="244,141"/>
      <point x="253,562" y="248,016" type="curve" smooth="yes"/>
      <point x="236,922" y="249,25"/>
      <point x="206,828" y="251"/>
      <point x="186" y="251" type="curve" smooth="yes"/>
      <point x="155" y="251" type="line"/>
      <point x="155" y="80,0781" type="line"/>
      <point x="215,969" y="81" type="line" smooth="yes"/>
      <point x="252,703" y="81"/>
      <point x="288,875" y="82,6406"/>
      <point x="296,234" y="83,9375" type="curve" smooth="yes"/>
      <point x="339,984" y="91,6719"/>
      <point x="366,391" y="128,828"/>
      <point x="366,391" y="165,422" type="curve" smooth="yes"/>
      <point x="366,391" y="184,422"/>
      <point x="359,328" y="203,281"/>
    </contour>
    <contour>
      <point x="352" y="122" type="line"/>
      <point x="342" y="122" type="line"/>
      <point x="342" y="222" type="line"/>
      <point x="352" y="222" type="line"/>
    </contour>
    <contour>
      <point x="259" y="153" type="line"/>
      <point x="249" y="153" type="line"/>
      <point x="249" y="253" type="line"/>
      <point x="259" y="253" type="line"/>
    </contour>
    <contour>
      <point x="191" y="156" type="line"/>
      <point x="181" y="156" type="line"/>
      <point x="181" y="256" type="line"/>
      <point x="191" y="256" type="line"/>
    </contour>
    <contour>
      <point x="261" y="397" type="line"/>
      <point x="251" y="397" type="line"/>
      <point x="251" y="497" type="line"/>
      <point x="261" y="497" type="line"/>
    </contour>
    <contour>
      <point x="201" y="401" type="line"/>
      <point x="191" y="401" type="line"/>
      <point x="191" y="501" type="line"/>
      <point x="201" y="501" type="line"/>
    </contour>
    <contour>
      <point x="346" y="300" type="line"/>
      <point x="336" y="300" type="line"/>
      <point x="336" y="314" type="line"/>
      <point x="346" y="314" type="line"/>
    </contour>
    <contour>
      <point x="332" y="-94" type="line"/>
      <point x="322" y="-94" type="line"/>
      <point x="322" y="6" type="line"/>
      <point x="332" y="6" type="line"/>
    </contour>
    <contour>
      <point x="191" y="-99" type="line"/>
      <point x="181" y="-99" type="line"/>
      <point x="181" y="1" type="line"/>
      <point x="191" y="1" type="line"/>
    </contour>
    <contour>
      <point x="69" y="-94,9531" type="line"/>
      <point x="185,953" y="-94" type="line" smooth="yes"/>
      <point x="303,125" y="-93"/>
      <point x="309,719" y="-93,5312"/>
      <point x="325,75" y="-89,1562" type="curve" smooth="yes"/>
      <point x="405,875" y="-67,2969"/>
      <point x="450,125" y="-20,6406"/>
      <point x="454" y="49,1406" type="curve"/>
      <point x="454" y="149" type="line"/>
      <point x="464" y="149" type="line"/>
      <point x="464" y="48,8594" type="line"/>
      <point x="459,875" y="-25,3594"/>
      <point x="412,516" y="-75,875"/>
      <point x="328,25" y="-98,8438" type="curve" smooth="yes"/>
      <point x="310,594" y="-103,656"/>
      <point x="302,875" y="-103,016"/>
      <point x="186,047" y="-104" type="curve" smooth="yes"/>
      <point x="145,375" y="-104,344"/>
      <point x="104,703" y="-104,672"/>
      <point x="64,0469" y="-105" type="curve" smooth="yes"/>
      <point x="59" y="-105,047" type="line"/>
      <point x="59" y="-100" type="line" smooth="yes"/>
      <point x="59" y="0" type="line"/>
      <point x="69" y="0" type="line"/>
    </contour>
    <contour>
      <point x="404,266" y="329,516" type="curve" smooth="yes"/>
      <point x="404,266" y="429,516" type="line"/>
      <point x="414,266" y="429,516" type="line"/>
      <point x="414,266" y="329,516" type="line" smooth="yes"/>
      <point x="414,266" y="309,656"/>
      <point x="410,078" y="289,906"/>
      <point x="401,703" y="271,734" type="curve"/>
      <point x="392,625" y="275,922" type="line"/>
      <point x="400,375" y="292,734"/>
      <point x="404,266" y="311,047"/>
    </contour>
    <contour>
      <point x="196,109" y="406" type="line"/>
      <point x="229,328" y="406"/>
      <point x="247,625" y="404,312"/>
      <point x="257,203" y="401,859" type="curve" smooth="yes"/>
      <point x="278,844" y="396,281"/>
      <point x="296,266" y="384,672"/>
      <point x="308,219" y="370,016" type="curve"/>
      <point x="300,469" y="363,703" type="line"/>
      <point x="289,938" y="376,609"/>
      <point x="274,641" y="387,031"/>
      <point x="254,797" y="392,141" type="curve" smooth="yes"/>
      <point x="246,516" y="394,281"/>
      <point x="228,672" y="396"/>
      <point x="195,891" y="396" type="curve"/>
      <point x="149,781" y="398" type="line"/>
      <point x="150,219" y="408" type="line"/>
    </contour>
    <contour>
      <point x="186" y="161" type="line" smooth="yes"/>
      <point x="207,172" y="161"/>
      <point x="237,016" y="160,031"/>
      <point x="254,438" y="157,984" type="curve"/>
      <point x="310,797" y="154,594"/>
      <point x="330,078" y="145,078"/>
      <point x="350,453" y="125,609" type="curve" smooth="yes"/>
      <point x="353,219" y="122,984"/>
      <point x="355,734" y="120,219"/>
      <point x="358,031" y="117,375" type="curve"/>
      <point x="350,25" y="111,094" type="line"/>
      <point x="348,219" y="113,609"/>
      <point x="346" y="116,047"/>
      <point x="343,547" y="118,391" type="curve" smooth="yes"/>
      <point x="324,562" y="136,5"/>
      <point x="306,156" y="144,141"/>
      <point x="253,562" y="148,016" type="curve" smooth="yes"/>
      <point x="236,922" y="149,25"/>
      <point x="206,828" y="151"/>
      <point x="186" y="151" type="curve" smooth="yes"/>
      <point x="150" y="151" type="line"/>
      <point x="150" y="161" type="line"/>
    </contour>
  </outline>
</glyph>
<glyph name="uni0043" format="1">
  <advance width="597"/>
  <unicode hex="0043"/>
  <outline>
    <contour>
      <point x="311,453" y="585,969" type="curve" smooth="yes"/>
      <point x="323,828" y="587,328"/>
      <point x="336,453" y="588,031"/>
      <point x="349,375" y="588,031" type="curve" smooth="yes"/>
      <point x="403,312" y="588,031"/>
      <point x="462,391" y="576,031"/>
      <point x="529,719" y="551,688" type="curve" smooth="yes"/>
      <point x="560" y="540,484" type="line"/>
      <point x="560" y="492" type="line" smooth="yes"/>
      <point x="560" y="487,453"/>
      <point x="560,109" y="455,828"/>
      <point x="558,359" y="447,141" type="curve" smooth="yes"/>
      <point x="557,391" y="442,359"/>
      <point x="554,078" y="442"/>
      <point x="553" y="442" type="curve" smooth="yes"/>
      <point x="549" y="442"/>
      <point x="536,672" y="447,578"/>
      <point x="532,859" y="449,484" type="curve" smooth="yes"/>
      <point x="470,203" y="480,875"/>
      <point x="412,406" y="496,812"/>
      <point x="358,812" y="496,812" type="curve" smooth="yes"/>
      <point x="318,078" y="496,812"/>
      <point x="279,719" y="487,766"/>
      <point x="243,234" y="469,531" type="curve" smooth="yes"/>
      <point x="173,906" y="434,859"/>
      <point x="134,359" y="363,688"/>
      <point x="134,359" y="287,469" type="curve" smooth="yes"/>
      <point x="134,359" y="254,422"/>
      <point x="141,609" y="220,406"/>
      <point x="157,484" y="188,203" type="curve" smooth="yes"/>
      <point x="193,125" y="115,922"/>
      <point x="267,547" y="77,5938"/>
      <point x="355,406" y="77,5938" type="curve" smooth="yes"/>
      <point x="413,25" y="77,5938"/>
      <point x="476,844" y="94,4531"/>
      <point x="538,547" y="129,359" type="curve" smooth="yes"/>
      <point x="545,328" y="133,188"/>
      <point x="552,047" y="137,172"/>
      <point x="555,344" y="139,234" type="curve"/>
      <point x="558" y="140" type="line"/>
      <point x="560,969" y="136,656"/>
      <point x="562,578" y="139,469"/>
      <point x="563,281" y="134,734" type="curve" smooth="yes"/>
      <point x="564,125" y="129,109"/>
      <point x="564" y="106,219"/>
      <point x="564" y="88" type="curve" smooth="yes"/>
      <point x="564" y="37,7031" type="line"/>
      <point x="539,969" y="27,4062" type="line" smooth="yes"/>
      <point x="479,031" y="1,54688"/>
      <point x="413,328" y="-11,2188"/>
      <point x="351,344" y="-11,2188" type="curve" smooth="yes"/>
      <point x="277,609" y="-11,2188"/>
      <point x="209,094" y="6,89062"/>
      <point x="160,031" y="42,9688" type="curve" smooth="yes"/>
      <point x="79,4375" y="102,25"/>
      <point x="35,9219" y="190,469"/>
      <point x="35,9219" y="283,469" type="curve" smooth="yes"/>
      <point x="35,9219" y="330,938"/>
      <point x="47,0781" y="379,703"/>
      <point x="70,5312" y="426,25" type="curve" smooth="yes"/>
      <point x="113,297" y="511,109"/>
      <point x="209,75" y="574,766"/>
    </contour>
    <contour>
      <point x="540" y="354" type="line"/>
      <point x="530" y="354" type="line"/>
      <point x="530" y="454" type="line"/>
      <point x="540" y="454" type="line"/>
    </contour>
    <contour>
      <point x="246" y="374" type="line"/>
      <point x="236" y="374" type="line"/>
      <point x="236" y="474" type="line"/>
      <point x="246" y="474" type="line"/>
    </contour>
    <contour>
      <point x="543" y="-68" type="line"/>
      <point x="533" y="-68" type="line"/>
      <point x="533" y="32" type="line"/>
      <point x="543" y="32" type="line"/>
    </contour>
    <contour>
      <point x="168" y="-53" type="line"/>
      <point x="158" y="-53" type="line"/>
      <point x="158" y="47" type="line"/>
      <point x="168" y="47" type="line"/>
    </contour>
    <contour>
      <point x="45,9219" y="183,469" type="line" smooth="yes"/>
      <point x="45,9219" y="93,5781"/>
      <point x="87,8125" y="8,48438"/>
      <point x="165,969" y="-48,9688" type="curve" smooth="yes"/>
      <point x="212,688" y="-83,3281"/>
      <point x="279,219" y="-101,219"/>
      <point x="351,344" y="-101,219" type="curve" smooth="yes"/>
      <point x="411,953" y="-101,219"/>
      <point x="476,406" y="-88,7031"/>
      <point x="536,031" y="-63,4062" type="curve" smooth="yes"/>
      <point x="554" y="-55,7031" type="line"/>
      <point x="554" y="41" type="line"/>
      <point x="564" y="41" type="line"/>
      <point x="564" y="-59" type="line" smooth="yes"/>
      <point x="564" y="-62,2969" type="line"/>
      <point x="560,969" y="-63,5938" type="line" smooth="yes"/>
      <point x="553,969" y="-66,5938"/>
      <point x="546,969" y="-69,625"/>
      <point x="539,969" y="-72,5938" type="curve" smooth="yes"/>
      <point x="479,047" y="-98,4688"/>
      <point x="413,328" y="-111,219"/>
      <point x="351,344" y="-111,219" type="curve" smooth="yes"/>
      <point x="277,609" y="-111,219"/>
      <point x="209,094" y="-93,1094"/>
      <point x="160,031" y="-57,0312" type="curve" smooth="yes"/>
      <point x="79,4375" y="2,25"/>
      <point x="35,9219" y="90,4688"/>
      <point x="35,9219" y="183,469" type="curve" smooth="yes"/>
      <point x="35,9219" y="283,469" type="line"/>
      <point x="45,9219" y="283,469" type="line"/>
    </contour>
    <contour>
      <point x="238,766" y="378,469" type="curve" smooth="yes"/>
      <point x="276,562" y="397,375"/>
      <point x="316,594" y="406,812"/>
      <point x="358,812" y="406,812" type="curve" smooth="yes"/>
      <point x="414,375" y="406,812"/>
      <point x="473,5" y="390,422"/>
      <point x="537,141" y="358,516" type="curve" smooth="yes"/>
      <point x="540,641" y="356,766"/>
      <point x="544,766" y="355,172"/>
      <point x="548" y="353,844" type="curve"/>
      <point x="548" y="447" type="line"/>
      <point x="558" y="447" type="line"/>
      <point x="558" y="347" type="line" smooth="yes"/>
      <point x="558" y="342" type="line"/>
      <point x="553" y="342" type="line" smooth="yes"/>
      <point x="553,297" y="342"/>
      <point x="552,188" y="342,047"/>
      <point x="552,109" y="342,047" type="curve" smooth="yes"/>
      <point x="548,172" y="342,5"/>
      <point x="536,516" y="347,641"/>
      <point x="532,859" y="349,484" type="curve" smooth="yes"/>
      <point x="470,203" y="380,875"/>
      <point x="412,406" y="396,812"/>
      <point x="358,812" y="396,812" type="curve" smooth="yes"/>
      <point x="318,078" y="396,812"/>
      <point x="279,719" y="387,766"/>
      <point x="243,234" y="369,531" type="curve" smooth="yes"/>
      <point x="188,953" y="342,391"/>
      <point x="152,969" y="292,906"/>
      <point x="139,859" y="236,094" type="curve"/>
      <point x="130,109" y="238,344" type="line"/>
      <point x="143,828" y="297,797"/>
      <point x="181,656" y="349,922"/>
    </contour>
  </outline>
</glyph>
<glyph name="uni0045" format="1">
  <advance width="425"/>
  <unicode hex="0045"/>
  <outline>
    <contour>
      <point x="59" y="-5" type="line"/>
      <point x="59" y="582" type="line"/>
      <point x="397" y="582" type="line"/>
      <point x="397" y="497" type="line"/>
      <point x="153" y="497" type="line"/>
      <point x="153" y="333" type="line"/>
      <point x="388" y="333" type="line"/>
      <point x="388" y="246" type="line"/>
      <point x="153" y="246" type="line"/>
      <point x="153" y="80" type="line"/>
      <point x="406" y="80" type="line"/>
      <point x="406" y="-5" type="line"/>
    </contour>
    <contour>
      <point x="275" y="402" type="line"/>
      <point x="265" y="402" type="line"/>
      <point x="265" y="502" type="line"/>
      <point x="275" y="502" type="line"/>
    </contour>
    <contour>
      <point x="270" y="151" type="line"/>
      <point x="260" y="151" type="line"/>
      <point x="260" y="251" type="line"/>
      <point x="270" y="251" type="line"/>
    </contour>
    <contour>
      <point x="237" y="-100" type="line"/>
      <point x="227" y="-100" type="line"/>
      <point x="227" y="0" type="line"/>
      <point x="237" y="0" type="line"/>
    </contour>
    <contour>
      <point x="69" y="-95" type="line"/>
      <point x="396" y="-95" type="line"/>
      <point x="396" y="0" type="line"/>
      <point x="406" y="0" type="line"/>
      <point x="406" y="-100" type="line" smooth="yes"/>
      <point x="406" y="-105" type="line"/>
      <point x="401" y="-105" type="line" smooth="yes"/>
      <point x="232" y="-105" type="line" smooth="yes"/>
      <point x="59" y="-105" type="line"/>
      <point x="59" y="-100" type="line" smooth="yes"/>
      <point x="59" y="0" type="line"/>
      <point x="69" y="0" type="line"/>
    </contour>
    <contour>
      <point x="148" y="156" type="line"/>
      <point x="378" y="156" type="line"/>
      <point x="378" y="251" type="line"/>
      <point x="388" y="251" type="line"/>
      <point x="388" y="151" type="line" smooth="yes"/>
      <point x="388" y="146" type="line"/>
      <point x="383" y="146" type="line" smooth="yes"/>
      <point x="265" y="146" type="line" smooth="yes"/>
      <point x="148" y="146" type="line"/>
    </contour>
    <contour>
      <point x="148" y="407" type="line"/>
      <point x="387" y="407" type="line"/>
      <point x="387" y="502" type="line"/>
      <point x="397" y="502" type="line"/>
      <point x="397" y="402" type="line" smooth="yes"/>
      <point x="397" y="397" type="line"/>
      <point x="392" y="397" type="line" smooth="yes"/>
      <point x="270" y="397" type="line" smooth="yes"/>
      <point x="148" y="397" type="line"/>
    </contour>
  </outline>
</glyph>
<glyph name="uni0046" format="1">
  <advance width="397"/>
  <unicode hex="0046"/>
  <outline>
    <contour>
      <point x="59" y="-5" type="line"/>
      <point x="59" y="582" type="line"/>
      <point x="377" y="582" type="line"/>
      <point x="377" y="497" type="line"/>
      <point x="153" y="497" type="line"/>
      <point x="153" y="349" type="line"/>
      <point x="377" y="349" type="line"/>
      <point x="377" y="262" type="line"/>
      <point x="153" y="262" type="line"/>
      <point x="153" y="-5" type="line"/>
    </contour>
    <contour>
      <point x="265" y="402" type="line"/>
      <point x="255" y="402" type="line"/>
      <point x="255" y="502" type="line"/>
      <point x="265" y="502" type="line"/>
    </contour>
    <contour>
      <point x="111" y="-100" type="line"/>
      <point x="101" y="-100" type="line"/>
      <point x="101" y="0" type="line"/>
      <point x="111" y="0" type="line"/>
    </contour>
    <contour>
      <point x="69" y="-95" type="line"/>
      <point x="143" y="-95" type="line"/>
      <point x="143" y="0" type="line"/>
      <point x="153" y="0" type="line"/>
      <point x="153" y="-100" type="line" smooth="yes"/>
      <point x="153" y="-105" type="line"/>
      <point x="106" y="-105" type="line" smooth="yes"/>
      <point x="59" y="-105" type="line"/>
      <point x="59" y="-100" type="line" smooth="yes"/>
      <point x="59" y="0" type="line"/>
      <point x="69" y="0" type="line"/>
    </contour>
    <contour>
      <point x="153" y="167" type="line"/>
      <point x="143" y="167" type="line"/>
      <point x="143" y="267" type="line"/>
      <point x="153" y="267" type="line"/>
    </contour>
    <contour>
      <point x="265" y="172" type="line"/>
      <point x="367" y="172" type="line"/>
      <point x="367" y="267" type="line"/>
      <point x="377" y="267" type="line"/>
      <point x="377" y="167" type="line" smooth="yes"/>
      <point x="377" y="162" type="line"/>
      <point x="372" y="162" type="line" smooth="yes"/>
      <point x="260" y="162" type="line" smooth="yes"/>
      <point x="255" y="162" type="line"/>
      <point x="255" y="167" type="line" smooth="yes"/>
      <point x="255" y="267" type="line"/>
      <point x="265" y="267" type="line"/>
    </contour>
    <contour>
      <point x="148" y="407" type="line"/>
      <point x="367" y="407" type="line"/>
      <point x="367" y="502" type="line"/>
      <point x="377" y="502" type="line"/>
      <point x="377" y="402" type="line" smooth="yes"/>
      <point x="377" y="397" type="line"/>
      <point x="372" y="397" type="line" smooth="yes"/>
      <point x="260" y="397" type="line" smooth="yes"/>
      <point x="148" y="397" type="line"/>
    </contour>
  </outline>
</glyph>
<glyph name="uni0049" format="1">
  <advance width="214"/>
  <unicode hex="0049"/>
  <outline>
    <contour>
      <point x="60" y="-5" type="line"/>
      <point x="60" y="582" type="line"/>
      <point x="154" y="582" type="line"/>
      <point x="154" y="-5" type="line"/>
    </contour>
    <contour>
      <point x="112" y="-100" type="line"/>
      <point x="102" y="-100" type="line"/>
      <point x="102" y="0" type="line"/>
      <point x="112" y="0" type="line"/>
    </contour>
    <contour>
      <point x="70" y="-95" type="line"/>
      <point x="144" y="-95" type="line"/>
      <point x="144" y="0" type="line"/>
      <point x="154" y="0" type="line"/>
      <point x="154" y="-100" type="line" smooth="yes"/>
      <point x="154" y="-105" type="line"/>
      <point x="107" y="-105" type="line" smooth="yes"/>
      <point x="60" y="-105" type="line"/>
      <point x="60" y="-100" type="line" smooth="yes"/>
      <point x="60" y="0" type="line"/>
      <point x="70" y="0" type="line"/>
    </contour>
  </outline>
</glyph>
<glyph name="uni004D" format="1">
  <advance width="661"/>
  <unicode hex="004D"/>
  <outline>
    <contour>
      <point x="109" y="-95" type="line"/>
      <point x="141" y="-95" type="line"/>
      <point x="141" y="-5" type="line"/>
      <point x="109" y="-5" type="line"/>
    </contour>
    <contour>
      <point x="99" y="-95" type="line"/>
      <point x="99" y="-5" type="line"/>
      <point x="67" y="-5" type="line"/>
      <point x="67" y="-95" type="line"/>
    </contour>
    <contour>
      <point x="240" y="235,751" type="line"/>
      <point x="297,866" y="164,075"/>
      <point x="318,684" y="138,144"/>
      <point x="327" y="131,709" type="curve"/>
      <point x="327" y="220,523" type="line"/>
      <point x="325,888" y="220,836"/>
      <point x="324,76" y="221,306"/>
      <point x="323,578" y="221,984" type="curve" smooth="yes"/>
      <point x="314,02" y="227,474"/>
      <point x="293,029" y="254,08"/>
      <point x="240" y="319,84" type="curve"/>
    </contour>
    <contour>
      <point x="230" y="248,137" type="line"/>
      <point x="230" y="332,233" type="line"/>
      <point x="152" y="428,844" type="line"/>
      <point x="152" y="344,75" type="line"/>
    </contour>
    <contour>
      <point x="337" y="132,256" type="line"/>
      <point x="343,172" y="137,566"/>
      <point x="356,905" y="154,209"/>
      <point x="422" y="235,755" type="curve"/>
      <point x="422" y="319,686" type="line"/>
      <point x="385,676" y="274,067"/>
      <point x="350,071" y="228,934"/>
      <point x="340,812" y="222,578" type="curve" smooth="yes"/>
      <point x="339,4" y="221,614"/>
      <point x="338,135" y="221,01"/>
      <point x="337" y="220,631" type="curve"/>
    </contour>
    <contour>
      <point x="432" y="248,283" type="line"/>
      <point x="509" y="344,75" type="line"/>
      <point x="509" y="428,719" type="line"/>
      <point x="432" y="332,23" type="line"/>
    </contour>
    <contour>
      <point x="563" y="-95" type="line"/>
      <point x="596" y="-95" type="line"/>
      <point x="596" y="-5" type="line"/>
      <point x="563" y="-5" type="line"/>
    </contour>
    <contour>
      <point x="553" y="-95" type="line"/>
      <point x="553" y="-5" type="line"/>
      <point x="520" y="-5" type="line"/>
      <point x="520" y="-95" type="line"/>
    </contour>
    <contour>
      <point x="57" y="-5" type="line"/>
      <point x="57" y="0" type="line"/>
      <point x="57" y="582,125" type="line"/>
      <point x="102,062" y="581" type="line"/>
      <point x="144,375" y="581" type="line"/>
      <point x="236,891" y="467,141" type="line" smooth="yes"/>
      <point x="285,828" y="406,453"/>
      <point x="323,578" y="360,141"/>
      <point x="331,031" y="350,328" type="curve"/>
      <point x="335,328" y="354,141"/>
      <point x="347,203" y="369,109"/>
      <point x="422,109" y="462,125" type="curve" smooth="yes"/>
      <point x="518,609" y="582" type="line"/>
      <point x="606" y="582" type="line"/>
      <point x="606" y="0" type="line"/>
      <point x="606" y="-5" type="line"/>
      <point x="606" y="-100" type="line"/>
      <point x="606" y="-105" type="line"/>
      <point x="601" y="-105" type="line"/>
      <point x="558" y="-105" type="line"/>
      <point x="515" y="-105" type="line"/>
      <point x="510" y="-105" type="line"/>
      <point x="510" y="-100" type="line"/>
      <point x="510" y="-5" type="line"/>
      <point x="510" y="0" type="line"/>
      <point x="510" y="221,984" type="line"/>
      <point x="509,513" y="329,344" type="line"/>
      <point x="430,906" y="230,859" type="line" smooth="yes"/>
      <point x="373,938" y="159,5"/>
      <point x="350,094" y="128,953"/>
      <point x="340,812" y="122,578" type="curve" smooth="yes"/>
      <point x="337,219" y="120,125"/>
      <point x="334,578" y="120"/>
      <point x="332,609" y="120" type="curve" smooth="yes"/>
      <point x="332" y="120" type="line" smooth="yes"/>
      <point x="330,406" y="120" type="line" smooth="yes"/>
      <point x="328,141" y="120,094"/>
      <point x="325,969" y="120,595"/>
      <point x="323,578" y="121,969" type="curve" smooth="yes"/>
      <point x="313,049" y="128,02"/>
      <point x="277,97" y="172,814"/>
      <point x="231,109" y="230,859" type="curve" smooth="yes"/>
      <point x="151,487" y="329,483" type="line"/>
      <point x="151" y="221,984" type="line"/>
      <point x="151" y="0" type="line"/>
      <point x="151" y="-5" type="line"/>
      <point x="151" y="-100" type="line"/>
      <point x="151" y="-105" type="line"/>
      <point x="104" y="-105" type="line"/>
      <point x="57" y="-105" type="line"/>
      <point x="57" y="-100" type="line"/>
    </contour>
  </outline>
</glyph>
<glyph name="uni0050" format="1">
  <advance width="432"/>
  <unicode hex="0050"/>
  <outline>
    <contour>
      <point x="54" y="-5" type="line"/>
      <point x="54" y="582" type="line"/>
      <point x="161" y="582" type="line" smooth="yes"/>
      <point x="286,672" y="582"/>
      <point x="309,453" y="578,641"/>
      <point x="351,422" y="555,375" type="curve" smooth="yes"/>
      <point x="401,906" y="527,391"/>
      <point x="429,031" y="469"/>
      <point x="429,031" y="411,062" type="curve" smooth="yes"/>
      <point x="429,031" y="371,156"/>
      <point x="416,375" y="331"/>
      <point x="388,641" y="301,578" type="curve" smooth="yes"/>
      <point x="347,641" y="258,094"/>
      <point x="297,156" y="244"/>
      <point x="188" y="244" type="curve" smooth="yes"/>
      <point x="150" y="244" type="line"/>
      <point x="150" y="-5" type="line"/>
    </contour>
    <contour>
      <point x="324,516" y="444,781" type="curve" smooth="yes"/>
      <point x="312,125" y="470,891"/>
      <point x="289,906" y="487,5"/>
      <point x="258,969" y="494,109" type="curve" smooth="yes"/>
      <point x="246,578" y="496,75"/>
      <point x="220,609" y="497"/>
      <point x="195" y="497" type="curve" smooth="yes"/>
      <point x="150" y="497" type="line"/>
      <point x="150" y="328,094" type="line"/>
      <point x="200,891" y="329" type="line" smooth="yes"/>
      <point x="283,828" y="330,953"/>
      <point x="305,438" y="338,922"/>
      <point x="323,5" y="376,172" type="curve" smooth="yes"/>
      <point x="328,391" y="386,266"/>
      <point x="331,016" y="400,016"/>
      <point x="331,016" y="413,234" type="curve" smooth="yes"/>
      <point x="331,016" y="428,891"/>
      <point x="327,172" y="439,219"/>
    </contour>
    <contour>
      <point x="334" y="376,203" type="line"/>
      <point x="324" y="376,203" type="line"/>
      <point x="324" y="447" type="line"/>
      <point x="334" y="447" type="line"/>
    </contour>
    <contour>
      <point x="265" y="399" type="line"/>
      <point x="255" y="399" type="line"/>
      <point x="255" y="499" type="line"/>
      <point x="265" y="499" type="line"/>
    </contour>
    <contour>
      <point x="200" y="402" type="line"/>
      <point x="190" y="402" type="line"/>
      <point x="190" y="502" type="line"/>
      <point x="200" y="502" type="line"/>
    </contour>
    <contour>
      <point x="390" y="205" type="line"/>
      <point x="380" y="205" type="line"/>
      <point x="380" y="305" type="line"/>
      <point x="390" y="305" type="line"/>
    </contour>
    <contour>
      <point x="107" y="-100" type="line"/>
      <point x="97" y="-100" type="line"/>
      <point x="97" y="0" type="line"/>
      <point x="107" y="0" type="line"/>
    </contour>
    <contour>
      <point x="64" y="-95" type="line"/>
      <point x="140" y="-95" type="line"/>
      <point x="140" y="0" type="line"/>
      <point x="150" y="0" type="line"/>
      <point x="150" y="-100" type="line" smooth="yes"/>
      <point x="150" y="-105" type="line"/>
      <point x="145" y="-105" type="line" smooth="yes"/>
      <point x="102" y="-105" type="line" smooth="yes"/>
      <point x="59" y="-105" type="line" smooth="yes"/>
      <point x="54" y="-105" type="line"/>
      <point x="54" y="-100" type="line" smooth="yes"/>
      <point x="54" y="0" type="line"/>
      <point x="64" y="0" type="line"/>
    </contour>
    <contour>
      <point x="150" y="149" type="line"/>
      <point x="140" y="149" type="line"/>
      <point x="140" y="249" type="line"/>
      <point x="150" y="249" type="line"/>
    </contour>
    <contour>
      <point x="193" y="154,016" type="line"/>
      <point x="298,25" y="154,438"/>
      <point x="343,375" y="168,141"/>
      <point x="381,359" y="208,422" type="curve" smooth="yes"/>
      <point x="407,047" y="235,672"/>
      <point x="419,031" y="273,266"/>
      <point x="419,031" y="311,062" type="curve" smooth="yes"/>
      <point x="419,031" y="411,062" type="line"/>
      <point x="429,031" y="411,062" type="line"/>
      <point x="429,031" y="311,062" type="line" smooth="yes"/>
      <point x="429,031" y="271,156"/>
      <point x="416,375" y="231"/>
      <point x="388,641" y="201,578" type="curve" smooth="yes"/>
      <point x="347,641" y="158,094"/>
      <point x="297,156" y="144"/>
      <point x="188" y="144" type="curve" smooth="yes"/>
      <point x="183" y="144" type="line"/>
      <point x="183" y="149" type="line" smooth="yes"/>
      <point x="183" y="249" type="line"/>
      <point x="193" y="249" type="line"/>
    </contour>
    <contour>
      <point x="195" y="407" type="line" smooth="yes"/>
      <point x="231,125" y="407"/>
      <point x="250,234" y="406,188"/>
      <point x="261,031" y="403,891" type="curve" smooth="yes"/>
      <point x="285,375" y="398,703"/>
      <point x="309" y="386,734"/>
      <point x="324,938" y="364,031" type="curve"/>
      <point x="316,766" y="358,281" type="line"/>
      <point x="302,375" y="378,766"/>
      <point x="281,016" y="389,438"/>
      <point x="258,969" y="394,109" type="curve" smooth="yes"/>
      <point x="246,578" y="396,734"/>
      <point x="220,609" y="397"/>
      <point x="195" y="397" type="curve" smooth="yes"/>
      <point x="145" y="397" type="line"/>
      <point x="145" y="407" type="line"/>
    </contour>
  </outline>
</glyph>
<glyph name="uni0051" format="1">
  <advance width="692"/>
  <unicode hex="0051"/>
  <outline>
    <contour>
      <point x="569" y="287" type="curve" smooth="yes"/>
      <point x="569" y="392"/>
      <point x="502" y="474"/>
      <point x="396" y="499" type="curve"/>
      <point x="331" y="513"/>
      <point x="248" y="494"/>
      <point x="199" y="452" type="curve" smooth="yes"/>
      <point x="146" y="407"/>
      <point x="115" y="324"/>
      <point x="127" y="256" type="curve" smooth="yes"/>
      <point x="142" y="170"/>
      <point x="188" y="114"/>
      <point x="268" y="85" type="curve" smooth="yes"/>
      <point x="414" y="33"/>
      <point x="569" y="137"/>
    </contour>
    <contour>
      <point x="318,609" y="587,984" type="curve" smooth="yes"/>
      <point x="323,891" y="588,391"/>
      <point x="342,125" y="589,859"/>
      <point x="344,75" y="589,984" type="curve" smooth="yes"/>
      <point x="347,156" y="590,109"/>
      <point x="349,344" y="590,234"/>
      <point x="350,547" y="590,234" type="curve" smooth="yes"/>
      <point x="375,453" y="590,234"/>
      <point x="427,641" y="580,641"/>
      <point x="457,547" y="570,75" type="curve" smooth="yes"/>
      <point x="536,625" y="544,609"/>
      <point x="585,469" y="503,828"/>
      <point x="624,375" y="433,406" type="curve" smooth="yes"/>
      <point x="648,891" y="389,062"/>
      <point x="660,609" y="339,656"/>
      <point x="660,609" y="290,312" type="curve" smooth="yes"/>
      <point x="660,609" y="227,969"/>
      <point x="641,531" y="165,453"/>
      <point x="604,094" y="112,125" type="curve" smooth="yes"/>
      <point x="570,172" y="63,8281"/>
      <point x="500,641" y="16,1875"/>
      <point x="443,25" y="1,15625" type="curve" smooth="yes"/>
      <point x="438,219" y="-0,1875" type="line"/>
      <point x="454,484" y="-6,6875"/>
      <point x="485,953" y="-17,5"/>
      <point x="512,406" y="-25,2031" type="curve" smooth="yes"/>
      <point x="547,297" y="-35,375"/>
      <point x="568,016" y="-40,0469"/>
      <point x="586,312" y="-40,0469" type="curve" smooth="yes"/>
      <point x="598,375" y="-40,0469"/>
      <point x="609,656" y="-37,7969"/>
      <point x="623,781" y="-34,1562" type="curve" smooth="yes"/>
      <point x="631,391" y="-32,1875"/>
      <point x="640,703" y="-31"/>
      <point x="643" y="-31" type="curve" smooth="yes"/>
      <point x="645,078" y="-31" type="line"/>
      <point x="646,531" y="-32,4688" type="line" smooth="yes"/>
      <point x="647,047" y="-32,9844"/>
      <point x="648,156" y="-35,3906"/>
      <point x="648,047" y="-36,1094" type="curve" smooth="yes"/>
      <point x="647,797" y="-37,6406"/>
      <point x="648,016" y="-37,9219"/>
      <point x="646,766" y="-39,7969" type="curve" smooth="yes"/>
      <point x="643,031" y="-45,3438"/>
      <point x="622,844" y="-64,6406"/>
      <point x="606,469" y="-80,5938" type="curve" smooth="yes"/>
      <point x="564,922" y="-121,109" type="line"/>
      <point x="544,719" y="-120" type="line" smooth="yes"/>
      <point x="475,422" y="-115,922"/>
      <point x="394,672" y="-84,5312"/>
      <point x="305,234" y="-25,1562" type="curve" smooth="yes"/>
      <point x="281,234" y="-9,23438"/>
      <point x="272" y="-4,6875"/>
      <point x="260,781" y="-1,84375" type="curve" smooth="yes"/>
      <point x="188,516" y="16,4375"/>
      <point x="118,562" y="63,8281"/>
      <point x="82,7969" y="119,297" type="curve" smooth="yes"/>
      <point x="48,7969" y="172,016"/>
      <point x="31,8594" y="230,422"/>
      <point x="31,8594" y="288,844" type="curve" smooth="yes"/>
      <point x="31,8594" y="349,406"/>
      <point x="50,1406" y="410,078"/>
      <point x="86,8438" y="464,781" type="curve" smooth="yes"/>
      <point x="130,969" y="530,547"/>
      <point x="225,812" y="580,891"/>
    </contour>
    <contour>
      <point x="345,812" y="66,4375" type="curve" smooth="yes"/>
      <point x="319,641" y="66,4375"/>
      <point x="292,766" y="70,75"/>
      <point x="266,312" y="80,2969" type="curve" smooth="yes"/>
      <point x="184,875" y="109,688"/>
      <point x="137,531" y="166,594"/>
      <point x="122,078" y="255,141" type="curve" smooth="yes"/>
      <point x="120,297" y="265,281"/>
      <point x="119,422" y="275,719"/>
      <point x="119,422" y="286,281" type="curve" smooth="yes"/>
      <point x="119,422" y="348,797"/>
      <point x="149,172" y="416,078"/>
      <point x="195,75" y="455,797" type="curve" smooth="yes"/>
      <point x="235,297" y="489,516"/>
      <point x="295,094" y="508,562"/>
      <point x="351,156" y="508,562" type="curve" smooth="yes"/>
      <point x="366,922" y="508,562"/>
      <point x="382,5" y="507,281"/>
      <point x="397,094" y="503,875" type="curve" smooth="yes"/>
      <point x="505,766" y="478,516"/>
      <point x="574" y="394,219"/>
      <point x="574" y="287" type="curve" smooth="yes"/>
      <point x="574" y="160,688"/>
      <point x="466,766" y="66,4375"/>
    </contour>
    <contour>
      <point x="564" y="287" type="curve" smooth="yes"/>
      <point x="564" y="389,781"/>
      <point x="498,375" y="469,969"/>
      <point x="394,906" y="494,125" type="curve" smooth="yes"/>
      <point x="381,078" y="497,344"/>
      <point x="366,281" y="498,562"/>
      <point x="351,156" y="498,562" type="curve" smooth="yes"/>
      <point x="297,344" y="498,562"/>
      <point x="239,375" y="479,859"/>
      <point x="202,25" y="448,203" type="curve" smooth="yes"/>
      <point x="158,328" y="410,75"/>
      <point x="129,422" y="345,641"/>
      <point x="129,422" y="286,281" type="curve" smooth="yes"/>
      <point x="129,422" y="276,25"/>
      <point x="130,266" y="266,391"/>
      <point x="131,922" y="256,859" type="curve" smooth="yes"/>
      <point x="146,5" y="173,359"/>
      <point x="191,047" y="118,094"/>
      <point x="269,688" y="89,7031" type="curve" smooth="yes"/>
      <point x="295,078" y="80,5469"/>
      <point x="320,766" y="76,4375"/>
      <point x="345,812" y="76,4375" type="curve" smooth="yes"/>
      <point x="461,672" y="76,4375"/>
      <point x="564" y="166,656"/>
    </contour>
    <contour>
      <point x="401" y="399" type="line"/>
      <point x="391" y="399" type="line"/>
      <point x="391" y="499" type="line"/>
      <point x="401" y="499" type="line"/>
    </contour>
    <contour>
      <point x="204" y="352" type="line"/>
      <point x="194" y="352" type="line"/>
      <point x="194" y="452" type="line"/>
      <point x="204" y="452" type="line"/>
    </contour>
    <contour>
      <point x="605" y="15" type="line"/>
      <point x="595" y="15" type="line"/>
      <point x="595" y="115" type="line"/>
      <point x="605" y="115" type="line"/>
    </contour>
    <contour>
      <point x="447" y="-6,95312" type="line"/>
      <point x="437" y="-6,95312" type="line"/>
      <point x="437" y="6" type="line"/>
      <point x="447" y="6" type="line"/>
    </contour>
    <contour>
      <point x="430" y="0,5" type="line" smooth="yes"/>
      <point x="420" y="0,5" type="line" smooth="yes"/>
      <point x="420" y="1" type="line" smooth="yes"/>
      <point x="430" y="1" type="line" smooth="yes"/>
    </contour>
    <contour>
      <point x="608" y="-177" type="line"/>
      <point x="598" y="-177" type="line"/>
      <point x="598" y="-77" type="line"/>
      <point x="608" y="-77" type="line"/>
    </contour>
    <contour>
      <point x="568" y="-216" type="line"/>
      <point x="558" y="-216" type="line"/>
      <point x="558" y="-116" type="line"/>
      <point x="568" y="-116" type="line"/>
    </contour>
    <contour>
      <point x="550" y="-215" type="line"/>
      <point x="540" y="-215" type="line"/>
      <point x="540" y="-115" type="line"/>
      <point x="550" y="-115" type="line"/>
    </contour>
    <contour>
      <point x="313" y="-121" type="line"/>
      <point x="303" y="-121" type="line"/>
      <point x="303" y="-21" type="line"/>
      <point x="313" y="-21" type="line"/>
    </contour>
    <contour>
      <point x="267" y="-97" type="line"/>
      <point x="257" y="-97" type="line"/>
      <point x="257" y="3" type="line"/>
      <point x="267" y="3" type="line"/>
    </contour>
    <contour>
      <point x="92" y="22" type="line"/>
      <point x="82" y="22" type="line"/>
      <point x="82" y="122" type="line"/>
      <point x="92" y="122" type="line"/>
    </contour>
    <contour>
      <point x="41,8594" y="188,844" type="line" smooth="yes"/>
      <point x="41,8594" y="132,375"/>
      <point x="58,1875" y="75,9062"/>
      <point x="91,2031" y="24,7031" type="curve" smooth="yes"/>
      <point x="125,188" y="-27,9844"/>
      <point x="193,469" y="-74,5"/>
      <point x="263,219" y="-92,1562" type="curve" smooth="yes"/>
      <point x="275,984" y="-95,375"/>
      <point x="286,703" y="-100,859"/>
      <point x="310,766" y="-116,844" type="curve" smooth="yes"/>
      <point x="399,266" y="-175,578"/>
      <point x="478,578" y="-206,078"/>
      <point x="545,281" y="-210" type="curve" smooth="yes"/>
      <point x="561,078" y="-210,891" type="line"/>
      <point x="599,531" y="-173,406" type="line" smooth="yes"/>
      <point x="615,469" y="-158,125"/>
      <point x="635,469" y="-138,625"/>
      <point x="638,453" y="-134,203" type="curve" smooth="yes"/>
      <point x="638,703" y="-133,828"/>
      <point x="638,047" y="-136,109"/>
      <point x="638,047" y="-136,109" type="curve" smooth="yes"/>
      <point x="638,047" y="-36,1094" type="line"/>
      <point x="648,047" y="-36,1094" type="line"/>
      <point x="648,047" y="-136,109" type="line" smooth="yes"/>
      <point x="648,047" y="-137,578"/>
      <point x="647,391" y="-138,844"/>
      <point x="646,766" y="-139,797" type="curve" smooth="yes"/>
      <point x="643,672" y="-144,391"/>
      <point x="622,969" y="-164,672"/>
      <point x="606,469" y="-180,594" type="curve" smooth="yes"/>
      <point x="593,078" y="-193,531"/>
      <point x="579,828" y="-206,578"/>
      <point x="566,484" y="-219,578" type="curve" smooth="yes"/>
      <point x="564,922" y="-221,109" type="line"/>
      <point x="562,719" y="-221" type="line" smooth="yes"/>
      <point x="556,719" y="-220,656"/>
      <point x="550,719" y="-220,344"/>
      <point x="544,719" y="-220" type="curve" smooth="yes"/>
      <point x="475,422" y="-215,938"/>
      <point x="394,672" y="-184,531"/>
      <point x="305,234" y="-125,156" type="curve" smooth="yes"/>
      <point x="281,234" y="-109,234"/>
      <point x="272" y="-104,688"/>
      <point x="260,781" y="-101,844" type="curve" smooth="yes"/>
      <point x="188,516" y="-83,5625"/>
      <point x="118,562" y="-36,1719"/>
      <point x="82,7969" y="19,2969" type="curve" smooth="yes"/>
      <point x="48,7969" y="72,0156"/>
      <point x="31,8594" y="130,422"/>
      <point x="31,8594" y="188,844" type="curve" smooth="yes"/>
      <point x="31,8594" y="288,844" type="line"/>
      <point x="41,8594" y="288,844" type="line"/>
    </contour>
    <contour>
      <point x="595,906" y="17,875" type="curve" smooth="yes"/>
      <point x="632,156" y="69,5"/>
      <point x="650,609" y="130"/>
      <point x="650,609" y="190,312" type="curve" smooth="yes"/>
      <point x="650,609" y="290,312" type="line"/>
      <point x="660,609" y="290,312" type="line"/>
      <point x="660,609" y="190,312" type="line" smooth="yes"/>
      <point x="660,609" y="127,969"/>
      <point x="641,531" y="65,4531"/>
      <point x="604,094" y="12,125" type="curve" smooth="yes"/>
      <point x="590,469" y="-7,28125"/>
      <point x="571,25" y="-26,4375"/>
      <point x="549,375" y="-43,4844" type="curve"/>
      <point x="543,234" y="-35,5938" type="line"/>
      <point x="564,469" y="-19,0469"/>
      <point x="583,047" y="-0,453125"/>
    </contour>
    <contour>
      <point x="195,75" y="355,797" type="curve" smooth="yes"/>
      <point x="235,281" y="389,531"/>
      <point x="295,094" y="408,562"/>
      <point x="351,156" y="408,562" type="curve" smooth="yes"/>
      <point x="366,922" y="408,562"/>
      <point x="382,5" y="407,281"/>
      <point x="397,094" y="403,875" type="curve" smooth="yes"/>
      <point x="486,766" y="382,984"/>
      <point x="549,594" y="321,172"/>
      <point x="568,234" y="239,391" type="curve"/>
      <point x="558,484" y="237,172" type="line"/>
      <point x="540,703" y="315,188"/>
      <point x="481,391" y="373,969"/>
      <point x="394,906" y="394,125" type="curve" smooth="yes"/>
      <point x="381,078" y="397,344"/>
      <point x="366,281" y="398,562"/>
      <point x="351,156" y="398,562" type="curve" smooth="yes"/>
      <point x="297,344" y="398,562"/>
      <point x="239,359" y="379,875"/>
      <point x="202,25" y="348,203" type="curve" smooth="yes"/>
      <point x="170,484" y="321,094"/>
      <point x="146,438" y="279,594"/>
      <point x="135,703" y="236,156" type="curve"/>
      <point x="126" y="238,547" type="line"/>
      <point x="137,203" y="283,891"/>
      <point x="162,047" y="327,031"/>
    </contour>
  </outline>
</glyph>
<glyph name="uni0052" format="1">
  <advance width="510"/>
  <unicode hex="0052"/>
  <outline>
    <contour>
      <point x="61" y="-5" type="line"/>
      <point x="61" y="582" type="line"/>
      <point x="146" y="582" type="line" smooth="yes"/>
      <point x="245,906" y="582"/>
      <point x="273,453" y="578,062"/>
      <point x="315,984" y="559,594" type="curve" smooth="yes"/>
      <point x="375,984" y="533,516"/>
      <point x="406,141" y="474,688"/>
      <point x="406,141" y="416,422" type="curve" smooth="yes"/>
      <point x="406,141" y="359,906"/>
      <point x="377,672" y="303,547"/>
      <point x="320,344" y="275,578" type="curve" smooth="yes"/>
      <point x="318" y="274,438"/>
      <point x="316,578" y="273,688"/>
      <point x="315,688" y="273,156" type="curve" smooth="yes"/>
      <point x="319,969" y="270,016" type="line" smooth="yes"/>
      <point x="349,031" y="248,312"/>
      <point x="383,312" y="205,047"/>
      <point x="423,234" y="141,672" type="curve" smooth="yes"/>
      <point x="463,453" y="77,7969"/>
      <point x="478,359" y="54,8906"/>
      <point x="496,031" y="30,9531" type="curve" smooth="yes"/>
      <point x="503,844" y="20,3594"/>
      <point x="513,031" y="6,46875"/>
      <point x="514,391" y="3,54688" type="curve" smooth="yes"/>
      <point x="514,703" y="2,84375"/>
      <point x="515" y="2,01562"/>
      <point x="515" y="1" type="curve" smooth="yes"/>
      <point x="512,609" y="-6,5" type="line"/>
      <point x="510,219" y="-4" type="line" smooth="yes"/>
      <point x="510,188" y="-4"/>
      <point x="488,062" y="-5"/>
      <point x="459,953" y="-5" type="curve" smooth="yes"/>
      <point x="407,359" y="-3,95312" type="line"/>
      <point x="384,844" y="28,2344" type="line"/>
      <point x="334,75" y="107,359" type="line"/>
      <point x="268,766" y="214,719"/>
      <point x="233,828" y="244"/>
      <point x="172" y="244" type="curve" smooth="yes"/>
      <point x="155" y="244" type="line"/>
      <point x="155" y="-5" type="line"/>
    </contour>
    <contour>
      <point x="286,5" y="471,438" type="curve" smooth="yes"/>
      <point x="270,219" y="487,469"/>
      <point x="250,828" y="493,031"/>
      <point x="230,266" y="496,062" type="curve" smooth="yes"/>
      <point x="217,812" y="497,891"/>
      <point x="194,766" y="499"/>
      <point x="179" y="499" type="curve" smooth="yes"/>
      <point x="155" y="499" type="line"/>
      <point x="155" y="330,234" type="line"/>
      <point x="192,844" y="332" type="line"/>
      <point x="252,062" y="332,969"/>
      <point x="264,922" y="336,688"/>
      <point x="286,453" y="358,531" type="curve" smooth="yes"/>
      <point x="300,984" y="373,25"/>
      <point x="309" y="393,922"/>
      <point x="309" y="415" type="curve" smooth="yes"/>
      <point x="309" y="436,078"/>
      <point x="301,234" y="456,922"/>
    </contour>
    <contour>
      <point x="295" y="375" type="line"/>
      <point x="285" y="375" type="line"/>
      <point x="285" y="475" type="line"/>
      <point x="295" y="475" type="line"/>
    </contour>
    <contour>
      <point x="236" y="401" type="line"/>
      <point x="226" y="401" type="line"/>
      <point x="226" y="501" type="line"/>
      <point x="236" y="501" type="line"/>
    </contour>
    <contour>
      <point x="184" y="404" type="line"/>
      <point x="174" y="404" type="line"/>
      <point x="174" y="504" type="line"/>
      <point x="184" y="504" type="line"/>
    </contour>
    <contour>
      <point x="323" y="265,25" type="line"/>
      <point x="313" y="265,25" type="line"/>
      <point x="313" y="280" type="line"/>
      <point x="323" y="280" type="line"/>
    </contour>
    <contour>
      <point x="465" y="-100" type="line"/>
      <point x="455" y="-100" type="line"/>
      <point x="455" y="0" type="line"/>
      <point x="465" y="0" type="line"/>
    </contour>
    <contour>
      <point x="415" y="-99" type="line"/>
      <point x="405" y="-99" type="line"/>
      <point x="405" y="1" type="line"/>
      <point x="415" y="1" type="line"/>
    </contour>
    <contour>
      <point x="394" y="-69" type="line"/>
      <point x="384" y="-69" type="line"/>
      <point x="384" y="31" type="line"/>
      <point x="394" y="31" type="line"/>
    </contour>
    <contour>
      <point x="344" y="10" type="line"/>
      <point x="334" y="10" type="line"/>
      <point x="334" y="110" type="line"/>
      <point x="344" y="110" type="line"/>
    </contour>
    <contour>
      <point x="113" y="-100" type="line"/>
      <point x="103" y="-100" type="line"/>
      <point x="103" y="0" type="line"/>
      <point x="113" y="0" type="line"/>
    </contour>
    <contour>
      <point x="71" y="-95" type="line"/>
      <point x="145" y="-95" type="line"/>
      <point x="145" y="0" type="line"/>
      <point x="155" y="0" type="line"/>
      <point x="155" y="-100" type="line" smooth="yes"/>
      <point x="155" y="-105" type="line"/>
      <point x="108" y="-105" type="line" smooth="yes"/>
      <point x="61" y="-105" type="line"/>
      <point x="61" y="-100" type="line" smooth="yes"/>
      <point x="61" y="0" type="line"/>
      <point x="71" y="0" type="line"/>
    </contour>
    <contour>
      <point x="155" y="149" type="line"/>
      <point x="145" y="149" type="line"/>
      <point x="145" y="249" type="line"/>
      <point x="155" y="249" type="line"/>
    </contour>
    <contour>
      <point x="177" y="153,938" type="line"/>
      <point x="240,109" y="152,344"/>
      <point x="277,188" y="119,5"/>
      <point x="343,25" y="12,6406" type="curve" smooth="yes"/>
      <point x="359,625" y="-13,8594"/>
      <point x="376,5" y="-39,8906"/>
      <point x="393,156" y="-66,2344" type="curve"/>
      <point x="412,641" y="-94,0469" type="line"/>
      <point x="460,047" y="-95" type="line" smooth="yes"/>
      <point x="477,156" y="-95"/>
      <point x="494,219" y="-94,5938"/>
      <point x="505" y="-94,2031" type="curve"/>
      <point x="505" y="1" type="line"/>
      <point x="515" y="1" type="line"/>
      <point x="515" y="-99" type="line"/>
      <point x="510,219" y="-104" type="line" smooth="yes"/>
      <point x="510,188" y="-104"/>
      <point x="488,062" y="-105,203"/>
      <point x="459,953" y="-105" type="curve" smooth="yes"/>
      <point x="443,281" y="-104,875"/>
      <point x="426,562" y="-104,328"/>
      <point x="409,906" y="-104" type="curve" smooth="yes"/>
      <point x="407,359" y="-103,953" type="line"/>
      <point x="405,906" y="-101,875" type="line" smooth="yes"/>
      <point x="398,906" y="-91,875"/>
      <point x="391,5" y="-82"/>
      <point x="384,844" y="-71,7656" type="curve" smooth="yes"/>
      <point x="367,828" y="-45,6562"/>
      <point x="351,141" y="-19,1562"/>
      <point x="334,75" y="7,35938" type="curve" smooth="yes"/>
      <point x="268,484" y="114,547"/>
      <point x="233,828" y="144"/>
      <point x="172" y="144" type="curve" smooth="yes"/>
      <point x="167" y="144" type="line"/>
      <point x="167" y="149" type="line" smooth="yes"/>
      <point x="167" y="249" type="line"/>
      <point x="177" y="249" type="line"/>
    </contour>
    <contour>
      <point x="396,141" y="316,422" type="curve" smooth="yes"/>
      <point x="396,141" y="416,422" type="line"/>
      <point x="406,141" y="416,422" type="line"/>
      <point x="406,141" y="316,422" type="line" smooth="yes"/>
      <point x="406,141" y="279,203"/>
      <point x="393,891" y="241,906"/>
      <point x="369,031" y="212,828" type="curve"/>
      <point x="361,422" y="219,328" type="line"/>
      <point x="384,578" y="246,406"/>
      <point x="396,141" y="281,375"/>
    </contour>
    <contour>
      <point x="179" y="409" type="line" smooth="yes"/>
      <point x="195,234" y="409"/>
      <point x="218,172" y="407,938"/>
      <point x="231,734" y="405,938" type="curve" smooth="yes"/>
      <point x="254,375" y="402,625"/>
      <point x="275,609" y="396,375"/>
      <point x="293,5" y="378,562" type="curve" smooth="yes"/>
      <point x="296,875" y="375,219"/>
      <point x="299,953" y="371,719"/>
      <point x="302,672" y="367,906" type="curve"/>
      <point x="294,531" y="362,094" type="line"/>
      <point x="292,156" y="365,422"/>
      <point x="289,406" y="368,531"/>
      <point x="286,5" y="371,438" type="curve" smooth="yes"/>
      <point x="270,297" y="387,547"/>
      <point x="250,828" y="393,031"/>
      <point x="230,266" y="396,062" type="curve" smooth="yes"/>
      <point x="217,812" y="397,891"/>
      <point x="194,766" y="399"/>
      <point x="179" y="399" type="curve" smooth="yes"/>
      <point x="150" y="399" type="line"/>
      <point x="150" y="409" type="line"/>
    </contour>
  </outline>
</glyph>
<glyph name="uni0056" format="1">
  <advance width="509"/>
  <unicode hex="0056"/>
  <outline>
    <contour>
      <point x="-4,5" y="570,828" type="curve" smooth="yes"/>
      <point x="-4,71875" y="571,25" type="line"/>
      <point x="-4,84375" y="571,781" type="line" smooth="yes"/>
      <point x="-4,9375" y="572,156"/>
      <point x="-5,1875" y="573,703"/>
      <point x="-5,15625" y="574" type="curve" smooth="yes"/>
      <point x="-5" y="575,547"/>
      <point x="-4,67188" y="579,703"/>
      <point x="1,64062" y="581,016" type="curve" smooth="yes"/>
      <point x="7,25" y="582,156"/>
      <point x="21,1406" y="582"/>
      <point x="41" y="582" type="curve" smooth="yes"/>
      <point x="87,2969" y="582" type="line"/>
      <point x="174,594" y="377,969" type="line" smooth="yes"/>
      <point x="223,625" y="263,359"/>
      <point x="247,438" y="208,141"/>
      <point x="256,578" y="190,547" type="curve"/>
      <point x="339,406" y="383,953" type="line"/>
      <point x="423,688" y="582" type="line"/>
      <point x="468" y="582" type="line" smooth="yes"/>
      <point x="472,25" y="581,984"/>
      <point x="501,875" y="581,984"/>
      <point x="510" y="580,312" type="curve" smooth="yes"/>
      <point x="514,672" y="579,344"/>
      <point x="515,109" y="576,062"/>
      <point x="515" y="575" type="curve" smooth="yes"/>
      <point x="514,875" y="573,781"/>
      <point x="515,016" y="574,141"/>
      <point x="514,609" y="573" type="curve" smooth="yes"/>
      <point x="511,875" y="565,406"/>
      <point x="458,578" y="438,578"/>
      <point x="393,609" y="285,047" type="curve" smooth="yes"/>
      <point x="315,078" y="99,5156"/>
      <point x="277,125" y="6,17188"/>
      <point x="272,656" y="-2,90625" type="curve" smooth="yes"/>
      <point x="272,484" y="-3,25"/>
      <point x="272,281" y="-3,59375"/>
      <point x="272,031" y="-3,95312" type="curve" smooth="yes"/>
      <point x="271,5" y="-4,76562"/>
      <point x="270,562" y="-6,0625"/>
      <point x="268,578" y="-7,09375" type="curve" smooth="yes"/>
      <point x="265,422" y="-8,73438"/>
      <point x="260,625" y="-8,98438"/>
      <point x="256,75" y="-8,98438" type="curve" smooth="yes"/>
      <point x="246,5" y="-7,96875" type="line"/>
      <point x="243,562" y="-7,6875" type="line"/>
      <point x="119,406" y="281,031" type="line" smooth="yes"/>
      <point x="63,6875" y="411,594"/>
      <point x="-2,40625" y="566,328"/>
    </contour>
    <contour>
      <point x="394" y="187" type="line"/>
      <point x="384" y="187" type="line"/>
      <point x="384" y="287" type="line"/>
      <point x="394" y="287" type="line"/>
    </contour>
    <contour>
      <point x="273" y="-101" type="line"/>
      <point x="263" y="-101" type="line"/>
      <point x="263" y="-1" type="line"/>
      <point x="273" y="-1" type="line"/>
    </contour>
    <contour>
      <point x="262" y="-104" type="line"/>
      <point x="252" y="-104" type="line"/>
      <point x="252" y="-4" type="line"/>
      <point x="262" y="-4" type="line"/>
    </contour>
    <contour>
      <point x="252" y="-103" type="line"/>
      <point x="242" y="-103" type="line"/>
      <point x="242" y="-3" type="line"/>
      <point x="252" y="-3" type="line"/>
    </contour>
    <contour>
      <point x="129" y="184,031" type="line"/>
      <point x="250,438" y="-98,3125" type="line"/>
      <point x="257,25" y="-99,0156" type="line" smooth="yes"/>
      <point x="260,766" y="-98,9219"/>
      <point x="262,766" y="-98,8125"/>
      <point x="263,922" y="-98,2188" type="curve" smooth="yes"/>
      <point x="264" y="-98,1719"/>
      <point x="263,531" y="-98,7656"/>
      <point x="263,531" y="-98,7656" type="curve" smooth="yes"/>
      <point x="263,891" y="-98,0312" type="line"/>
      <point x="264,469" y="-97,4688" type="line" smooth="yes"/>
      <point x="264,469" y="-97,4688"/>
      <point x="263,547" y="-98,7656"/>
      <point x="263,688" y="-98,4844" type="curve" smooth="yes"/>
      <point x="266,828" y="-92,0938"/>
      <point x="319,656" y="36,125"/>
      <point x="384,391" y="188,953" type="curve" smooth="yes"/>
      <point x="450,828" y="345,781"/>
      <point x="502,328" y="468,453"/>
      <point x="505,203" y="476,391" type="curve" smooth="yes"/>
      <point x="505,328" y="476,766"/>
      <point x="505" y="475"/>
      <point x="505" y="475" type="curve" smooth="yes"/>
      <point x="505" y="575" type="line"/>
      <point x="515" y="575" type="line"/>
      <point x="515" y="475" type="line" smooth="yes"/>
      <point x="515" y="474,203"/>
      <point x="514,812" y="473,562"/>
      <point x="514,609" y="473" type="curve" smooth="yes"/>
      <point x="511,359" y="463,984"/>
      <point x="447,969" y="313,484"/>
      <point x="393,609" y="185,047" type="curve" smooth="yes"/>
      <point x="328,766" y="31,8594"/>
      <point x="276,453" y="-95,1875"/>
      <point x="272,656" y="-102,906" type="curve" smooth="yes"/>
      <point x="272,516" y="-103,203"/>
      <point x="272,391" y="-103,391"/>
      <point x="272,312" y="-103,547" type="curve" smooth="yes"/>
      <point x="271,75" y="-104,516"/>
      <point x="270,656" y="-106,016"/>
      <point x="268,578" y="-107,094" type="curve" smooth="yes"/>
      <point x="264,625" y="-109,156"/>
      <point x="257,953" y="-109,062"/>
      <point x="256,75" y="-108,984" type="curve" smooth="yes"/>
      <point x="253,406" y="-108,766"/>
      <point x="249,844" y="-108,312"/>
      <point x="246,5" y="-107,969" type="curve" smooth="yes"/>
      <point x="243,562" y="-107,688" type="line"/>
      <point x="242,406" y="-104,969" type="line" smooth="yes"/>
      <point x="201,406" y="-9,64062"/>
      <point x="160,406" y="85,6875"/>
      <point x="119,406" y="181,031" type="curve" smooth="yes"/>
      <point x="119" y="181,969" type="line"/>
      <point x="119" y="183" type="line" smooth="yes"/>
      <point x="119" y="283" type="line"/>
      <point x="129" y="283" type="line"/>
    </contour>
  </outline>
</glyph>
<glyph name="uni0057" format="1">
  <advance width="823"/>
  <unicode hex="0057"/>
  <outline>
    <contour>
      <point x="-4,64062" y="572,141" type="line"/>
      <point x="-4,3125" y="580,219" type="line"/>
      <point x="-0,265625" y="579" type="line" smooth="yes"/>
      <point x="-0,21875" y="579"/>
      <point x="18,8594" y="580"/>
      <point x="41" y="580" type="curve" smooth="yes"/>
      <point x="86,3906" y="580" type="line"/>
      <point x="166,641" y="378,859" type="line" smooth="yes"/>
      <point x="206,844" y="278,391"/>
      <point x="230,234" y="221,297"/>
      <point x="241,75" y="195,5" type="curve"/>
      <point x="395,609" y="580" type="line"/>
      <point x="482,375" y="580" type="line"/>
      <point x="562,641" y="380,875" type="line"/>
      <point x="637,922" y="195,312" type="line"/>
      <point x="642,859" y="206,609"/>
      <point x="653,5" y="231,703"/>
      <point x="679,344" y="296,844" type="curve" smooth="yes"/>
      <point x="757,359" y="493,844" type="line"/>
      <point x="791,609" y="580" type="line"/>
      <point x="828" y="580" type="line"/>
      <point x="828" y="438,031" type="line"/>
      <point x="648,375" y="-6" type="line"/>
      <point x="622,625" y="-6" type="line"/>
      <point x="527,359" y="230,141" type="line" smooth="yes"/>
      <point x="474,812" y="360,375"/>
      <point x="447,875" y="428,531"/>
      <point x="437,938" y="449,703" type="curve"/>
      <point x="346,625" y="225,125" type="line"/>
      <point x="253,375" y="-6" type="line"/>
      <point x="226,625" y="-6" type="line"/>
      <point x="110,359" y="284,141" type="line"/>
    </contour>
    <contour>
      <point x="246,578" y="181" type="line"/>
    </contour>
    <contour>
      <point x="739" y="119" type="line"/>
      <point x="729" y="119" type="line"/>
      <point x="729" y="219" type="line"/>
      <point x="739" y="219" type="line"/>
    </contour>
    <contour>
      <point x="650" y="-101" type="line"/>
      <point x="640" y="-101" type="line"/>
      <point x="640" y="-1" type="line"/>
      <point x="650" y="-1" type="line"/>
    </contour>
    <contour>
      <point x="641" y="-101" type="line"/>
      <point x="631" y="-101" type="line"/>
      <point x="631" y="-1" type="line"/>
      <point x="641" y="-1" type="line"/>
    </contour>
    <contour>
      <point x="631" y="-101" type="line"/>
      <point x="621" y="-101" type="line"/>
      <point x="621" y="-1" type="line"/>
      <point x="631" y="-1" type="line"/>
    </contour>
    <contour>
      <point x="537" y="132" type="line"/>
      <point x="527" y="132" type="line"/>
      <point x="527" y="232" type="line"/>
      <point x="537" y="232" type="line"/>
    </contour>
    <contour>
      <point x="442" y="360" type="line"/>
      <point x="432" y="360" type="line"/>
      <point x="432" y="460" type="line"/>
      <point x="442" y="460" type="line"/>
    </contour>
    <contour>
      <point x="347" y="127" type="line"/>
      <point x="337" y="127" type="line"/>
      <point x="337" y="227" type="line"/>
      <point x="347" y="227" type="line"/>
    </contour>
    <contour>
      <point x="255" y="-101" type="line"/>
      <point x="245" y="-101" type="line"/>
      <point x="245" y="-1" type="line"/>
      <point x="255" y="-1" type="line"/>
    </contour>
    <contour>
      <point x="245" y="-101" type="line"/>
      <point x="235" y="-101" type="line"/>
      <point x="235" y="-1" type="line"/>
      <point x="245" y="-1" type="line"/>
    </contour>
    <contour>
      <point x="235" y="-101" type="line"/>
      <point x="225" y="-101" type="line"/>
      <point x="225" y="-1" type="line"/>
      <point x="235" y="-1" type="line"/>
    </contour>
    <contour>
      <point x="120" y="186" type="line"/>
      <point x="110" y="186" type="line"/>
      <point x="110" y="286" type="line"/>
      <point x="120" y="286" type="line"/>
    </contour>
    <contour>
      <point x="5" y="474,969" type="line"/>
      <point x="119,641" y="187,859" type="line"/>
      <point x="233,375" y="-96" type="line"/>
      <point x="246,625" y="-96" type="line"/>
      <point x="337,375" y="128,875" type="line" smooth="yes"/>
      <point x="411,016" y="309,422"/>
      <point x="429,641" y="356,766"/>
      <point x="432,453" y="362,125" type="curve" smooth="yes"/>
      <point x="432,547" y="362,297"/>
      <point x="432,531" y="362,25"/>
      <point x="432,688" y="362,5" type="curve" smooth="yes"/>
      <point x="432,781" y="362,688"/>
      <point x="437,219" y="365,297"/>
      <point x="437,359" y="365,281" type="curve" smooth="yes"/>
      <point x="439,078" y="365,125"/>
      <point x="440,812" y="364,766"/>
      <point x="442,828" y="361,844" type="curve" smooth="yes"/>
      <point x="449,594" y="351,953"/>
      <point x="478,203" y="279,953"/>
      <point x="536,641" y="133,859" type="curve" smooth="yes"/>
      <point x="629,375" y="-96" type="line"/>
      <point x="641,625" y="-96" type="line"/>
      <point x="818" y="339,969" type="line"/>
      <point x="818" y="439" type="line"/>
      <point x="828" y="439" type="line"/>
      <point x="828" y="339" type="line" smooth="yes"/>
      <point x="828" y="338,031" type="line"/>
      <point x="827,641" y="337,125" type="line" smooth="yes"/>
      <point x="797,969" y="263,797"/>
      <point x="768,297" y="190,453"/>
      <point x="738,641" y="117,125" type="curve" smooth="yes"/>
      <point x="708,969" y="43,7969"/>
      <point x="679,297" y="-29,5469"/>
      <point x="649,641" y="-102,875" type="curve" smooth="yes"/>
      <point x="648,375" y="-106" type="line"/>
      <point x="636" y="-106" type="line" smooth="yes"/>
      <point x="626" y="-106" type="line" smooth="yes"/>
      <point x="622,625" y="-106" type="line"/>
      <point x="621,359" y="-102,875" type="line" smooth="yes"/>
      <point x="590,031" y="-25,2031"/>
      <point x="558,531" y="52,4062"/>
      <point x="527,359" y="130,141" type="curve" smooth="yes"/>
      <point x="451,219" y="320"/>
      <point x="439,062" y="349,625"/>
      <point x="434,578" y="356,172" type="curve" smooth="yes"/>
      <point x="433,859" y="357,219"/>
      <point x="437,359" y="355,281"/>
      <point x="437,359" y="355,281" type="curve" smooth="yes"/>
      <point x="437,219" y="355,281"/>
      <point x="441,562" y="357,953"/>
      <point x="441,469" y="357,766" type="curve" smooth="yes"/>
      <point x="441,328" y="357,484" type="line"/>
      <point x="441,156" y="357,219" type="line" smooth="yes"/>
      <point x="441,312" y="357,453" type="line" smooth="yes"/>
      <point x="438,016" y="351,219"/>
      <point x="398,031" y="251,625"/>
      <point x="346,625" y="125,125" type="curve" smooth="yes"/>
      <point x="315,781" y="49,1875"/>
      <point x="285,297" y="-26,875"/>
      <point x="254,641" y="-102,875" type="curve" smooth="yes"/>
      <point x="253,375" y="-106" type="line"/>
      <point x="250" y="-106" type="line" smooth="yes"/>
      <point x="240" y="-106" type="line" smooth="yes"/>
      <point x="230" y="-106" type="line" smooth="yes"/>
      <point x="226,625" y="-106" type="line"/>
      <point x="225,359" y="-102,859" type="line" smooth="yes"/>
      <point x="187,031" y="-7,1875"/>
      <point x="148,625" y="88,4531"/>
      <point x="110,359" y="184,141" type="curve" smooth="yes"/>
      <point x="71,9688" y="280,125"/>
      <point x="33,6875" y="376,141"/>
      <point x="-4,64062" y="472,141" type="curve" smooth="yes"/>
      <point x="-5" y="473,031" type="line"/>
      <point x="-5" y="474" type="line" smooth="yes"/>
      <point x="-5" y="574" type="line"/>
      <point x="5" y="574" type="line"/>
    </contour>
  </outline>
</glyph>
<glyph name="uni0058" format="1">
  <advance width="740"/>
  <unicode hex="0058"/>
  <outline>
    <contour>
      <point x="156" y="574,734" type="curve" smooth="yes"/>
      <point x="156" y="574,875"/>
      <point x="155,906" y="575"/>
      <point x="155,969" y="575,078" type="curve" smooth="yes"/>
      <point x="158,297" y="577,781"/>
      <point x="156,375" y="579,516"/>
      <point x="161,141" y="580,391" type="curve" smooth="yes"/>
      <point x="166,688" y="581,422"/>
      <point x="188,828" y="582"/>
      <point x="211" y="582" type="curve" smooth="yes"/>
      <point x="265,375" y="582" type="line"/>
      <point x="355,859" y="471,188" type="line"/>
      <point x="442,031" y="367,766" type="line"/>
      <point x="528,125" y="472,156" type="line"/>
      <point x="617,625" y="582" type="line"/>
      <point x="671" y="582" type="line" smooth="yes"/>
      <point x="691,047" y="581,969"/>
      <point x="716,328" y="581,219"/>
      <point x="721,125" y="580,25" type="curve" smooth="yes"/>
      <point x="725,688" y="579,328"/>
      <point x="726,203" y="576,031"/>
      <point x="726" y="575" type="curve" smooth="yes"/>
      <point x="725,594" y="572,984"/>
      <point x="726" y="573,391"/>
      <point x="724,875" y="571,766" type="curve" smooth="yes"/>
      <point x="720,562" y="565,5"/>
      <point x="671,766" y="505,828"/>
      <point x="611,859" y="432,828" type="curve" smooth="yes"/>
      <point x="565,578" y="376,422"/>
      <point x="511,766" y="310,734"/>
      <point x="501,906" y="297,078" type="curve"/>
      <point x="510,375" y="285,516"/>
      <point x="551,094" y="235,734"/>
      <point x="620,859" y="151,188" type="curve" smooth="yes"/>
      <point x="748,469" y="-2,78125" type="line"/>
      <point x="689,047" y="-4" type="line"/>
      <point x="635,812" y="-4" type="line"/>
      <point x="634,766" y="-3,46875" type="line" smooth="yes"/>
      <point x="634,266" y="-3,15625"/>
      <point x="634,016" y="-3,10938"/>
      <point x="633,156" y="-2,3125" type="curve" smooth="yes"/>
      <point x="628,531" y="2,04688"/>
      <point x="599,453" y="37,4375"/>
      <point x="549,141" y="97,8125" type="curve" smooth="yes"/>
      <point x="453,141" y="214,812" type="line"/>
      <point x="442" y="228,188" type="line"/>
      <point x="248,344" y="-5" type="line"/>
      <point x="194" y="-5" type="line" smooth="yes"/>
      <point x="165,891" y="-5"/>
      <point x="142,828" y="-4"/>
      <point x="142,781" y="-4" type="curve" smooth="yes"/>
      <point x="138" y="1" type="line"/>
      <point x="138,422" y="2,34375"/>
      <point x="137,812" y="2,375"/>
      <point x="139,188" y="4,32812" type="curve" smooth="yes"/>
      <point x="143,922" y="11,0781"/>
      <point x="196,953" y="75,25"/>
      <point x="262,172" y="153,203" type="curve" smooth="yes"/>
      <point x="361,328" y="271,766"/>
      <point x="378,938" y="294,25"/>
      <point x="380,875" y="300,109" type="curve"/>
      <point x="374,594" y="307,328"/>
      <point x="315,359" y="379,844"/>
      <point x="268,156" y="436,812" type="curve" smooth="yes"/>
      <point x="218,531" y="496,672"/>
      <point x="162,234" y="564,344"/>
      <point x="157,125" y="571,75" type="curve" smooth="yes"/>
      <point x="156,766" y="572,266"/>
      <point x="156,109" y="573,25"/>
    </contour>
    <contour>
      <point x="3,85938" y="440,781" type="curve" smooth="yes"/>
      <point x="-0,046875" y="444,031"/>
      <point x="-0,671875" y="441,297"/>
      <point x="-1,40625" y="446,062" type="curve" smooth="yes"/>
      <point x="-2,39062" y="452,406"/>
      <point x="-3" y="482,781"/>
      <point x="-3" y="508" type="curve" smooth="yes"/>
      <point x="-3" y="580" type="line"/>
      <point x="28" y="580" type="line" smooth="yes"/>
      <point x="36,1406" y="579,953"/>
      <point x="50,0938" y="579,688"/>
      <point x="55,2969" y="578,328" type="curve" smooth="yes"/>
      <point x="57,5781" y="577,75"/>
      <point x="60,0938" y="576,203"/>
      <point x="60" y="573" type="curve" smooth="yes"/>
      <point x="59,9688" y="572,203"/>
      <point x="60,0156" y="572,266"/>
      <point x="59,7188" y="571,25" type="curve" smooth="yes"/>
      <point x="57,5938" y="563,875"/>
      <point x="25,2656" y="485,375"/>
      <point x="8,6875" y="444,266" type="curve" smooth="yes"/>
      <point x="8,3125" y="443,344"/>
      <point x="4,60938" y="440,156"/>
    </contour>
    <contour>
      <point x="390" y="297,141" type="line"/>
      <point x="380" y="297,141" type="line"/>
      <point x="380" y="303" type="line"/>
      <point x="390" y="303" type="line"/>
    </contour>
    <contour>
      <point x="613" y="336" type="line"/>
      <point x="603" y="336" type="line"/>
      <point x="603" y="436" type="line"/>
      <point x="613" y="436" type="line"/>
    </contour>
    <contour>
      <point x="694" y="-99" type="line"/>
      <point x="684" y="-99" type="line"/>
      <point x="684" y="1" type="line"/>
      <point x="694" y="1" type="line"/>
    </contour>
    <contour>
      <point x="642" y="-99" type="line"/>
      <point x="632" y="-99" type="line"/>
      <point x="632" y="1" type="line"/>
      <point x="642" y="1" type="line"/>
    </contour>
    <contour>
      <point x="558" y="1" type="line"/>
      <point x="548" y="1" type="line"/>
      <point x="548" y="101" type="line"/>
      <point x="558" y="101" type="line"/>
    </contour>
    <contour>
      <point x="462" y="118" type="line"/>
      <point x="452" y="118" type="line"/>
      <point x="452" y="218" type="line"/>
      <point x="462" y="218" type="line"/>
    </contour>
    <contour>
      <point x="447" y="136" type="line"/>
      <point x="437" y="136" type="line"/>
      <point x="437" y="236" type="line"/>
      <point x="447" y="236" type="line"/>
    </contour>
    <contour>
      <point x="349" y="18" type="line"/>
      <point x="339" y="18" type="line"/>
      <point x="339" y="118" type="line"/>
      <point x="349" y="118" type="line"/>
    </contour>
    <contour>
      <point x="251" y="-100" type="line"/>
      <point x="241" y="-100" type="line"/>
      <point x="241" y="0" type="line"/>
      <point x="251" y="0" type="line"/>
    </contour>
    <contour>
      <point x="199" y="-100" type="line"/>
      <point x="189" y="-100" type="line"/>
      <point x="189" y="0" type="line"/>
      <point x="199" y="0" type="line"/>
    </contour>
    <contour>
      <point x="148" y="-94,1875" type="line"/>
      <point x="159" y="-94,5938"/>
      <point x="176,5" y="-95"/>
      <point x="194" y="-95" type="curve" smooth="yes"/>
      <point x="243,656" y="-95" type="line"/>
      <point x="340,156" y="21,1875" type="line" smooth="yes"/>
      <point x="372,812" y="60,5312"/>
      <point x="405,484" y="99,8594"/>
      <point x="438,156" y="139,188" type="curve" smooth="yes"/>
      <point x="442" y="143,812" type="line"/>
      <point x="445,844" y="139,203" type="line" smooth="yes"/>
      <point x="450,844" y="133,203"/>
      <point x="455,891" y="127,219"/>
      <point x="460,859" y="121,188" type="curve" smooth="yes"/>
      <point x="492,891" y="82,2188"/>
      <point x="524,703" y="43,0625"/>
      <point x="556,859" y="4,1875" type="curve" smooth="yes"/>
      <point x="591,859" y="-38,1406"/>
      <point x="631,156" y="-85,5312"/>
      <point x="639,031" y="-94" type="curve"/>
      <point x="688,953" y="-94" type="line"/>
      <point x="733" y="-93,0938" type="line"/>
      <point x="733" y="2" type="line"/>
      <point x="743" y="2" type="line"/>
      <point x="743" y="-98" type="line" smooth="yes"/>
      <point x="743" y="-102,906" type="line"/>
      <point x="738,094" y="-103" type="line" smooth="yes"/>
      <point x="721,766" y="-103,328"/>
      <point x="705,391" y="-103,844"/>
      <point x="689,047" y="-104" type="curve" smooth="yes"/>
      <point x="671,719" y="-104,172"/>
      <point x="654,328" y="-104"/>
      <point x="637" y="-104" type="curve" smooth="yes"/>
      <point x="635,812" y="-104" type="line"/>
      <point x="634,766" y="-103,469" type="line" smooth="yes"/>
      <point x="634,359" y="-103,266"/>
      <point x="633,891" y="-103"/>
      <point x="633,156" y="-102,312" type="curve" smooth="yes"/>
      <point x="628,531" y="-97,9531"/>
      <point x="599,281" y="-62,7188"/>
      <point x="549,141" y="-2,1875" type="curve" smooth="yes"/>
      <point x="516,969" y="36,6719"/>
      <point x="485,141" y="75,8125"/>
      <point x="453,141" y="114,812" type="curve" smooth="yes"/>
      <point x="442" y="128,188" type="line"/>
      <point x="347,844" y="14,8125" type="line" smooth="yes"/>
      <point x="315,188" y="-24,5312"/>
      <point x="282,516" y="-63,8594"/>
      <point x="249,844" y="-103,188" type="curve" smooth="yes"/>
      <point x="248,344" y="-105" type="line"/>
      <point x="246" y="-105" type="line" smooth="yes"/>
      <point x="194" y="-105" type="line" smooth="yes"/>
      <point x="165,891" y="-105"/>
      <point x="142,828" y="-104"/>
      <point x="142,781" y="-104" type="curve" smooth="yes"/>
      <point x="140,391" y="-106,5" type="line"/>
      <point x="138" y="-99" type="line"/>
      <point x="138" y="1" type="line"/>
      <point x="148" y="1" type="line"/>
    </contour>
    <contour>
      <point x="604,125" y="339,172" type="line" smooth="yes"/>
      <point x="654,625" y="401,062"/>
      <point x="712,578" y="471,547"/>
      <point x="716,641" y="477,438" type="curve" smooth="yes"/>
      <point x="716,875" y="477,781"/>
      <point x="716" y="475"/>
      <point x="716" y="475" type="curve" smooth="yes"/>
      <point x="716" y="575" type="line"/>
      <point x="726" y="575" type="line"/>
      <point x="726" y="475" type="line" smooth="yes"/>
      <point x="726" y="473,375"/>
      <point x="725,25" y="472,312"/>
      <point x="724,875" y="471,766" type="curve" smooth="yes"/>
      <point x="719,781" y="464,375"/>
      <point x="662,578" y="395"/>
      <point x="611,875" y="332,828" type="curve" smooth="yes"/>
      <point x="539,188" y="244,172" type="line"/>
      <point x="531,453" y="250,516" type="line"/>
    </contour>
    <contour>
      <point x="277" y="341,797" type="line"/>
      <point x="351,406" y="251,328" type="line"/>
      <point x="343,688" y="244,984" type="line"/>
      <point x="267" y="338,203" type="line"/>
      <point x="267" y="340" type="line" smooth="yes"/>
      <point x="267" y="440" type="line"/>
      <point x="277" y="440" type="line"/>
    </contour>
    <contour>
      <point x="9" y="371,594" type="line"/>
      <point x="24,8125" y="410,469"/>
      <point x="48,7188" y="469,219"/>
      <point x="50,1094" y="474,031" type="curve" smooth="yes"/>
      <point x="50,1406" y="474,125"/>
      <point x="50" y="473"/>
      <point x="50" y="473" type="curve"/>
      <point x="50" y="573" type="line"/>
      <point x="60" y="573" type="line"/>
      <point x="60" y="473" type="line" smooth="yes"/>
      <point x="60" y="472,422"/>
      <point x="59,9219" y="471,922"/>
      <point x="59,7188" y="471,25" type="curve" smooth="yes"/>
      <point x="57,8594" y="464,812"/>
      <point x="44,6094" y="432,953"/>
      <point x="8,64062" y="344,125" type="curve" smooth="yes"/>
      <point x="7,6875" y="341,797"/>
      <point x="5,5" y="340,609"/>
      <point x="3,04688" y="341,094" type="curve" smooth="yes"/>
      <point x="0,578125" y="341,562"/>
      <point x="-1" y="343,5"/>
      <point x="-1" y="346" type="curve" smooth="yes"/>
      <point x="-1" y="446" type="line"/>
      <point x="9" y="446" type="line"/>
    </contour>
  </outline>
</glyph>
<glyph name="uni005F" format="1">
  <advance width="467"/>
  <unicode hex="005F"/>
  <outline>
    <contour>
      <point x="-12" y="-167" type="line"/>
      <point x="234" y="-167" type="line"/>
      <point x="481" y="-167" type="line"/>
      <point x="481" y="-139" type="line"/>
      <point x="481" y="-112" type="line"/>
      <point x="234" y="-112" type="line"/>
      <point x="-12" y="-112" type="line"/>
      <point x="-12" y="-139" type="line"/>
    </contour>
  </outline>
</glyph>
<glyph name="uni0062" format="1">
  <advance width="422"/>
  <unicode hex="0062"/>
  <outline>
    <contour>
      <point x="45" y="16,5312" type="line"/>
      <point x="45" y="582" type="line"/>
      <point x="132" y="582" type="line"/>
      <point x="132" y="363,328" type="line"/>
      <point x="139,562" y="367,359" type="line"/>
      <point x="168,109" y="384,109"/>
      <point x="199,281" y="392,094"/>
      <point x="229,688" y="392,094" type="curve" smooth="yes"/>
      <point x="281,375" y="392,094"/>
      <point x="330,734" y="368,859"/>
      <point x="360,125" y="325,812" type="curve" smooth="yes"/>
      <point x="385,484" y="288,703"/>
      <point x="397,984" y="241,344"/>
      <point x="397,984" y="194,453" type="curve" smooth="yes"/>
      <point x="397,984" y="142,594"/>
      <point x="382,797" y="91,1875"/>
      <point x="351,859" y="54,8281" type="curve"/>
      <point x="327,781" y="24,4688"/>
      <point x="284,875" y="2,25"/>
      <point x="236,016" y="-7,89062" type="curve" smooth="yes"/>
      <point x="224,344" y="-10,3125"/>
      <point x="210,062" y="-11,3438"/>
      <point x="194,422" y="-11,3438" type="curve" smooth="yes"/>
      <point x="148,406" y="-11,3438"/>
      <point x="90,8125" y="-2,28125"/>
      <point x="56,1562" y="12,3594" type="curve"/>
    </contour>
    <contour>
      <point x="294,516" y="126,203" type="curve" smooth="yes"/>
      <point x="305,172" y="147,891"/>
      <point x="310,188" y="171,125"/>
      <point x="310,188" y="193,547" type="curve" smooth="yes"/>
      <point x="310,188" y="248,422"/>
      <point x="280,672" y="297,656"/>
      <point x="233,969" y="308,109" type="curve" smooth="yes"/>
      <point x="226,844" y="309,703"/>
      <point x="219,875" y="310,188"/>
      <point x="212,922" y="310,188" type="curve" smooth="yes"/>
      <point x="191" y="310,188"/>
      <point x="169,516" y="303,156"/>
      <point x="145,797" y="286,859" type="curve" smooth="yes"/>
      <point x="132,969" y="278,312" type="line"/>
      <point x="132" y="177,969" type="line"/>
      <point x="132" y="79,9531" type="line"/>
      <point x="145,094" y="76,875" type="line" smooth="yes"/>
      <point x="164,141" y="72,7812"/>
      <point x="181,391" y="70,7812"/>
      <point x="196,969" y="70,7812" type="curve" smooth="yes"/>
      <point x="255,5" y="70,7812"/>
      <point x="281,375" y="99,5"/>
    </contour>
    <contour>
      <point x="240" y="213" type="line"/>
      <point x="230" y="213" type="line"/>
      <point x="230" y="313" type="line"/>
      <point x="240" y="313" type="line"/>
    </contour>
    <contour>
      <point x="148" y="191" type="line"/>
      <point x="138" y="191" type="line"/>
      <point x="138" y="291" type="line"/>
      <point x="148" y="291" type="line"/>
    </contour>
    <contour>
      <point x="353" y="-42" type="line"/>
      <point x="343" y="-42" type="line"/>
      <point x="343" y="58" type="line"/>
      <point x="353" y="58" type="line"/>
    </contour>
    <contour>
      <point x="240" y="-103" type="line"/>
      <point x="230" y="-103" type="line"/>
      <point x="230" y="-3" type="line"/>
      <point x="240" y="-3" type="line"/>
    </contour>
    <contour>
      <point x="63" y="-83" type="line"/>
      <point x="53" y="-83" type="line"/>
      <point x="53" y="17" type="line"/>
      <point x="63" y="17" type="line"/>
    </contour>
    <contour>
      <point x="55" y="-76,5312" type="line"/>
      <point x="59,8438" y="-78,3594" type="line"/>
      <point x="92,3438" y="-92,0781"/>
      <point x="149,797" y="-101,344"/>
      <point x="194,422" y="-101,344" type="curve" smooth="yes"/>
      <point x="209,594" y="-101,344"/>
      <point x="223,328" y="-100,312"/>
      <point x="233,984" y="-98,1094" type="curve" smooth="yes"/>
      <point x="281,141" y="-88,3125"/>
      <point x="322,219" y="-66,4688"/>
      <point x="344,141" y="-38,8281" type="curve"/>
      <point x="373,078" y="-4,8125"/>
      <point x="387,984" y="44,5156"/>
      <point x="387,984" y="94,4531" type="curve" smooth="yes"/>
      <point x="387,984" y="194,453" type="line"/>
      <point x="397,984" y="194,453" type="line"/>
      <point x="397,984" y="94,4531" type="line" smooth="yes"/>
      <point x="397,984" y="42,5938"/>
      <point x="382,797" y="-8,8125"/>
      <point x="351,859" y="-45,1719" type="curve"/>
      <point x="327,781" y="-75,5312"/>
      <point x="284,875" y="-97,75"/>
      <point x="236,016" y="-107,891" type="curve" smooth="yes"/>
      <point x="224,344" y="-110,312"/>
      <point x="210,062" y="-111,344"/>
      <point x="194,422" y="-111,344" type="curve" smooth="yes"/>
      <point x="148,406" y="-111,344"/>
      <point x="90,8594" y="-102,172"/>
      <point x="56,1562" y="-87,6406" type="curve" smooth="yes"/>
      <point x="53,5156" y="-86,5469"/>
      <point x="50,9062" y="-85,6875"/>
      <point x="48,25" y="-84,6875" type="curve" smooth="yes"/>
      <point x="45" y="-83,4688" type="line"/>
      <point x="45" y="-80" type="line" smooth="yes"/>
      <point x="45" y="20" type="line"/>
      <point x="55" y="20" type="line"/>
    </contour>
    <contour>
      <point x="133" y="190,344" type="line"/>
      <point x="140,203" y="195,141" type="line" smooth="yes"/>
      <point x="165,109" y="212,266"/>
      <point x="188,781" y="220,188"/>
      <point x="212,922" y="220,188" type="curve" smooth="yes"/>
      <point x="220,562" y="220,188"/>
      <point x="228,344" y="219,609"/>
      <point x="236,031" y="217,891" type="curve" smooth="yes"/>
      <point x="272,516" y="209,781"/>
      <point x="298,969" y="180,766"/>
      <point x="311,625" y="144,766" type="curve"/>
      <point x="302,188" y="141,453" type="line"/>
      <point x="290,375" y="175,047"/>
      <point x="266,422" y="200,891"/>
      <point x="233,969" y="208,109" type="curve" smooth="yes"/>
      <point x="226,844" y="209,688"/>
      <point x="219,875" y="210,188"/>
      <point x="212,922" y="210,188" type="curve" smooth="yes"/>
      <point x="191" y="210,188"/>
      <point x="169,547" y="203,094"/>
      <point x="145,797" y="186,859" type="curve" smooth="yes"/>
      <point x="140,844" y="183,469"/>
      <point x="135,781" y="180,172"/>
      <point x="130,781" y="176,844" type="curve" smooth="yes"/>
      <point x="123" y="171,656" type="line"/>
      <point x="123" y="181" type="line" smooth="yes"/>
      <point x="123" y="281" type="line"/>
      <point x="133" y="281" type="line"/>
    </contour>
  </outline>
</glyph>
<glyph name="uni0064" format="1">
  <advance width="431"/>
  <unicode hex="0064"/>
  <outline>
    <contour>
      <point x="299,875" y="380,516" type="curve"/>
      <point x="300,812" y="387,125"/>
      <point x="301" y="404,422"/>
      <point x="301" y="475" type="curve" smooth="yes"/>
      <point x="301" y="582" type="line"/>
      <point x="388" y="582" type="line"/>
      <point x="388" y="-5,04688" type="line"/>
      <point x="283,953" y="-4" type="line" smooth="yes"/>
      <point x="190,203" y="-3"/>
      <point x="184,562" y="-2,70312"/>
      <point x="166,656" y="2,1875" type="curve" smooth="yes"/>
      <point x="127,688" y="12,8125"/>
      <point x="91,2656" y="35,9062"/>
      <point x="72,9062" y="62,1406" type="curve" smooth="yes"/>
      <point x="45,9219" y="100,672"/>
      <point x="32,0781" y="147,812"/>
      <point x="32,0781" y="194,5" type="curve" smooth="yes"/>
      <point x="32,0781" y="244,156"/>
      <point x="47,4688" y="293"/>
      <point x="78,1875" y="329,234" type="curve" smooth="yes"/>
      <point x="112,375" y="369,562"/>
      <point x="169,812" y="392,625"/>
      <point x="227,094" y="392,625" type="curve" smooth="yes"/>
      <point x="244,734" y="392,625"/>
      <point x="262,484" y="390,562"/>
      <point x="279,375" y="385,812" type="curve" smooth="yes"/>
      <point x="287,578" y="383,5"/>
      <point x="295,297" y="381,734"/>
    </contour>
    <contour>
      <point x="290,281" y="304,312" type="line" smooth="yes"/>
      <point x="282,672" y="307,156"/>
      <point x="268,594" y="311,156"/>
      <point x="259,891" y="313,125" type="curve" smooth="yes"/>
      <point x="250,641" y="315,219"/>
      <point x="242,312" y="316,328"/>
      <point x="234,078" y="316,328" type="curve" smooth="yes"/>
      <point x="219,891" y="316,328"/>
      <point x="205,828" y="313,172"/>
      <point x="187,781" y="306,328" type="curve" smooth="yes"/>
      <point x="144,016" y="289,719"/>
      <point x="119,938" y="237,922"/>
      <point x="119,938" y="186,453" type="curve" smooth="yes"/>
      <point x="119,938" y="141,75"/>
      <point x="137,984" y="98,7656"/>
      <point x="174,25" y="80,4688" type="curve" smooth="yes"/>
      <point x="186,688" y="74,1875"/>
      <point x="209,156" y="71"/>
      <point x="261" y="71" type="curve" smooth="yes"/>
      <point x="301" y="71" type="line"/>
      <point x="301" y="300,469" type="line"/>
    </contour>
    <contour>
      <point x="297" y="209" type="line"/>
      <point x="287" y="209" type="line"/>
      <point x="287" y="309" type="line"/>
      <point x="297" y="309" type="line"/>
    </contour>
    <contour>
      <point x="266" y="218" type="line"/>
      <point x="256" y="218" type="line"/>
      <point x="256" y="318" type="line"/>
      <point x="266" y="318" type="line"/>
    </contour>
    <contour>
      <point x="191" y="211" type="line"/>
      <point x="181" y="211" type="line"/>
      <point x="181" y="311" type="line"/>
      <point x="191" y="311" type="line"/>
    </contour>
    <contour>
      <point x="289" y="-99" type="line"/>
      <point x="279" y="-99" type="line"/>
      <point x="279" y="1" type="line"/>
      <point x="289" y="1" type="line"/>
    </contour>
    <contour>
      <point x="173" y="-93" type="line"/>
      <point x="163" y="-93" type="line"/>
      <point x="163" y="7" type="line"/>
      <point x="173" y="7" type="line"/>
    </contour>
    <contour>
      <point x="82" y="-35" type="line"/>
      <point x="72" y="-35" type="line"/>
      <point x="72" y="65" type="line"/>
      <point x="82" y="65" type="line"/>
    </contour>
    <contour>
      <point x="42,0781" y="94,5" type="line" smooth="yes"/>
      <point x="42,0781" y="49,7344"/>
      <point x="55,4688" y="4,4375"/>
      <point x="81,0938" y="-32,1406" type="curve" smooth="yes"/>
      <point x="97,4219" y="-55,4219"/>
      <point x="132,5" y="-78,1406"/>
      <point x="169,344" y="-88,1875" type="curve" smooth="yes"/>
      <point x="185,625" y="-92,625"/>
      <point x="189,797" y="-93"/>
      <point x="284,047" y="-94" type="curve" smooth="yes"/>
      <point x="378" y="-94,9531" type="line"/>
      <point x="378" y="0" type="line"/>
      <point x="388" y="0" type="line"/>
      <point x="388" y="-100" type="line" smooth="yes"/>
      <point x="388" y="-105,047" type="line"/>
      <point x="382,953" y="-105" type="line" smooth="yes"/>
      <point x="349,953" y="-104,672"/>
      <point x="316,953" y="-104,344"/>
      <point x="283,953" y="-104" type="curve" smooth="yes"/>
      <point x="190,203" y="-103,016"/>
      <point x="184,562" y="-102,703"/>
      <point x="166,656" y="-97,8125" type="curve" smooth="yes"/>
      <point x="127,688" y="-87,1875"/>
      <point x="91,2656" y="-64,0938"/>
      <point x="72,9062" y="-37,8594" type="curve" smooth="yes"/>
      <point x="45,9219" y="0,671875"/>
      <point x="32,0781" y="47,8125"/>
      <point x="32,0781" y="94,5" type="curve" smooth="yes"/>
      <point x="32,0781" y="194,5" type="line"/>
      <point x="42,0781" y="194,5" type="line"/>
    </contour>
    <contour>
      <point x="184,219" y="215,672" type="curve" smooth="yes"/>
      <point x="202,906" y="222,766"/>
      <point x="218,359" y="226,328"/>
      <point x="234,078" y="226,328" type="curve" smooth="yes"/>
      <point x="243,172" y="226,328"/>
      <point x="252,281" y="225,109"/>
      <point x="262,109" y="222,875" type="curve" smooth="yes"/>
      <point x="271,391" y="220,766"/>
      <point x="285,328" y="216,844"/>
      <point x="293,719" y="213,688" type="curve" smooth="yes"/>
      <point x="307,688" y="208,703" type="line"/>
      <point x="304,312" y="199,297" type="line"/>
      <point x="290,281" y="204,312" type="line" smooth="yes"/>
      <point x="282,672" y="207,156"/>
      <point x="268,594" y="211,156"/>
      <point x="259,891" y="213,125" type="curve" smooth="yes"/>
      <point x="250,641" y="215,219"/>
      <point x="242,312" y="216,328"/>
      <point x="234,078" y="216,328" type="curve" smooth="yes"/>
      <point x="219,891" y="216,328"/>
      <point x="205,828" y="213,172"/>
      <point x="187,781" y="206,328" type="curve" smooth="yes"/>
      <point x="158,188" y="195,109"/>
      <point x="137,641" y="168,078"/>
      <point x="127,391" y="135,578" type="curve"/>
      <point x="117,844" y="138,594" type="line"/>
      <point x="128,75" y="173,109"/>
      <point x="150,953" y="203,062"/>
    </contour>
  </outline>
</glyph>
<glyph name="uni006C" format="1">
  <advance width="189"/>
  <unicode hex="006C"/>
  <outline>
    <contour>
      <point x="51" y="-5" type="line"/>
      <point x="51" y="582" type="line"/>
      <point x="138" y="582" type="line"/>
      <point x="138" y="-5" type="line"/>
    </contour>
    <contour>
      <point x="100" y="-100" type="line"/>
      <point x="90" y="-100" type="line"/>
      <point x="90" y="0" type="line"/>
      <point x="100" y="0" type="line"/>
    </contour>
    <contour>
      <point x="61" y="-95" type="line"/>
      <point x="128" y="-95" type="line"/>
      <point x="128" y="0" type="line"/>
      <point x="138" y="0" type="line"/>
      <point x="138" y="-100" type="line" smooth="yes"/>
      <point x="138" y="-105" type="line"/>
      <point x="133" y="-105" type="line" smooth="yes"/>
      <point x="95" y="-105" type="line" smooth="yes"/>
      <point x="51" y="-105" type="line"/>
      <point x="51" y="-100" type="line" smooth="yes"/>
      <point x="51" y="0" type="line"/>
      <point x="61" y="0" type="line"/>
    </contour>
  </outline>
</glyph>
